<svg version="1.1" xmlns="http://www.w3.org/2000/svg" xmlns:xlink="http://www.w3.org/1999/xlink" viewBox="0 0 23.4 42.1">
<g fill="#727272">
	<path d="M2.3,0c-1.7,0-2.8,1.7-2,3.2c0.3,0.5,0.6,0.8,1,1.2c5.2,5.2,10.4,10.4,15.6,15.6c1,1,1,1,0,1.9
		C11.8,27.2,6.5,32.4,1.3,37.7c-0.3,0.3-0.6,0.6-0.8,0.9c-0.7,0.9-0.7,2,0,2.8c0.7,0.8,1.8,1,2.8,0.4c0.5-0.3,0.9-0.7,1.3-1.1
		c5.8-5.8,11.5-11.5,17.3-17.3c1.9-1.9,1.9-2.9,0-4.8C16.6,13.3,11.2,8,5.9,2.6C5.2,2,4.6,1.4,3.9,0.7C3.5,0.3,2.9,0,2.3,0z"/>
</g>
</svg>