<?xml version="1.0" encoding="utf-8"?>
<!-- Generator: Adobe Illustrator 22.1.0, SVG Export Plug-In . SVG Version: 6.00 Build 0)  -->
<svg version="1.1" id="Слой_1" xmlns="http://www.w3.org/2000/svg" xmlns:xlink="http://www.w3.org/1999/xlink"
	 viewBox="0 0 27.7 34.1" preserveAspectRatio="xMinYMid">
<g>
	<defs>
		<rect id="SVGID_1_" y="0" width="27.7" height="34.1"/>
	</defs>
	<clipPath id="SVGID_2_">
		<use xlink:href="#SVGID_1_"  overflow="visible"/>
	</clipPath>
	<path clip-path="url(#SVGID_2_)" fill="#B11F2C" d="M5.6,29.1c0,0.7,0,1.4,0,2.1c0,0.6,0.2,0.7,0.6,0.4c1.1-0.7,2.1-0.7,3.2,0
		c0.4,0.3,0.6,0.1,0.6-0.4c0-1.3,0-2.7,0-4c0-0.5-0.2-0.8-0.7-0.8c-1,0-2,0-3.1,0c-0.5,0-0.7,0.2-0.7,0.7
		C5.6,27.7,5.6,28.4,5.6,29.1 M14.4,20.9c-0.3,0-0.5,0-0.8,0c-3,0-6.1,0-9.1,0c-1.3,0-2.1,0.8-2.5,2.2c-0.2,1,0.2,2.1,1.1,2.5
		c0.4,0.2,0.6,0.3,0.8-0.3c0.1-0.6,0.5-0.9,1.1-0.9c1.9,0,3.9,0,5.8,0c0.6,0,1.1,0.3,1.1,1c0,0.5,0.3,0.6,0.8,0.6
		c3.9,0,7.9,0,11.8,0c0.7,0,0.7-0.3,0.5-0.8c-0.4-1.1-0.4-2.3,0-3.4c0.3-0.8,0-0.9-0.7-0.9C20.9,20.9,17.6,20.9,14.4,20.9
		 M15.6,18.9c3.4,0,6.8,0,10.2,0c0.3,0,0.6,0,1,0c0.9,0.2,1.2,0.9,0.7,1.7c-1.3,1.9-1.3,3.8,0,5.8c0.5,0.7,0.2,1.4-0.7,1.6
		c-0.3,0-0.6,0-0.9,0c-4.2,0-8.4,0-12.7,0c-1.4,0-1.4,0-1.4,1.4c0,1.2,0,2.3,0,3.5c0,1.1-0.5,1.4-1.5,1.1c-0.1,0-0.1,0-0.2-0.1
		c-1.6-1-3.1-1-4.8,0c-1,0.6-1.6,0.1-1.7-1.1c0-1.3,0-2.6,0-4c0-0.6-0.1-0.9-0.7-1.1c-2-0.7-3.2-2.6-3-4.6C0.3,21,1.9,19.3,4,19
		c2.3-0.3,4.7-0.1,7-0.1C12.5,18.9,14.1,18.9,15.6,18.9"/>
	<path clip-path="url(#SVGID_2_)" fill="#B11F2C" d="M14.5,2c-0.2,0-0.5,0-0.7,0c-3.1,0-6.2,0-9.3,0C2.6,2,1.4,3.9,2.1,5.6
		c0.5,1.2,1.6,1.5,2.7,1.5c6.5,0,13.1,0,19.6,0c0.6,0,0.8-0.2,0.5-0.8c-0.4-1.2-0.4-2.4,0-3.6C25.2,2.1,25,2,24.4,2
		C21.1,2,17.8,2,14.5,2 M15.3,9c-3.6,0-7.3,0-10.9,0C1.6,9-0.4,6.4,0.1,3.8C0.5,1.5,2.4,0,5,0c4,0,8,0,12,0c2.9,0,5.8,0,8.7,0
		c0.3,0,0.6,0,1,0c1,0.1,1.3,0.8,0.8,1.7c-0.8,1.2-1.2,2.5-0.8,3.9c0.1,0.5,0.3,1,0.6,1.4c0.3,0.4,0.7,0.9,0.4,1.5
		C27.3,9.1,26.7,9,26.1,9C22.5,9,18.9,9,15.3,9"/>
	<path clip-path="url(#SVGID_2_)" fill="#B11F2C" d="M14.3,16.6c3.2,0,6.4,0,9.7,0c1.1,0,1.1,0,0.9-1.1c-0.3-1-0.3-2.1,0.1-3.1
		c0.3-0.9,0.1-1-0.7-1c-5.2,0-10.3,0-15.5,0c-1.4,0-2.8,0-4.2,0c-1.8,0-3,1.9-2.4,3.5c0.3,1,1.2,1.6,2.5,1.6
		C7.8,16.6,11,16.6,14.3,16.6 M15.4,9.5c3.5,0,7.1,0,10.6,0c0.6,0,1.2-0.1,1.5,0.5c0.4,0.6-0.1,1.1-0.4,1.5c-1,1.7-1,3.4,0.1,5
		c0.3,0.4,0.6,0.9,0.3,1.4c-0.3,0.6-0.8,0.6-1.4,0.6c-7,0-14,0-21,0c-1.2,0-2.5-0.1-3.5-1c-1.5-1.3-2.1-3.1-1.5-4.8
		c0.6-2,2.3-3.2,4.3-3.2C8.2,9.5,11.8,9.5,15.4,9.5"/>
</g>
</svg>
