<?xml version="1.0" encoding="utf-8"?>
<!-- Generator: Adobe Illustrator 22.1.0, SVG Export Plug-In . SVG Version: 6.00 Build 0)  -->
<svg version="1.1" id="Слой_1" xmlns="http://www.w3.org/2000/svg" xmlns:xlink="http://www.w3.org/1999/xlink" x="0px" y="0px"
	 viewBox="0 0 27 27.5" style="enable-background:new 0 0 27 27.5;" xml:space="preserve">
<style type="text/css">
	.st0{fill:#FFFFFF;}
</style>
<g>
	<path class="st0" d="M20.2,27.5c-0.6-0.1-1.1-0.2-1.7-0.4c-0.9-0.4-1.7-0.9-2.4-1.7c-0.5-0.6-0.9-1.2-1.1-1.9
		c-0.2-0.6-0.3-1.1-0.4-1.7c0-0.6,0-1.2,0.1-1.8c0.2-0.8,0.5-1.6,1-2.2c0.7-0.9,1.5-1.6,2.5-2.1c0.2-0.1,0.2-0.1,0.2-0.3
		c-0.1-0.5,0.2-0.9,0.7-0.9c1,0,2,0,3,0c0.6,0,0.9,0.4,0.7,1c0,0.1,0,0.1,0.1,0.2c0.4,0.2,0.9,0.4,1.3,0.7c0.1,0.1,0.2,0,0.3-0.1
		c0.2-0.2,0.4-0.3,0.7-0.3c0.3,0,0.5,0.2,0.6,0.4c0.1,0.3,0,0.5-0.2,0.7c-0.1,0.1-0.1,0.1-0.2,0.2c-0.1,0.1-0.1,0.2,0,0.3
		c0.7,0.8,1.1,1.8,1.2,2.8c0.2,1.2,0.1,2.3-0.4,3.4c-0.4,1-1.1,1.8-2,2.5c-0.6,0.5-1.4,0.8-2.1,1.1c-0.3,0.1-0.6,0.1-0.9,0.2
		C21.1,27.5,20.7,27.5,20.2,27.5z M20.9,16.6c-2.4-0.1-4.8,1.9-4.8,4.8c0,2.4,1.8,4.6,4.5,4.7c2.6,0.1,4.7-1.9,4.9-4.4
		C25.8,19,23.6,16.6,20.9,16.6z"/>
	<path class="st0" d="M18.9,0c0.3,0.2,0.4,0.4,0.4,0.8c0,0.3,0.1,0.4,0.3,0.3c0.4,0,0.9,0,1.3,0c0.4,0,0.8,0,1.2,0
		c0.4,0,0.9,0,1.3,0c0.4,0,0.7,0,1.1,0c0.5,0,0.7,0.3,0.7,0.8c0,0.5,0,1,0,1.6c0,0.3-0.3,0.6-0.6,0.7c-0.4,0-0.7-0.1-0.8-0.5
		c-0.1-0.3,0-0.6,0-0.9c0-0.2-0.1-0.3-0.3-0.3c-1.4,0-2.7,0-4.1,0c-0.2,0-0.2,0.1-0.2,0.3c0,0.5-0.2,0.7-0.5,0.8
		c-0.4,0.1-0.9-0.2-0.9-0.6c0,0,0-0.1,0-0.1c0-0.3-0.1-0.3-0.3-0.3c-2.6,0-5.1,0-7.7,0c-0.7,0-1.5,0-2.2,0c-0.2,0-0.3,0-0.3,0.3
		c0,0.5-0.2,0.7-0.6,0.8C6.4,3.7,6,3.4,6,2.9c0-0.4,0-0.4-0.4-0.4c-1.3,0-2.6,0-3.8,0c-0.2,0-0.3,0.1-0.3,0.3c0,0.2,0,0.4,0,0.5
		c0,0.4-0.3,0.8-0.6,0.8C0.4,4.2,0.1,3.9,0,3.4C0,2.8,0,2.2,0,1.6c0-0.2,0.3-0.5,0.6-0.5c0.6,0,1.2,0,1.8,0c0.4,0,0.9,0,1.3,0
		c0.4,0,0.8,0,1.2,0c0.3,0,0.6-0.1,0.9,0C6,1.1,6,1,6,0.9C5.9,0.5,6.1,0.3,6.3,0C6.5,0,6.8,0,7,0c0.2,0.1,0.4,0.3,0.4,0.6
		c0,0.1,0,0.2,0,0.3c0,0.1,0.1,0.2,0.2,0.2c0.4,0,0.7,0,1.1,0c0.4,0,0.8,0,1.2,0c0.4,0,0.9,0,1.3,0c0.7,0,1.4,0,2.1,0
		c0.7,0,1.4,0,2.1,0c0.8,0,1.5,0,2.3,0c0.1,0,0.2-0.1,0.2-0.2C17.8,0.5,18,0.2,18.2,0C18.5,0,18.7,0,18.9,0z"/>
	<path class="st0" d="M12.7,5.3c0.7,0,1.4,0,2.1,0c0.7,0,1.4,0,2.2,0c0.7,0,1.4,0,2.1,0c0.7,0,1.5,0,2.2,0c0.7,0,1.4,0,2.1,0
		c0.4,0,0.8,0,1.1,0c0.5,0,0.7,0.3,0.7,0.8c0,0.7,0,1.4,0,2.1c0,0.7,0,1.4,0,2.1c0,0.7,0,1.4,0,2.1c0,0.3,0.1,0.6,0,0.9
		c-0.1,0.4-0.4,0.7-0.7,0.6c-0.3,0-0.6-0.4-0.6-0.7c0-0.3,0-0.5,0-0.8c0-0.1-0.1-0.2-0.2-0.2c-0.5,0-1,0-1.5,0c-0.8,0-1.5,0-2.3,0
		c-0.1,0-0.2,0-0.3,0c-0.2,0-0.3,0-0.3,0.3c-0.1,0.3-0.4,0.5-0.7,0.5c-0.3,0-0.6-0.3-0.6-0.6c0-0.1-0.1-0.2-0.2-0.2
		c-1.2,0-2.3,0-3.5,0c-0.2,0-0.4,0-0.6,0c-0.2,0-0.3,0.1-0.2,0.3c0.1,0.7,0,1.4,0,2.1c0,0.4,0.1,0.8,0,1.2c0,0.1,0,0.1,0,0.2
		c0,0.5,0,0.5,0.6,0.5c0.4,0,0.7,0.3,0.7,0.7c0,0.4-0.3,0.7-0.7,0.7c-0.6,0-0.6,0-0.6,0.5c0,0.7,0,1.4,0,2.1c0,0.8,0,1.6,0,2.4
		c0,0.3-0.3,0.6-0.6,0.6c-0.9,0-1.9,0-2.8,0c-0.7,0-1.4,0-2.2,0c-0.7,0-1.4,0-2.1,0c-0.4,0-0.9,0-1.3,0c-0.4,0-0.8,0-1.2,0
		c-0.4,0-0.9,0-1.3,0c-0.4,0-0.9,0.1-1.3,0C0.2,23.6,0,23.2,0,22.8c0-0.5,0-1,0-1.5c0-0.4,0-0.8,0-1.2c0-0.4,0-0.8,0-1.2
		c0-0.5,0-0.9,0-1.4c0-0.4,0-0.8,0-1.2c0-0.5,0-0.9,0-1.4c0-0.4,0-0.9,0-1.3c0-0.4,0-0.8,0-1.2c0-0.4,0-0.9,0-1.3c0-0.5,0-0.9,0-1.4
		c0-0.4,0-0.9,0-1.3c0-0.4,0-0.7,0-1.1C0,6.9,0,6.5,0,6c0-0.3,0.2-0.6,0.6-0.6c0.6-0.1,1.1,0,1.7,0c1,0,2.1,0,3.1,0c1,0,2,0,3,0
		c1,0,2,0,3,0C11.8,5.3,12.2,5.3,12.7,5.3C12.7,5.3,12.7,5.3,12.7,5.3z M15.6,11C15.6,11,15.6,11,15.6,11c0.6,0,1.3,0,1.9,0
		c0.3,0,0.4,0,0.4-0.4c0-0.1,0-0.1,0-0.2c-0.1-0.7,0-1.4,0-2.1c0-0.1,0-0.2,0-0.3c0.1-0.4,0.5-0.6,0.8-0.5c0.3,0,0.5,0.4,0.5,0.7
		c0,0.8,0,1.7,0,2.5c0,0.2,0,0.2,0.2,0.2c1.4,0,2.7,0,4.1,0c0.2,0,0.3,0,0.3-0.3c0-1.2,0-2.4,0-3.7c0-0.4,0-0.4-0.4-0.4
		c-0.7,0-1.5,0-2.2,0c-0.7,0-1.4,0-2.1,0c-0.7,0-1.5,0-2.2,0c-0.7,0-1.4,0-2.1,0c-0.7,0-1.4,0-2.2,0c-0.7,0-1.4,0-2.1,0
		c-0.7,0-1.4,0-2.1,0c-0.7,0-1.4,0-2.1,0c-0.7,0-1.4,0-2.1,0c-0.8,0-1.7,0-2.5,0C1.5,6.7,1.4,6.8,1.4,7c0,1.3,0,2.5,0,3.8
		C1.4,11,1.5,11,1.7,11c1.3,0,2.6,0,3.9,0c0.3,0,0.4,0,0.4-0.4c0-0.7,0-1.4,0-2.1C6,8.3,6,8.1,6,8c0.1-0.3,0.5-0.5,0.8-0.5
		c0.3,0,0.6,0.3,0.6,0.7c0,0.9,0,1.7,0,2.6c0,0.2,0.1,0.2,0.2,0.2c0.4,0,0.7,0,1.1,0c1,0,2,0,3,0c0.2,0,0.3-0.1,0.3-0.3
		c0-0.4,0-0.9,0-1.3c0-0.4,0-0.8,0-1.2c0-0.4,0.4-0.7,0.8-0.7c0.3,0,0.6,0.4,0.6,0.8c0,0.4,0,0.8,0,1.2c0,0.4,0,0.9,0,1.3
		c0,0.2,0,0.3,0.2,0.3C14.2,10.9,14.9,11,15.6,11z M1.4,14.5C1.4,14.5,1.4,14.5,1.4,14.5c0,0.6,0,1.2,0,1.8c0,0.4,0,0.4,0.4,0.4
		c0.5,0,0.9,0,1.4,0c0.4,0,0.8,0,1.3,0c0.4,0,0.8,0,1.2,0C6,16.7,6,16.6,6,16.4c0-0.4,0-0.9,0-1.3c0-0.8,0-1.7,0-2.5
		c0-0.2,0-0.2-0.2-0.2c-0.4,0-0.8,0-1.2,0c-1,0-1.9,0-2.9,0c-0.2,0-0.3,0.1-0.3,0.3C1.4,13.3,1.4,13.9,1.4,14.5z M11.9,14.6
		C11.9,14.6,11.9,14.6,11.9,14.6c0-0.6,0-1.3,0-1.9c0-0.1,0-0.2-0.2-0.2c-0.2,0-0.4,0-0.7,0c-1.1,0-2.2,0-3.4,0
		c-0.4,0-0.4,0-0.4,0.4c0,0.5,0,1,0,1.4c0,0.7,0,1.4,0,2.1c0,0.4,0.1,0.4,0.5,0.4c0.4,0,0.8,0,1.3,0c0.4,0,0.9,0,1.3,0
		c0.4,0,0.9,0,1.3,0c0.2,0,0.2,0,0.2-0.2C11.9,15.8,11.9,15.2,11.9,14.6z M3.7,18.1C3.7,18.1,3.7,18.1,3.7,18.1c-0.7,0-1.4,0-2,0
		c-0.2,0-0.3,0.1-0.3,0.3c0,0.6,0,1.3,0,1.9c0,0.6,0,1.2,0,1.9c0,0.2,0.1,0.2,0.2,0.2c0.7,0,1.3,0,2,0c0.7,0,1.4,0,2.1,0
		c0.2,0,0.3,0,0.3-0.3c0-1.3,0-2.5,0-3.8c0-0.2-0.1-0.2-0.2-0.2C5.1,18.1,4.4,18.1,3.7,18.1z M9.7,22.4C9.7,22.4,9.7,22.3,9.7,22.4
		c0.7,0,1.3,0,2,0c0.2,0,0.2,0,0.2-0.2c0-1.3,0-2.6,0-3.9c0-0.2,0-0.2-0.2-0.2c-1.4,0-2.7,0-4.1,0c-0.2,0-0.3,0.1-0.3,0.3
		c0,0.6,0,1.1,0,1.7c0,0.7,0,1.4,0,2c0,0.2,0.1,0.3,0.2,0.3C8.3,22.4,9,22.4,9.7,22.4z"/>
	<path class="st0" d="M21.5,19.9c0.2-0.2,0.3-0.3,0.6-0.4c0.4-0.1,0.9,0.2,0.9,0.7c0,0.2-0.1,0.4-0.2,0.6c-0.4,0.4-0.9,0.9-1.3,1.3
		c-0.2,0.2-0.5,0.3-0.9,0.2c-0.2-0.1-0.4-0.5-0.4-0.8c0-0.4,0-0.9,0-1.3c0-0.4-0.1-0.9,0-1.3c0.1-0.4,0.4-0.6,0.8-0.6
		c0.3,0,0.6,0.4,0.6,0.7C21.5,19.2,21.5,19.5,21.5,19.9z"/>
</g>
</svg>
