<?xml version="1.0" encoding="utf-8"?>
<svg version="1.1" id="Слой_1" xmlns="http://www.w3.org/2000/svg" xmlns:xlink="http://www.w3.org/1999/xlink" x="0px" y="0px"
	 viewBox="0 0 112.4 105.3" style="enable-background:new 0 0 112.4 105.3;" xml:space="preserve">
<path fill="#b0252d" d="M56.1,105.3c-15.2,0-30.3,0-45.5,0c-6.7,0-10.7-4-10.7-10.7c0-25.2,0-50.3,0-75.5C0,12.6,4.1,8.5,10.6,8.5c0.3,0,0.7,0,1,0
	c4.9,0,4.9,0,5.5-4.9c0.2-2.1,1.3-3.4,3.5-3.6c2-0.1,3.5,1.3,3.7,3.6c0.5,4.9,0.5,4.9,5.5,4.9c6.7,0,13.5-0.1,20.2,0
	c2,0,2.7-0.7,2.6-2.6c-0.1-1.1,0-2.2,0.2-3.2C53.2,0.9,54.4,0,56.2,0c1.8,0,3,1,3.4,2.7c0.2,0.8,0.2,1.7,0.2,2.5
	c0.1,3.2,0,3.2,3.4,3.2c7.2,0,14.3,0,21.5,0c3.3,0,3.3,0,3.4-3.5c0-0.7,0-1.3,0.1-2c0.4-1.9,1.5-3,3.5-3c2.1,0,3.2,1.2,3.6,3.1
	c0,0.2,0,0.5,0.1,0.7c0.3,4.6,0.3,4.7,5,4.5c3.6-0.1,6.8,0.5,9.3,3.2c1.7,1.9,2.7,4,2.7,6.5c0,25.8,0,51.6,0,77.5
	c0,5.6-4.3,9.6-10,9.7C87,105.3,71.6,105.3,56.1,105.3z M56.2,98.2c14.7,0,29.5,0,44.2,0c4.1,0,4.8-0.7,4.8-4.8
	c0-16.9,0-33.8,0-50.7c0-3.3,0-3.3-3.4-3.3c-30.4,0-60.8,0-91.2,0c-3.4,0-3.4,0-3.4,3.5c0,16.7,0,33.5,0,50.2c0,4.5,0.6,5.1,5,5.1
	C26.9,98.2,41.5,98.2,56.2,98.2z M56.2,32c15.3,0,30.6,0,46,0c2.2,0,3.2-0.6,3.1-3c-0.1-2.2,0-4.3,0-6.5c0-7-0.1-7-7.1-7
	c-2,0-2.8,0.6-2.8,2.7c0,2.9-1.5,4.5-3.7,4.4c-2.1-0.1-3.6-1.6-3.5-4.3c0-2.3-0.9-2.8-3-2.8c-7.5,0.1-15,0.1-22.5,0
	c-2.2,0-2.9,0.7-2.9,2.9c0,2.7-1.4,4.2-3.6,4.2c-2.1,0-3.7-1.6-3.6-4.2c0.1-2.5-1-2.9-3.1-2.9c-7.2,0.1-14.5,0.1-21.7,0
	c-2.5,0-3.7,0.5-3.5,3.3c0.1,2.3-1.5,3.8-3.4,3.8c-2,0.1-3.4-1.4-3.7-3.7c-0.4-3.4-0.4-3.4-4-3.4c-0.7,0-1.5,0-2.2,0
	c-2.7,0.1-3.6,1-3.6,3.7c-0.1,3,0,6,0,9c0,3.6,0,3.6,3.6,3.6C25.9,32,41,32,56.2,32z"/>
<path fill="#b0252d" d="M26,56.2h-8.5c-2.1,0-3.8-1.7-3.8-3.8v-3.7c0-2.1,1.7-3.8,3.8-3.8H26c2.1,0,3.8,1.7,3.8,3.8v3.7C29.7,54.5,28,56.2,26,56.2z
	"/>
<path fill="#b0252d" d="M49,56.2h-8.5c-2.1,0-3.8-1.7-3.8-3.8v-3.7c0-2.1,1.7-3.8,3.8-3.8H49c2.1,0,3.8,1.7,3.8,3.8v3.7C52.7,54.5,51,56.2,49,56.2z
	"/>
<path fill="#b0252d" d="M72,56.2h-8.5c-2.1,0-3.8-1.7-3.8-3.8v-3.7c0-2.1,1.7-3.8,3.8-3.8H72c2.1,0,3.8,1.7,3.8,3.8v3.7C75.7,54.5,74,56.2,72,56.2z
	"/>
<path fill="#b0252d" d="M95,56.2h-8.5c-2.1,0-3.8-1.7-3.8-3.8v-3.7c0-2.1,1.7-3.8,3.8-3.8H95c2.1,0,3.8,1.7,3.8,3.8v3.7C98.7,54.5,97,56.2,95,56.2z
	"/>
<path fill="#b0252d" d="M26,74.2h-8.5c-2.1,0-3.8-1.7-3.8-3.8v-3.7c0-2.1,1.7-3.8,3.8-3.8H26c2.1,0,3.8,1.7,3.8,3.8v3.7C29.7,72.5,28,74.2,26,74.2z
	"/>
<path fill="#b0252d" d="M49,74.2h-8.5c-2.1,0-3.8-1.7-3.8-3.8v-3.7c0-2.1,1.7-3.8,3.8-3.8H49c2.1,0,3.8,1.7,3.8,3.8v3.7C52.7,72.5,51,74.2,49,74.2z
	"/>
<path fill="#b0252d" d="M72,74.2h-8.5c-2.1,0-3.8-1.7-3.8-3.8v-3.7c0-2.1,1.7-3.8,3.8-3.8H72c2.1,0,3.8,1.7,3.8,3.8v3.7C75.7,72.5,74,74.2,72,74.2z
	"/>
<path fill="#b0252d" d="M95,74.2h-8.5c-2.1,0-3.8-1.7-3.8-3.8v-3.7c0-2.1,1.7-3.8,3.8-3.8H95c2.1,0,3.8,1.7,3.8,3.8v3.7C98.7,72.5,97,74.2,95,74.2z
	"/>
<path fill="#b0252d" d="M26,92.2h-8.5c-2.1,0-3.8-1.7-3.8-3.8v-3.7c0-2.1,1.7-3.8,3.8-3.8H26c2.1,0,3.8,1.7,3.8,3.8v3.7C29.7,90.5,28,92.2,26,92.2z
	"/>
<path fill="#b0252d" d="M49,92.2h-8.5c-2.1,0-3.8-1.7-3.8-3.8v-3.7c0-2.1,1.7-3.8,3.8-3.8H49c2.1,0,3.8,1.7,3.8,3.8v3.7C52.7,90.5,51,92.2,49,92.2z
	"/>
<path fill="#b0252d" d="M72,92.2h-8.5c-2.1,0-3.8-1.7-3.8-3.8v-3.7c0-2.1,1.7-3.8,3.8-3.8H72c2.1,0,3.8,1.7,3.8,3.8v3.7C75.7,90.5,74,92.2,72,92.2z
	"/>
</svg>
