<?xml version="1.0" encoding="utf-8"?>
<!-- Generator: Adobe Illustrator 22.1.0, SVG Export Plug-In . SVG Version: 6.00 Build 0)  -->
<svg version="1.1" id="Слой_1" xmlns="http://www.w3.org/2000/svg" xmlns:xlink="http://www.w3.org/1999/xlink" x="0px" y="0px"
	 viewBox="0 0 81.7 107.5" style="enable-background:new 0 0 81.7 107.5;" xml:space="preserve">
<path fill="#C41F2D" d="M0,5.7v96c0,3.9,1.9,5.8,5.8,5.8h70.1c3.9,0,5.8-1.9,5.8-5.8v-96c0-3.8-1.9-5.7-5.8-5.7H5.8C1.9,0,0,1.9,0,5.7z
	"/>
<path fill="#FFF" d="M34.3,35.5c0.3-0.4,0.1-13.5,0.1-15.2c0-2.6,0-5.2,0-7.8c0-1-0.2-7.4,0.4-7.4h12.4v0.2h0.2v29.6h-0.2l0.1,0.2
	l0.4,0.4V4.9H34.3V35.5z"/>
<path fill="#FFF" d="M49.2,30.1v3.8h4.5c0.8,0,4-2.9,4.6-3.5c1.7-1.7,2.2-2.6,3.6-4.6c1.1-1.7,2-3.1,3.3-4.8c0.5-0.7,1.3-1.5,2-2
	c0.4-0.3,2.2-1.5,2.4-1.7c-0.3-0.4-3.6-3.8-3.9-3.8c-0.5,0-4,3-4.6,3.6c-1.3,1.4-2.3,3.1-3.5,4.8c-1.2,1.9-2,3-3.7,4.5
	c-0.9,0.8-1.4,1.2-2.3,1.9C51.2,28.5,49.2,29.8,49.2,30.1z"/>
<path fill="#FFF" d="M17.5,12.5c0,0.4,2.8,3.4,3.3,3.8c1.2,1.3,2.5,2.3,4.1,3.1c1.4,0.8,2.9,2,4.2,3.1c0.5,0.4,3.4,3.4,3.7,3.5v-7.4
	c0-1.2-4.3-4.1-5.2-4.8c-1-0.6-2-1.3-2.9-2.1c-0.8-0.6-2.1-1.9-2.7-2.3C21.5,9.7,17.5,12.2,17.5,12.5z"/>
<path fill="#FFF" d="M49.2,20.4v6.5c0.6-0.1,3.5-2.7,4.1-3.2c1.2-1.2,2.4-2.7,3.3-4.2c0.9-1.4,2.1-3,3.2-4.1c1.6-1.6,2.5-2,4.3-3.2
	C63.8,11.8,59.7,9,59.3,9c-0.4,0-2.7,1.9-3.2,2.2c-0.7,0.6-2,2.1-2.5,2.8c-0.8,1.1-1.5,2.1-2.2,3.3C51.2,17.7,49.2,20.3,49.2,20.4z"
	/>
<path fill="#FFF" d="M12.1,17.7c0,0.9,2.9,4,3.6,4.7c1.3,1.4,3.3,2.3,5,3.4c1.8,1.3,3,2.1,4.6,3.7c0.5,0.5,3.8,4.4,4,4.4h3.5v-4.3
	c0-0.5-3.2-3.9-3.7-4.4c-1.5-1.5-2.9-2.5-4.6-3.6c-1.7-1.1-3.3-2-4.7-3.4c-0.8-0.7-3.5-3.5-3.7-4.4C15.6,13.8,12.1,17.5,12.1,17.7z"
	/>
<path fill="#FFF" d="M7.8,24c0,1.2,3.8,5,4.8,5.8c1,0.8,2.1,1.3,3.3,2c0.4,0.2,3,2.1,3.1,2.1h7c-0.1-0.6-2.6-3.7-3.1-4.2
	c-1.3-1.3-2.9-2-4.4-3c-1.7-1.1-2.9-1.8-4.4-3c-0.6-0.5-2.9-3.5-3.1-4.3c-0.5,0-1.5,1.6-1.8,2.1C9,21.8,7.8,23.7,7.8,24z"/>
<path fill="#FFF" d="M57.6,33.9h7.5c0.7,0,3.9-4.4,4.4-5.2c0.7-1,1.3-1.8,2.2-2.7c0.3-0.3,2.3-2.2,2.3-2.5s-2.7-4.3-3-4.3h-0.1
	c-0.8,0-3.4,2.5-3.9,3.1c-1.1,1.1-2.2,2.6-3.1,3.9c-0.8,1.3-1.8,3.1-2.9,4.1C60.6,30.7,57.6,33.7,57.6,33.9z"/>
<path fill="#FFF" d="M34.4,35.5H3.8v13.4h30.6v30.5h13.1v-0.1L47.3,79c0.2-0.1,0.1,0.2,0.1-0.2V49.2h-0.1v-0.6
	c0.2,0,0.3,0.1,0.6,0.1h29.9c0.3,0,0.3-0.1,0.4-0.2l0.1-12.9l-30.6-0.1l-0.4-0.4v-0.3h0.1V5.3h-0.1V5.2H34.8c-0.6,0-0.4,6.3-0.4,7.3
	c0,2.6,0,5.1,0,7.7C34.4,22,34.6,35.1,34.4,35.5z"/>
<path fill="#FFF" d="M16.5,71c0.6,0,4-3.2,4.5-3.8c1.4-1.4,2.6-3,3.7-4.7c1.2-1.9,2.1-3,3.7-4.6c0.7-0.8,1.4-1.3,2.1-2
	c0.3-0.3,2.3-1.6,2.3-1.9v-3.6h-4.7c-0.5,0-3.8,3.2-4.3,3.7c-1.1,1-3.1,3.2-3.7,4.5c-0.7,1.3-2.4,3.7-3.3,4.8
	c-0.7,0.7-1.3,1.4-2.1,2c-0.1,0.2-2.1,1.8-2.1,1.8C12.9,67.7,16.2,71,16.5,71z"/>
<path fill="#FFF" d="M49.2,57.8c0,2.3,0,4.6,0,7c0,1.4,0.5,1.3,1.2,2.3c0.4,0.6,1.2,1.3,1.7,1.7c1.1,0.9,3,2,4.3,2.8
	c0.7,0.4,1.3,0.9,2,1.5c0.2,0.2,1.6,1.8,1.6,1.8c0.5,0,4.6-2.8,4.6-3.1c0-0.6-2.8-3.5-3.4-4c-0.7-0.5-1.4-1.1-2.1-1.6
	c-0.8-0.5-1.5-0.9-2.3-1.4c-1.5-0.9-2.9-2-4.2-3.2c-0.6-0.7-1.1-1.2-1.7-1.9C50.6,59.4,49.4,57.9,49.2,57.8z"/>
<path fill="#FFF" d="M56.4,50.4c1.2,2.9,5,5.3,7.6,7c0.7,0.6,1.6,1.1,2.2,1.5c0.8,0.6,1.3,1.2,2,1.7c0.7,0.6,1.2,1.3,1.8,1.9
	c0.4,0.4,1.3,1.9,1.5,2.1c0.5-0.3,3-4.3,3-5c0-0.1-2-2.6-2.2-2.8c-1-1-1.6-1.6-2.7-2.4c-0.9-0.7-2.1-1.3-3.1-2c-0.3-0.2-2.9-2-3-2
	H56.4z"/>
<path fill="#FFF" d="M11.1,65.3c3-1.6,5.3-4.5,7.1-7.4c0.9-1.4,2.1-3,3.2-4.1c0.5-0.5,3.7-3.2,3.7-3.4h-8.5c-0.7,0-3.7,4.4-4.2,5.2
	c-0.7,1.3-3.2,4.5-4.5,4.9C8,61.2,10.6,65,11.1,65.3z"/>
<path fill="#FFF" d="M49.2,54c0,0.7,3,4.2,3.6,4.7c1.8,1.8,2.7,2.4,4.7,3.8c1.8,1.1,3.3,2.2,4.8,3.6c0.8,0.7,1.4,1.3,2.2,2
	c0.5,0.5,1.7,1.9,2.1,2.1c0.3-0.5,3.5-3.3,3.5-3.8c0-0.8-2.9-4-3.6-4.5c-1.6-1.2-2.9-2.3-4.7-3.4c-1.6-1.1-3.3-2.2-4.6-3.5
	c-0.7-0.7-3.4-3.8-3.6-4.6h-4.4V54z"/>
<path fill="#FFF" d="M23,75.4c2.2-1.5,3.9-2.9,5.5-5.1c0.5-0.6,4.3-6,4.3-6.4V57c-0.5,0.1-3.7,2.9-4.1,3.4c-1.3,1.6-2.1,2.5-3.2,4.4
	c-1.1,1.8-1.8,2.7-3.3,4.2c-0.7,0.7-1.3,1.2-2.1,1.7c-0.5,0.4-1.9,1.2-2,1.7C18.9,72.6,21.5,75.1,23,75.4z"/>
<path fill="#FFF" d="M34.3,79.4l13.4,0.1V48.9h30.6V35.6l-0.1,12.9c-0.2,0.1-0.2,0.2-0.4,0.2H47.9c-0.3,0-0.4-0.1-0.7-0.1v0.6h0.2
	v29.6c0,0.4,0.1,0.1-0.1,0.2l0.2,0.3v0.1H34.3z"/>
<rect x="41.8" y="85.3" fill="#FFF" width="1.8" height="2.4"/>
<path fill="#FFF" d="M53.5,94.4c0-0.6,0.8-1.5,1.2-1.8c0.5-0.4,1.4-0.7,2.2-0.7h1.6c1.1,0,2.5,1.2,2.5,2.3v0.7c0,1.3-1,1.4-2.2,1.7
	c-1.1,0.2-2.3,0.1-3.4,0.4c-1.1,0.2-1.9,0.5-2.7,1c-0.5,0.4-1.5,1.5-1.5,2.3v1.6c0,1.6,2.2,3.2,4,3.2h0.4c1.5,0,2.2-0.2,3.3-0.6
	c0.9-0.4,1.9-1.5,2.2-1.6v0.7c0,0.7,0.8,1.4,1.5,1.4h0.8c0.4,0,0.3-0.2,0.7-0.2h0.3v-1.3c-0.5,0-0.7,0.2-1.1,0.2
	c-0.9,0-0.6-2.7-0.6-3.7c0-1.4,0-2.8,0-4.2c0-1.3-0.1-2.6-0.6-3.5c-0.8-1.3-1.4-1.1-2.4-1.7l-1.8-0.2h-1c-2.7,0-5.1,1.8-5.1,4.6h1.7
	V94.4z M56.1,103.7L56.1,103.7z M56.1,103.7H56c-1.7,0-3.1-0.9-3.1-2.5v-0.4c0-1.4,1.8-2.4,3.2-2.5c0.8,0,1.8-0.3,2.5-0.3
	c1.1,0,1.6-0.4,2.4-0.6v2.9c0,0.9-1,2-1.7,2.4C58.5,103.3,57.3,103.7,56.1,103.7z"/>
<path fill="#FFF" d="M35.9,98.1c0-3.3,0.9-5.9,4.2-5.9h0.5v-1.8h-0.3c-1.3,0-2.1,0.3-2.9,0.8c-1,0.7-0.9,1.4-1.5,2.1v-2.5h-1.6v14
	h1.6V98.1z"/>
<path fill="#FFF" d="M66.3,94.1c0-1.2,1.3-2.2,2.4-2.2h1.7c1.2,0,2.8,1.4,2.8,2.5v0.4h1.7c0-1.5-0.8-2.6-1.6-3.3
	c-0.8-0.8-2.1-1.1-3.8-1.1h-0.7c-2,0-4.2,1.6-4.2,3.6v1.1c0,2.1,2.5,2.7,4.3,3.1c1.5,0.4,4.7,0.9,4.7,2.6v0.6c0,0.5-0.7,1.4-1.2,1.7
	c-0.6,0.3-1.2,0.6-2.1,0.6h-1.2c-1.6,0-3-1.8-3.2-3.3h-1.6c0,2.5,2.1,4.7,4.6,4.7H71c0.6,0,2.5-0.8,2.8-1.1c0.6-0.4,1.5-1.5,1.5-2.3
	v-1.1c0-1.5-1.5-2.5-2.6-3c-0.5-0.2-3.6-1.1-4.2-1.1C67.6,95.9,66.3,95.8,66.3,94.1L66.3,94.1z"/>
<path fill="#FFF" d="M8.4,97.4c0-1.3,0.7-3.1,1.3-3.9c0.7-1,1.8-1.6,3.5-1.6h0.6c1.6,0,3.5,1.9,3.5,3.3H19c0-1.4-1-2.8-1.7-3.5
	c-0.7-0.8-2.2-1.3-3.8-1.3h-0.7c-1.8,0-3.4,0.9-4.2,2c-0.7,0.8-1.8,2.9-1.8,4.4v1.9c0,3.5,2.4,6.4,6,6.4h1.1c2.7,0,5.3-2.7,5.3-5.2
	h-1.5c-0.3,0-0.5,1.3-0.7,1.5c-0.1,0.4-0.6,1-0.8,1.2c-0.7,0.7-1.8,1.1-3.1,1.1c-2.8,0-4.7-2.7-4.7-5.4V97.4z"/>
<path fill="#FFF" d="M22.2,95c0.4,0,0.2-0.7,0.5-1.2c0.2-0.4,0.4-0.7,0.7-1c0.6-0.5,1.5-0.9,2.5-0.9h1c1.8,0,3,0.8,3,2.7v0.2
	l-0.1,1.1c-0.4,0.1-0.5,0.3-1.2,0.5c-0.5,0.1-1.1,0.1-1.6,0.2c-0.6,0.3-2.3,0.2-3.1,0.5c-1,0.3-1.7,0.5-2.5,1.1
	c-0.5,0.4-1.3,1.5-1.3,2.3v1c0,1,0.5,1.8,1,2.3c0.8,0.8,1.3,0.7,2,1.2l1.6,0.2h0.5c0.8,0,2.3-0.4,2.8-0.8c0.4-0.3,0.7-0.4,1.1-0.7
	c0.2-0.2,0.7-0.6,0.9-0.8c0,1.5,0.7,2.1,2.1,2.1c0.5,0,0.9-0.2,1.2-0.3v-1.2l-1,0.1c-0.2,0-0.2,0-0.5-0.1c-0.1-1.4-0.2-2.7-0.2-4.4
	c0-1.5,0.1-3.3,0-4.7c-0.2-2.9-2-4-5.1-4s-5.7,1.5-5.7,4.6H22.2z M21.9,100.8L21.9,100.8z M21.9,100.8c0-1.7,1.7-2.3,3.2-2.5
	c0.8-0.1,1.8-0.1,2.6-0.3c0.6-0.1,2.1-0.5,2.3-0.5v2.6c0,0.2-0.1,0.2-0.2,0.4v0.3c-0.7,1.2-0.5,1.4-1.8,2.1
	c-0.8,0.5-1.8,0.8-3.1,0.8c-1.3,0-3-0.8-3-2V100.8z"/>
<rect x="41.9" y="90.8" fill="#FFF" width="1.6" height="14"/>
<path fill="#FFF" d="M48.2,92.1h2.6v-1.3h-2.6v-4h-1.7v4h-1.9v1.4h1.9v10l0.1,1.3c0.5,0.9,0.5,1.6,2.2,1.6h1c0.3,0,1.1-0.1,1.1-0.5
	v-1.1c-0.6,0-0.6,0.2-1.1,0.2h-0.5c-0.9,0-1.1-0.7-1.1-1.6V92.1z"/>
</svg>
