<?xml version="1.0" encoding="utf-8"?>
<!-- Generator: Adobe Illustrator 22.1.0, SVG Export Plug-In . SVG Version: 6.00 Build 0)  -->
<svg version="1.1" id="Слой_1" xmlns="http://www.w3.org/2000/svg" xmlns:xlink="http://www.w3.org/1999/xlink" x="0px" y="0px"
	 viewBox="0 0 37.6 33.5" enable-background="new 0 0 37.6 33.5" xml:space="preserve">
<g>
	<defs>
		<rect id="SVGID_1_" y="0" width="37.6" height="33.5"/>
	</defs>
	<clipPath id="SVGID_2_">
		<use xlink:href="#SVGID_1_"  overflow="visible"/>
	</clipPath>
	<path clip-path="url(#SVGID_2_)" fill="#B11F2C" d="M14.7,28.6c0.3,0,0.7-0.1,1-0.4c0.8-0.7,1.5-1.5,2.3-2.2c0.6-0.6,0.6-1.5,0-2.1
		c-0.6-0.6-1.5-0.6-2.2,0c-0.7,0.7-1.5,1.4-2.2,2.1c-0.5,0.5-0.6,1-0.4,1.6C13.5,28.3,14,28.6,14.7,28.6 M15.1,21.7
		c0-0.6-0.3-1.1-0.9-1.3c-0.6-0.3-1.2-0.1-1.6,0.3c-0.8,0.8-1.6,1.5-2.4,2.3c-0.6,0.6-0.6,1.4,0,2c0.6,0.6,1.5,0.6,2.1,0
		c0.8-0.7,1.5-1.5,2.3-2.2C15,22.5,15.1,22.1,15.1,21.7 M21.9,28.3c0-0.7-0.3-1.1-0.9-1.4c-0.6-0.3-1.2-0.2-1.6,0.2
		c-0.8,0.8-1.6,1.5-2.4,2.3c-0.6,0.6-0.5,1.5,0.1,2.1c0.6,0.5,1.5,0.5,2.1,0c0.8-0.7,1.6-1.5,2.3-2.2C21.7,29,21.8,28.6,21.9,28.3
		 M6.4,20.6c0,0.7,0.3,1.1,0.9,1.4c0.6,0.3,1.1,0.2,1.6-0.2c0.9-0.8,1.7-1.6,2.6-2.5c0.5-0.6,0.4-1.4-0.2-1.9
		c-0.6-0.6-1.5-0.6-2.1,0c-0.8,0.7-1.5,1.5-2.3,2.2C6.6,19.9,6.4,20.3,6.4,20.6 M26.5,2.5c-0.4,0-0.9,0-1.3,0.1
		c-2.3,0.3-4.4,1.1-6,2.7c-2.1,1.9-4.2,4-6.2,5.9c-0.3,0.2-0.2,0.3,0.1,0.5c1.6,0.7,3.4,0.4,4.7-0.8c1.3-1.3,2.7-2.6,4-3.8
		c0.5-0.4,0.9-0.5,1.4,0c0.4,0.3,0.7,0.7,1.1,1.1c1.9,1.8,3.8,3.7,5.7,5.5c1.2,1.2,2.5,2.4,3.7,3.6c0.2,0.2,0.2,0.1,0.4,0
		c0.3-0.4,0.5-0.8,0.8-1.1c2-3.4,1.4-7.9-1.4-10.7C31.4,3.4,29.1,2.6,26.5,2.5 M11.3,1.6c-2.7,0-4.9,0.8-6.7,2.4
		c-2.5,2.2-3.2,5-2.8,8.1c0.4,2.5,1.5,4.6,3.4,6.3c0.2,0.2,0.3,0.2,0.5,0c0.8-0.7,1.5-1.5,2.3-2.2c0.8-0.7,1.8-1,2.8-0.8
		c1.5,0.3,2.4,1.3,2.6,2.9c0,0.2,0.1,0.3,0.3,0.3c1.7,0.1,2.9,1.3,3,2.9c0,0.2,0.1,0.3,0.3,0.3c0.3,0,0.7,0.1,1,0.2
		c1.2,0.5,1.9,1.4,2,2.7c0,0.2,0,0.3,0.3,0.3c1,0,1.8,0.5,2.4,1.2c0.2,0.2,0.5,0.4,0.7,0.6c1,0.5,2.2-0.2,2.2-1.3
		c0-0.5-0.3-0.9-0.6-1.2c-1.6-1.5-3.2-3.1-4.8-4.6c-0.6-0.6-1.2-1.2-1.9-1.8c-0.3-0.2-0.4-0.5-0.2-0.9c0.1-0.3,0.4-0.5,0.7-0.5
		c0.3-0.1,0.6,0.1,0.8,0.3c1.6,1.5,3.2,3.1,4.8,4.6c0.7,0.7,1.4,1.4,2.1,2c0.6,0.6,1.6,0.5,2.1-0.1c0.6-0.6,0.6-1.5-0.1-2.1
		c-0.2-0.2-0.3-0.3-0.5-0.5c-2.1-2-4.2-4-6.3-6c-0.2-0.1-0.3-0.3-0.3-0.5c-0.1-0.4,0.1-0.7,0.4-0.9c0.4-0.2,0.8-0.1,1.1,0.2
		c1.8,1.7,3.6,3.5,5.4,5.2c0.5,0.5,1,0.9,1.5,1.4c0.5,0.4,1,0.5,1.6,0.3c0.6-0.3,0.9-0.7,0.9-1.4c0-0.6-0.3-0.9-0.7-1.3
		c-2.1-2-4.3-4.1-6.4-6.1c-1-0.9-1.9-1.9-2.9-2.8c-0.2-0.2-0.3-0.2-0.5,0c-0.2,0.2-0.4,0.4-0.6,0.6c-1.1,1-2,2.1-3.1,2.9
		c-1.1,0.9-2.5,1.3-3.9,1.2c-1.6-0.1-2.9-0.8-4-1.9c-0.2-0.2-0.2-0.3,0-0.5c0.2-0.1,0.3-0.3,0.4-0.4c2.2-2.1,4.4-4.3,6.6-6.4
		c0.2-0.2,0.2-0.3,0-0.4C15.7,2.5,13.6,1.7,11.3,1.6 M11.4,0c2.6,0.1,5.2,1,7.4,3C19,3.1,19.1,3.2,19.4,3c2.2-1.4,4.6-2.1,7.3-2.1
		c4.6,0,8.4,2.5,10.1,6.6c1.5,3.7,1,7.2-1.4,10.5c0,0-0.1,0.1-0.1,0.1c-0.5,0.5-0.9,1.1-1.1,1.8c-0.3,1.3-1.4,2.1-2.8,2.2
		c-0.3,0-0.4,0.1-0.4,0.4c-0.1,1.5-1.3,2.8-3.1,2.9c-0.2,0-0.3,0.1-0.3,0.3c-0.2,1.9-1.7,3.1-3.7,2.9c-0.2,0-0.4,0-0.4,0.3
		c-0.1,0.6-0.5,1.1-1,1.6c-0.8,0.7-1.5,1.4-2.2,2.1c-1,0.9-2.1,1.1-3.4,0.7c-1.2-0.5-1.9-1.4-2.1-2.7c0-0.3-0.1-0.4-0.4-0.4
		c-1.6-0.1-2.7-1.2-3-2.6c-0.1-0.4-0.2-0.6-0.6-0.6c-1.5-0.2-2.7-1.3-2.8-2.8c0-0.3-0.2-0.4-0.4-0.4c-0.9-0.1-1.7-0.5-2.3-1.2
		c-0.5-0.6-0.7-1.2-0.7-2c0-0.3-0.1-0.5-0.3-0.7c-1.1-1-2.1-2-2.8-3.3c-1.9-3.5-2.3-7.1-0.6-10.7C2.2,3.6,4,2,6.4,1
		C7.9,0.3,9.5,0,11.4,0"/>
</g>
</svg>
