<?xml version="1.0" encoding="utf-8"?>
<!-- Generator: Adobe Illustrator 22.1.0, SVG Export Plug-In . SVG Version: 6.00 Build 0)  -->
<svg version="1.1" id="Слой_1" xmlns="http://www.w3.org/2000/svg" xmlns:xlink="http://www.w3.org/1999/xlink" x="0px" y="0px"
	 viewBox="0 0 72.9 58.4" enable-background="new 0 0 72.9 58.4" xml:space="preserve">
<path d="M10.8,44c0.4,0,0.5-0.3,0.6-0.4c2.9-2.9,5.8-5.8,8.8-8.8c0.6-0.6,1.2-0.8,2-0.8c0.8,0,1.6,0,2.4,0
	c1.2,0,2,0.7,2,1.7c0,1.1-0.7,2-1.9,1.8c-1.7-0.2-2.8,0.5-4,1.7c-3.3,3.4-6.7,6.7-10,10C10,50,9.3,50.4,8.3,50
	c-1-0.4-1.1-1.3-1.1-2.2c0-3.2,0-6.4,0-9.5c0-0.6-0.2-0.8-0.8-0.8c-0.9,0-1.8,0-2.6,0C1.6,37.4,0,35.7,0,33.4c0-7.8,0-15.7,0-23.5
	C0,8,0,6.2,0,4.4C0,1.7,1.7,0,4.3,0c12.1,0,24.2,0,36.3,0c4,0,8,0,12,0c2.8,0,4.5,1.6,4.5,4.5c0,3.6,0,7.3,0,10.9
	c0,1-0.7,1.6-1.6,1.8c-0.8,0.1-1.6-0.5-1.8-1.3c-0.1-0.2-0.1-0.5-0.1-0.8c0-3.5,0-7,0-10.5c0-0.9-0.2-1.1-1.1-1.1c-16,0-32,0-47.9,0
	c-0.9,0-1.1,0.2-1.1,1.1c0,9.4,0,18.9,0,28.3c0,0.9,0.1,1.1,1.1,1.1c1.4,0,2.8,0,4.1,0c1.4,0,2.1,0.7,2.1,2.1
	C10.8,38.7,10.8,41.3,10.8,44z"/>
<path d="M30.4,35.1c0-3.2,0.1-6.4,0-9.5c-0.1-2.4,1.5-4.6,4.6-4.6c5.9,0,11.8,0,17.7,0c5.2,0,10.4,0,15.6,0.1
	c2.8,0,4.5,1.7,4.5,4.5c0,6.4,0,12.9,0,19.3c0,2.7-1.7,4.5-4.4,4.4c-0.7,0-0.9,0.1-0.9,0.9c0.1,2.1,0,4.2,0,6.3
	c0,0.9-0.3,1.6-1.1,1.9c-0.8,0.3-1.5,0-2.1-0.6c-2.6-2.6-5.2-5.2-7.8-7.8c-0.5-0.5-0.9-0.6-1.5-0.6c-6.7,0-13.5,0-20.2,0
	c-2.7,0-4.4-1.7-4.4-4.5C30.5,41.6,30.5,38.3,30.4,35.1C30.4,35.1,30.4,35.1,30.4,35.1z M64.2,52.3c0-1.6,0-3.1,0-4.6
	c0-1.2,0.6-1.9,1.9-1.9c0.8,0,1.5,0,2.3,0c1,0,1.1-0.1,1.1-1.1c0-6.4,0-12.7,0-19.1c0-1-0.1-1.1-1.1-1.1c-11.1,0-22.1,0-33.2,0
	c-1.1,0-1.2,0.1-1.2,1.2c0,6.3,0,12.6,0,18.9c0,0.2,0,0.4,0,0.6c0,0.4,0.2,0.6,0.6,0.6c0.3,0,0.5,0,0.8,0c6.9,0,13.7,0,20.6,0
	c1,0,1.8,0.3,2.6,1.1c1.6,1.7,3.3,3.4,5,5C63.7,52,63.8,52.3,64.2,52.3z"/>
<path d="M28.5,14.9c-5.1,0-10.2,0-15.3,0c-1.4,0-2.3-0.9-2-2.2c0.2-0.7,0.6-1.2,1.3-1.3c0.4-0.1,0.8-0.1,1.1-0.1
	c9.9,0,19.8,0,29.7,0c0.3,0,0.6,0,0.9,0.1c1,0.1,1.7,0.9,1.7,1.8c0,0.9-0.8,1.7-1.7,1.7c-0.2,0-0.5,0-0.7,0
	C38.5,14.9,33.5,14.9,28.5,14.9z"/>
<path d="M18.8,26.3c-1.9,0-3.8,0-5.7,0c-1.4,0-2.2-1.1-1.9-2.3c0.2-0.8,1-1.3,2.1-1.3c2.5,0,5,0,7.5,0
	c1.2,0,2.5,0,3.7,0c0.7,0,1.3,0.2,1.7,0.8c0.4,0.6,0.5,1.2,0.2,1.8c-0.3,0.7-1,1-1.7,1C22.7,26.3,20.8,26.3,18.8,26.3z"/>
<path d="M42,35.2c0-1,0.7-1.8,1.7-1.8c0.9,0,1.7,0.8,1.7,1.7c0,0.9-0.8,1.8-1.8,1.8C42.8,36.9,42,36.1,42,35.2z"/>
<path d="M49.9,35.1c0-1,0.7-1.7,1.7-1.7c1,0,1.8,0.8,1.8,1.7c0,0.9-0.8,1.7-1.7,1.7C50.8,36.9,49.9,36.1,49.9,35.1z"
	/>
<path d="M59.6,33.4c1,0,1.7,0.7,1.7,1.7c0,1-0.8,1.8-1.7,1.8c-1,0-1.8-0.8-1.7-1.8C57.9,34.2,58.7,33.4,59.6,33.4z"
	/>
</svg>
