<?xml version="1.0" encoding="utf-8"?>
<!-- Generator: Adobe Illustrator 22.1.0, SVG Export Plug-In . SVG Version: 6.00 Build 0)  -->
<svg version="1.1" id="Слой_1" xmlns="http://www.w3.org/2000/svg" xmlns:xlink="http://www.w3.org/1999/xlink" x="0px" y="0px"
	 viewBox="0 0 39.4 37" enable-background="new 0 0 39.4 37" xml:space="preserve">
<g>
	<defs>
		<rect id="SVGID_1_" y="0" width="39.4" height="37"/>
	</defs>
	<clipPath id="SVGID_2_">
		<use xlink:href="#SVGID_1_"  overflow="visible"/>
	</clipPath>
	<path clip-path="url(#SVGID_2_)" fill="#B11F2C" d="M25.4,28.1c-0.2,0.4-0.6,0.8-1,1c-0.1,0.1-0.1,0.2-0.1,0.4c0,0.6,0,1.1,0,1.7
		c0,1.3,0.1,2.6-0.1,3.9c0,0.2,0.1,0.4,0.4,0.4c0.5,0.1,0.8-0.2,0.8-0.7C25.4,32.6,25.4,30.4,25.4,28.1 M26.8,31L26.8,31
		c0,1.2,0,2.4,0,3.6c0,0.1,0,0.3,0,0.5c0.1,0.3,0.3,0.5,0.7,0.5c0.3,0,0.5-0.2,0.6-0.5c0.1-0.7,0.2-1.4,0.2-2.1
		c0.2-1.9,0.4-3.9,0.6-5.8c0-0.3-0.1-0.4-0.3-0.4c-0.5,0-0.9,0-1.4,0c-0.4,0-0.5,0.1-0.4,0.5C26.8,28.5,26.8,29.7,26.8,31 M20,12.8
		c-1.3,0-2.2,1-2.2,2.2c0,1.2,0.9,2.2,2.2,2.2c1.2,0.1,2.3-1,2.3-2.2C22.3,13.7,21.3,12.8,20,12.8 M17.9,31.7L17.9,31.7
		c0,0.9,0,1.9,0,2.8c0,0.2,0,0.5,0.2,0.7c0.3,0.3,0.7,0.4,1.1,0.3c0.4-0.1,0.6-0.4,0.6-0.8c0-1.1,0-2.3,0-3.4c0-0.6,0-1.3,0-1.9
		c0-0.5,0.4-0.8,0.8-0.8c0.3,0.1,0.5,0.3,0.6,0.8c0,0.6,0,1.2,0,1.8c0,1.1,0,2.3,0,3.4c0,0.6,0.4,0.9,1,0.9c0.5,0,0.8-0.4,0.8-0.9
		c0-1.5,0-2.9,0-4.4c0-0.5,0-1,0-1.5c0-0.5,0.2-0.7,0.7-0.8c0.4-0.1,0.6-0.2,0.6-0.7c0-1.5,0-3,0-4.5c0-1.4-1.1-2.7-2.5-2.9
		c-0.7-0.1-1.3-0.1-2-0.1c-1.5,0.1-2.9,1.3-2.9,2.7c-0.1,1.6,0,3.3,0,4.9c0,0.3,0.2,0.5,0.5,0.5c0.6,0.1,0.8,0.3,0.8,1
		C17.9,29.9,17.9,30.8,17.9,31.7 M8.2,17.7L8.2,17.7c0-1.2,0-2.4,0-3.6c0-0.2,0-0.4,0.1-0.6C8.5,13.1,9,13,9.4,13.3
		c0.2,0.2,0.2,0.4,0.2,0.6c0,2.9,0.1,5.8-0.1,8.8c-0.1,1.5-0.1,3-0.2,4.5c0,0.7,0,1.3-0.1,2c-0.1,1.7-0.2,3.4-0.2,5.1
		c0,0.7,0.5,1.2,1.1,1.2c0.7,0,1.3-0.4,1.3-1.2c0.1-1.5,0.2-3,0.2-4.4c0.1-1.8,0.2-3.5,0.2-5.3c0-0.4,0-0.8,0.1-1.1
		c0-0.4,0.3-0.5,0.6-0.5c0.3,0,0.6,0.2,0.7,0.5c0,0.2,0.1,0.4,0.1,0.6c0,0.8,0.1,1.6,0.1,2.3c0.1,2.4,0.2,4.9,0.4,7.3
		c0,0.3,0,0.7,0.1,1c0.2,0.6,0.8,0.9,1.4,0.8c0.5-0.1,1-0.7,1-1.2c0-1.6,0-3.2,0-4.8c0-0.2-0.1-0.3-0.2-0.4c-0.8-0.4-1-1.1-1-1.9
		c0-1.4,0-2.7,0-4.1c0-1.7,0.7-3,2.1-3.9c1.3-0.9,2.9-0.8,4.3-0.6c2.3,0.3,3.8,2.2,3.8,4.6c0,0.6,0,1.3,0,1.9c0,0.3,0.1,0.4,0.4,0.4
		c1.9,0,3.8,0,5.8,0c0.2,0,0.3-0.1,0.2-0.3c0-0.1,0-0.2,0-0.3c-0.2-1.6-0.4-3.2-0.7-4.8c-0.3-2.1-0.6-4.3-0.9-6.4
		c-0.1-0.5,0.1-0.9,0.5-1c0.4-0.1,0.7,0.2,0.8,0.7c0.2,1.2,0.3,2.4,0.5,3.6c0.2,1.6,0.4,3.2,0.7,4.8c0,0.1,0,0.2,0.1,0.3
		c0.1,0,0.2-0.1,0.3-0.2c0.3-0.4,0.5-0.8,0.5-1.3c0-0.4-0.1-0.9-0.2-1.3c-0.3-1.8-0.6-3.7-0.8-5.5c-0.3-2.4-2.1-4.1-4.5-4.1
		c-0.8,0-1.6,0-2.4,0c-1.6,0-2.8,0.7-3.7,2c-0.2,0.2-0.2,0.4,0.1,0.6c1.1,0.8,1.6,1.9,1.4,3.3c-0.2,1.5-1.6,2.8-3,3
		c-2,0.2-3.3-1-3.8-2.5c-0.4-1.5,0-2.7,1.2-3.7c0.1-0.1,0.2-0.2,0.1-0.4c-0.7-1.5-1.9-2.2-3.5-2.3c-1.3,0-2.6,0-3.9,0
		c-1.3,0-2.3,0.6-3.1,1.7c-0.8,1.2-1.1,2.4-1.1,3.8c0,1.2,0,2.3,0,3.5c0,0.9,0,1.9,0,2.8c0,0.3,0.1,0.6,0.4,0.8
		c0.6,0.4,1.4,0,1.4-0.8C8.2,20.2,8.2,19,8.2,17.7 M35,20c0,0.7,0.1,1.3-0.3,2c-0.3,0.6-0.8,1.1-1.4,1.4c-0.2,0.1-0.3,0.2-0.3,0.5
		c0.1,0.4,0.1,0.9,0.2,1.3c0.1,1-0.5,1.6-1.4,1.6c-0.4,0-0.8,0-1.2,0c-0.2,0-0.3,0.1-0.3,0.3c-0.2,1.6-0.4,3.2-0.5,4.9
		c-0.1,1.1-0.2,2.2-0.4,3.4c-0.2,1.4-1.8,2.2-3,1.4c-0.2-0.2-0.4-0.1-0.6,0c-0.7,0.4-1.5,0.5-2.2,0c-0.2-0.1-0.3-0.1-0.5,0
		c-0.9,0.5-1.7,0.5-2.5-0.1c-0.2-0.1-0.3-0.1-0.5,0c-0.9,0.6-1.9,0.6-2.8-0.1c-0.2-0.1-0.3-0.2-0.5-0.1c-1.5,1.1-3.1,0.7-4-0.9
		c0,0-0.1-0.1-0.1-0.2c-0.2,0.4-0.4,0.8-0.8,1c-0.8,0.7-1.8,0.8-2.7,0.4c-1-0.4-1.5-1.2-1.5-2.3c0-0.8,0-1.5,0.1-2.3
		c0.1-0.8,0.1-1.5,0.1-2.3C8,28.4,8,26.8,8.1,25.3c0-0.5,0-0.9,0.1-1.4c0-0.2-0.1-0.3-0.3-0.3C6.2,24,5,22.6,5,21.3
		c0-2.1,0-4.2,0-6.3c0-1.6,0.4-3.2,1.4-4.5c1-1.4,2.4-2.2,4.2-2.2c1.3,0,2.6,0,3.9,0c2,0,3.5,1,4.5,2.7c0.1,0.2,0.2,0.5,0.3,0.5
		c0.3,0.1,0.7,0,1,0c0.1,0,0.2-0.1,0.2-0.2c1.2-2,2.9-3,5.2-3c0.8,0,1.7,0,2.5,0c2.7,0,5.1,2,5.6,4.7c0.3,1.7,0.5,3.5,0.8,5.2
		C34.8,18.8,34.9,19.4,35,20C35,20,35,20,35,20"/>
	<path clip-path="url(#SVGID_2_)" fill="#B11F2C" d="M12.7,6.3c1.4,0,2.5-1.1,2.5-2.5c0-1.4-1.1-2.5-2.5-2.5c-1.4,0-2.5,1.1-2.5,2.4
		C10.2,5.2,11.3,6.3,12.7,6.3 M8.9,3.9c0-2.1,1.7-3.9,3.9-3.8c2.1,0,3.8,1.6,3.8,3.9c0,2.2-1.8,3.8-3.9,3.9C10.6,7.7,8.9,6,8.9,3.9"
		/>
	<path clip-path="url(#SVGID_2_)" fill="#B11F2C" d="M26.7,6.3c1.4,0,2.5-1.1,2.5-2.5c0-1.4-1.1-2.5-2.5-2.5c-1.4,0-2.5,1.1-2.5,2.5
		C24.2,5.3,25.3,6.3,26.7,6.3 M22.9,3.9c0-2.1,1.7-3.9,3.8-3.9c2.1,0,3.8,1.7,3.8,3.8c0,2.1-1.7,3.9-3.8,3.9
		C24.6,7.7,22.9,6,22.9,3.9"/>
	<path clip-path="url(#SVGID_2_)" fill="#B11F2C" d="M0,19.1c0-0.2,0-0.5,0-0.7c0-0.3,0.3-0.6,0.6-0.6c0.3,0,0.7,0.2,0.7,0.6
		c0,0.5,0,1,0,1.5c0,0.3-0.3,0.6-0.7,0.6c-0.3,0-0.6-0.3-0.6-0.6C0,19.6,0,19.3,0,19.1C0,19.1,0,19.1,0,19.1"/>
	<path clip-path="url(#SVGID_2_)" fill="#B11F2C" d="M39.4,19.1c0,0.2,0,0.4,0,0.6c0,0.4-0.3,0.6-0.6,0.7c-0.4,0-0.7-0.2-0.7-0.6
		c0-0.5,0-1,0-1.5c0-0.4,0.4-0.6,0.7-0.6c0.3,0,0.6,0.3,0.6,0.7C39.4,18.7,39.4,18.9,39.4,19.1L39.4,19.1z"/>
	<path clip-path="url(#SVGID_2_)" fill="#B11F2C" d="M4.5,19.1c0,0.2,0,0.4,0,0.6c0,0.4-0.3,0.6-0.6,0.7c-0.3,0-0.7-0.2-0.7-0.6
		c0-0.5,0-1,0-1.5c0-0.3,0.4-0.6,0.7-0.6c0.3,0,0.6,0.3,0.6,0.7C4.5,18.7,4.5,18.9,4.5,19.1L4.5,19.1z"/>
	<path clip-path="url(#SVGID_2_)" fill="#B11F2C" d="M35,20c0-0.5,0-1,0-1.4c0-0.4,0.3-0.7,0.7-0.7c0.4,0,0.6,0.3,0.6,0.7
		c0,0.4,0,0.7,0,1.1c0,0.4-0.1,0.7-0.5,0.8C35.4,20.5,35.2,20.3,35,20C35,20,35,20,35,20"/>
</g>
</svg>
