<?xml version="1.0" encoding="utf-8"?>
<!-- Generator: Adobe Illustrator 22.1.0, SVG Export Plug-In . SVG Version: 6.00 Build 0)  -->
<svg version="1.1" id="Слой_1" xmlns="http://www.w3.org/2000/svg" xmlns:xlink="http://www.w3.org/1999/xlink" x="0px" y="0px"
	 viewBox="0 0 75.9 75.9" enable-background="new 0 0 75.9 75.9" xml:space="preserve">
<path d="M38,0c5.5,0,11,0,16.5,0c12.4,0,21.4,8.9,21.4,21.3c0.1,11.1,0.1,22.2,0,33.3c0,10.4-6.5,18.6-16.2,20.7
	c-1.7,0.4-3.5,0.6-5.2,0.6c-11,0-22,0-33,0C9,75.9,0.1,67,0,54.6C0,43.5,0,32.4,0,21.3c0-10.4,6.5-18.6,16.2-20.7
	C18,0.2,19.7,0,21.5,0C27,0,32.5,0,38,0z M71.7,38c0-5.8,0-11.6,0-17.3c-0.1-9.3-7.1-16.4-16.3-16.5c-11.6-0.1-23.2-0.1-34.8,0
	c-9.3,0-16.4,7.2-16.4,16.4c0,11.6,0,23.1,0,34.7c0,9.4,7.1,16.4,16.5,16.5c11.5,0,23,0,34.5,0c9.5,0,16.5-7.1,16.6-16.6
	C71.8,49.4,71.7,43.7,71.7,38z"/>
<g>
	<path d="M52.1,62.1c0,3.4,0,6.8,0,10.3c0,2.1-1.2,3.5-3.4,3.5c-3.2,0.1-6.5,0.1-9.7,0c-2.2,0-3.4-1.4-3.4-3.8
		c0-6.7,0-13.4,0-20.1c0-1.9,0-1.9-1.9-1.9c-1.1,0-2.3,0-3.4,0c-2.2,0-3.6-1.2-3.6-3.4c-0.1-3.1-0.1-6.2,0-9.3
		c0.1-2.2,1.4-3.4,3.6-3.5c1.3,0,2.5-0.1,3.8,0c1.1,0.1,1.6-0.3,1.6-1.5c-0.1-2.6-0.1-5.1,0.5-7.7c1.6-7.3,7.4-11.9,14.8-11.9
		c2.9,0,5.7,0,8.6,0c2,0,3.2,1.1,3.3,3.1c0.1,3,0.1,5.9,0,8.9c0,2-1.4,3.3-3.4,3.4c-1.8,0.1-3.7,0.1-5.5,0c-1,0-1.5,0.4-1.7,1.4
		c-0.7,3.9-0.4,4.3,3.5,4.3c1,0,2.1,0,3.1,0c2.2,0.1,3.5,1.2,3.6,3.3c0.1,3.2,0.1,6.4,0,9.6C62.4,48.8,61,50,58.8,50
		c-1.8,0-3.6,0.1-5.3,0c-1.1,0-1.4,0.4-1.4,1.4C52.2,54.9,52.1,58.5,52.1,62.1z M39.7,59.5c0,3.6,0,7.1,0,10.7
		c0,1.3,0.4,1.7,1.6,1.6c1.6-0.1,3.2,0,4.8,0c2,0,2,0,2-2c0-6.7,0-13.5,0-20.2c0-2.8,0.8-3.5,3.6-3.6c1.8,0,3.6,0,5.3,0
		c0.9,0,1.4-0.3,1.3-1.3c-0.1-1.8-0.1-3.7,0-5.5c0-1-0.4-1.3-1.3-1.3c-2,0-4,0-6,0c-1.9,0-2.7-0.7-2.9-2.7c-0.2-2.3-0.1-4.6,0.2-6.9
		c0.3-2.2,1.7-3.6,3.9-4.1c1.7-0.4,3.5-0.3,5.2-0.3c0.9,0,1.4-0.3,1.4-1.3c0-1.6,0-3.3,0-4.9c0-0.9-0.3-1.3-1.2-1.2
		c-2,0-3.9,0-5.9,0c-6.9,0.1-11.7,4.9-11.9,11.8c0,2.2,0,4.5,0,6.7c0,2-0.9,2.8-2.9,2.8c-1.6,0-3.3,0-4.9,0c-0.8,0-1.2,0.3-1.2,1.2
		c0,1.9,0,3.7,0,5.6c0,1,0.4,1.3,1.4,1.3c1.5,0,3,0,4.5,0c2.3,0.1,3.1,0.9,3.1,3.2C39.7,52.6,39.7,56.1,39.7,59.5z"/>
</g>
</svg>
