<?xml version="1.0" encoding="utf-8"?>
<!-- Generator: Adobe Illustrator 22.1.0, SVG Export Plug-In . SVG Version: 6.00 Build 0)  -->
<svg version="1.1" id="Слой_1" xmlns="http://www.w3.org/2000/svg" xmlns:xlink="http://www.w3.org/1999/xlink" x="0px" y="0px"
	 viewBox="0 0 63.2 58.6" enable-background="new 0 0 63.2 58.6" xml:space="preserve">
<g>
	<path d="M32.1,29.5c-0.9,0-1.9,0-2.8,0c-0.2,0-0.3,0.1-0.4,0.2
		c-2.5,2.6-5.1,5.1-7.6,7.8c-1.3,1.4-1.3,2.5-0.4,4.2c0.3,0.5,0.6,1,1.1,1.4c3.2,3.2,6.3,6.3,9.5,9.5c0.1,0.1,0.3,0.3,0.4,0.4
		c1.5,1.3,3,1.4,4.8,0.4c0.6-0.3,1.2-0.8,1.7-1.3C44.4,46,50.5,40,56.6,33.9c0.4-0.4,0.4-0.4,0.9,0c0.8,0.8,1.7,1.7,2.5,2.5
		c0.2,0.2,0.2,0.4,0,0.6c-6.3,6.2-12.5,12.5-18.7,18.7c-1.9,1.9-4.1,2.9-6.8,2.9c-2.2,0-4.1-0.8-5.6-2.2c-2.2-2-4.3-4.2-6.4-6.3
		c-1.4-1.4-2.8-2.8-4.1-4.2c-1.4-1.6-2.3-3.4-2.4-5.6c-0.1-2,0.5-3.8,1.7-5.4c1-1.3,2.2-2.4,3.4-3.6c1.8-1.9,3.6-3.7,5.4-5.5
		c0.6-0.6,1.2-0.9,2-0.9c2.6,0,5.3,0,7.9,0c0.5,0,0.8-0.2,1.2-0.5c2.7-2.8,5.5-5.5,8.3-8.3c0.3-0.3,0.5-0.3,0.8,0
		c0.8,0.9,1.7,1.7,2.5,2.6c0.3,0.3,0.3,0.4,0,0.7c-4.6,4.6-9.3,9.3-13.9,13.9c-1.1,1.1-2.2,2.1-3.2,3.2c-0.3,0.3-0.5,0.3-0.7,0
		c-0.8-0.9-1.7-1.7-2.6-2.6c-0.3-0.3-0.2-0.4,0-0.7c1-1,2-2,3-3c0.2-0.2,0.4-0.4,0.6-0.6C32.2,29.6,32.2,29.5,32.1,29.5"/>
	<path d="M60.9,18.1c-0.6,0-1.2,0-1.8,0c-0.4,0-0.5-0.1-0.5-0.5c0-1.5-0.1-2.9-0.5-4.3
		c-1.3-3.8-3.7-6.5-7.4-7.9c-1.4-0.6-2.9-0.8-4.3-0.8c-1.9,0-3.7,0.5-5.4,1.3c-2.7,1.2-5,2.9-7.1,4.9c-0.7,0.6-1.2,1.3-1.8,2
		c-0.2,0.3-0.4,0.2-0.6,0c-1.5-1.8-3.2-3.4-5.1-4.7c-2.2-1.5-4.5-2.8-7.2-3.2C15.3,4.2,12,5.1,9,7.5C6.7,9.5,5.4,12,4.8,14.9
		c-0.5,2.7,0.3,5,1.7,7.2c1.1,1.7,2.5,3.1,3.9,4.5c1.5,1.5,3,3,4.5,4.5c0.3,0.3,0.3,0.4,0,0.7c-0.9,0.9-1.8,1.7-2.6,2.6
		c-0.2,0.3-0.4,0.2-0.6,0c-2.1-2.1-4.2-4.1-6.2-6.3c-1.9-2-3.5-4.3-4.5-6.9c-1.1-2.9-1-5.8-0.2-8.8C1.9,8,4.6,4.6,8.6,2.3
		c2.2-1.3,4.7-2.1,7.3-2.2c5.2-0.3,9.7,1.4,13.7,4.6c0.6,0.5,1.2,1,1.7,1.5c0.3,0.3,0.4,0.3,0.7,0c1.9-1.9,4-3.4,6.5-4.5
		c2.1-0.9,4.3-1.5,6.7-1.6c5.3-0.3,9.8,1.5,13.5,5.4c2.6,2.7,4,6,4.5,9.7c0.1,0.8,0.1,1.7,0.1,2.5c0,0.3-0.1,0.5-0.5,0.5
		C62.1,18.1,61.5,18.1,60.9,18.1L60.9,18.1z"/>
	<path d="M39.4,38.3c-0.1-0.1-0.2-0.1-0.3-0.2c-0.9-0.9-1.8-1.8-2.7-2.7
		c-0.2-0.2-0.2-0.3,0-0.6c5.4-5.4,10.8-10.8,16.3-16.2c0.3-0.3,0.5-0.4,0.8,0c0.8,0.9,1.7,1.7,2.5,2.6c0.2,0.2,0.2,0.4,0,0.6
		C50.6,27.2,45.2,32.6,39.8,38C39.7,38.1,39.6,38.3,39.4,38.3"/>
	<path d="M58.8,28.5c0,0.2-0.2,0.3-0.3,0.4c-2.7,2.7-5.4,5.4-8.1,8.1
		c-1.9,1.9-3.9,3.9-5.8,5.8c-0.3,0.3-0.5,0.3-0.8,0c-0.8-0.8-1.6-1.7-2.5-2.5c-0.3-0.3-0.3-0.5,0-0.8c3-3,6-5.9,8.9-8.9
		c1.7-1.7,3.3-3.3,5-5c0.3-0.3,0.5-0.3,0.7,0c0.8,0.9,1.7,1.7,2.5,2.6C58.6,28.3,58.8,28.4,58.8,28.5"/>
</g>
</svg>