<?xml version="1.0" encoding="utf-8"?>
<!-- Generator: Adobe Illustrator 22.1.0, SVG Export Plug-In . SVG Version: 6.00 Build 0)  -->
<svg version="1.1" id="Слой_1" xmlns="http://www.w3.org/2000/svg" xmlns:xlink="http://www.w3.org/1999/xlink" x="0px" y="0px"
	 viewBox="0 0 75.9 75.9" enable-background="new 0 0 75.9 75.9" xml:space="preserve">
<path d="M38,0c5.5,0,11,0,16.5,0c12.4,0,21.4,8.9,21.4,21.3c0.1,11.1,0.1,22.2,0,33.3c0,10.4-6.5,18.6-16.2,20.7
	c-1.7,0.4-3.5,0.6-5.2,0.6c-11,0-22,0-33,0C9,75.9,0.1,67,0,54.6C0,43.5,0,32.4,0,21.3c0-10.4,6.5-18.6,16.2-20.7
	C18,0.2,19.7,0,21.5,0C27,0,32.5,0,38,0z M71.7,38c0-5.8,0-11.6,0-17.3c-0.1-9.3-7.1-16.4-16.3-16.5c-11.6-0.1-23.2-0.1-34.8,0
	c-9.3,0-16.4,7.2-16.4,16.4c0,11.6,0,23.1,0,34.7c0,9.4,7.1,16.4,16.5,16.5c11.5,0,23,0,34.5,0c9.5,0,16.5-7.1,16.6-16.6
	C71.8,49.4,71.7,43.7,71.7,38z"/>
<path d="M58.6,38c0,11.3-9.3,20.6-20.6,20.6c-11.3,0-20.7-9.4-20.6-20.7c0-11.2,9.4-20.5,20.7-20.5
	C49.3,17.4,58.6,26.7,58.6,38z M54.4,37.9c0-9.3-7.2-16.5-16.5-16.4c-9.2,0-16.4,7.2-16.4,16.4c0,9.3,7.2,16.5,16.4,16.5
	C47.2,54.4,54.4,47.2,54.4,37.9z"/>
<path d="M59.3,13.4c1.3,0,2.4,1.1,2.4,2.4c0,1.3-1.1,2.4-2.4,2.4s-2.4-1.1-2.4-2.4C56.9,14.5,58,13.4,59.3,13.4
	 M59.3,9.9c-3.3,0-5.9,2.7-5.9,5.9c0,3.3,2.7,5.9,5.9,5.9c3.3,0,5.9-2.7,5.9-5.9C65.3,12.6,62.6,9.9,59.3,9.9L59.3,9.9z"/>
</svg>
