<?xml version="1.0" encoding="utf-8"?>
<svg version="1.1" id="Слой_1" xmlns="http://www.w3.org/2000/svg" xmlns:xlink="http://www.w3.org/1999/xlink" x="0px" y="0px"
	 viewBox="0 0 323 435.1" style="enable-background:new 0 0 323 435.1;" xml:space="preserve">
<path fill="#b0252d" d="M160.5,0.1C240-0.7,309.9,58,321.6,138.9c3.7,25.3-0.4,49.3-9.7,72.9c-15.5,39.5-37.3,75.4-60.6,110.7
	c-23.9,36.2-50.1,70.6-77.3,104.4c-0.9,1.2-1.9,2.3-2.9,3.4c-6.1,6.7-13.9,6.4-19.7-0.6C123.9,396.4,98,361.9,74,326
	c-23.2-34.6-45-70.1-60.8-108.8c-7.9-19.5-14-39.5-13.2-61C1.5,119,13.9,86,37.8,57.7C63.9,26.7,97.3,8,137.4,1.6
	c1.2-0.2,2.3-0.3,3.5-0.5C147.8,0.1,154.8-0.1,160.5,0.1z M160.9,23.7c-5.9-0.4-12.7,0.4-19.4,1.4c-31.9,4.9-59.6,18.7-80.9,43
	c-35,39.9-47.1,84.9-27.2,136.1c9.6,24.6,22.1,47.8,35.8,70.2c26.8,43.6,56.6,85.2,88.7,125c3.7,4.6,3.7,4.6,7.4-0.1
	c24.6-31.1,48.2-63,70-96.1c19.4-29.4,37.6-59.4,51.4-91.9c9.4-22.1,14.8-44.7,11.4-69.1C288.7,75,230.1,23.8,160.9,23.7z"/>
<path fill="#b0252d" d="M230.9,148.5c0,37.7-29.9,68.1-67.2,68.1c-37.2,0-67.5-30.5-67.5-67.9c0-36.9,30.5-67.3,67.6-67.4
	C200.5,81.2,230.8,111.7,230.9,148.5z M163.2,192.4c24.3,0.2,43.9-19,44-43c0.1-24.2-18.9-43.6-43.2-43.8
	c-24.3-0.2-44.4,19.2-44,43.5C120.4,176.5,142.8,193,163.2,192.4z"/>
</svg>
