<?xml version="1.0" encoding="utf-8"?>
<!-- Generator: Adobe Illustrator 22.1.0, SVG Export Plug-In . SVG Version: 6.00 Build 0)  -->
<svg version="1.1" id="Слой_1" xmlns="http://www.w3.org/2000/svg" xmlns:xlink="http://www.w3.org/1999/xlink" x="0px" y="0px"
	 viewBox="0 0 225.2 172.2" style="enable-background:new 0 0 225.2 172.2;" xml:space="preserve">
<g>
	<path fill="#b0252d" d="M112.7,172.1c-26.3,0-52.6,0-79,0c-4.2,0-8.4-0.3-12.4-1.2c-12.6-3-21.1-13.7-21.1-26.9
		C0.2,106.7,0.8,69.4,0,32.1C-0.4,14.3,10.5-0.1,32.3,0c22.5,0.1,45,0,67.5,0c30.8,0,61.6,0,92.5,0C200,0.1,207.6,1,214,6
		c7.2,5.7,11,13,11,22.4c-0.1,37.1-0.6,74.3,0.2,111.4c0.4,18.3-10.8,32.6-32.5,32.4C166,171.9,139.4,172.1,112.7,172.1z M112.3,158
		c27.5,0,55,0,82.5,0c11.4,0,16.5-5.2,16.5-16.4c0-36.7,0-73.3,0-110c0-12.3-5-17.4-17.2-17.4c-54.3,0-108.6,0-163,0
		c-12.3,0-17.3,5-17.3,17.2c0,36.3,0,72.7,0,109c0,12.6,4.9,17.6,17.5,17.6C58.4,158,85.3,158,112.3,158z"/>
	<path fill="#b0252d" d="M199,32.3c0,2.3-2.6,4.4-5.1,6.7c-16,14.4-31.9,28.8-48,43.1c-2.3,2-2.7,3.2-0.3,5.4
		c15.1,14.1,30.1,28.4,45,42.6c2.3,2.2,4.6,4.4,6.6,6.8c2.6,3.1,2.9,6.5-0.1,9.4c-3,2.8-6.4,2.8-9.4,0c-7.6-7-15.2-14-22.7-21.1
		c-9.8-9.3-19.6-18.6-29.2-28c-2.4-2.4-4.1-2.6-6.5-0.1c-3.1,3.2-6.6,6.1-10,9.1c-4.7,4.2-7.5,4.4-12.3,0.5c-3.6-2.9-7.2-6-10.5-9.2
		c-2.5-2.5-4.1-2.1-6.5,0.2c-16.4,15.6-33,31-49.6,46.5c-1,0.9-1.9,1.9-3,2.6c-3.1,2.1-6.4,2.3-9-0.6c-2.8-3-2.8-6.5,0.1-9.4
		c4.2-4.3,8.5-8.4,12.9-12.5c12.5-11.7,25-23.5,37.7-35c3.4-3.1,3.1-4.9-0.2-7.8C62.9,67.1,47,52.8,31.1,38.6c-1-0.9-2-1.8-2.9-2.8
		c-2.5-3-3.3-6.3-0.4-9.5c2.8-3.1,6.3-3,9.4-0.4c7.2,6.1,14.4,12.4,21.5,18.7c17,15.2,34,30.4,50.9,45.8c2.1,1.9,3.5,2.2,5.8,0.2
		c22.3-20.1,44.6-40.1,67-60.1c2.2-2,4.5-4.1,7.1-5.5C194,22.6,199,25.8,199,32.3z"/>
</g>
</svg>
