<svg width="120" height="100" viewBox="0 0 120 100" fill="none" xmlns="http://www.w3.org/2000/svg">
    <path d="M20.2713 90.3467C20.2713 88.416 19.0261 87.0547 17.269 87.0547C15.512 87.0547 14.1751 88.416 14.1751 90.3467C14.1751 92.2973 15.512 93.6386 17.269 93.6386C19.0078 93.6386 20.2713 92.2973 20.2713 90.3467ZM22.3584 90.3467C22.3584 93.4376 20.3997 95.623 17.7076 95.623C16.1338 95.623 14.9253 94.8526 14.1934 93.7123V100H12.1247V85.2913H14.1934V87.0194C14.9253 85.8607 16.1338 85.0703 17.7259 85.0703C20.363 85.0703 22.3584 87.2573 22.3584 90.3467Z" fill="#6496DC"/>
    <path d="M31.8394 90.3467C31.8394 88.416 30.5025 87.0547 28.747 87.0547C26.9884 87.0547 25.7447 88.416 25.7447 90.3467C25.7447 92.2973 27.0067 93.6386 28.747 93.6386C30.5025 93.6386 31.8394 92.2973 31.8394 90.3467ZM33.8898 85.2913V95.4036H31.8211V93.7123C31.0892 94.8695 29.8807 95.623 28.3069 95.623C25.6163 95.623 23.6576 93.4376 23.6576 90.3467C23.6576 87.2573 25.653 85.0703 28.2886 85.0703C29.8807 85.0703 31.0892 85.8607 31.8211 87.0194V85.2913H33.8898Z" fill="#6496DC"/>
    <path d="M45.2756 85.291L38.6125 99.9997H36.3971L39.051 94.1156L35.0801 85.291H37.294L40.1496 91.8734L43.0602 85.291H45.2756Z" fill="#6496DC"/>
    <path d="M61.5855 88.9123V95.4026H59.5167V89.3543C59.5167 87.8472 58.9132 87.0553 57.5213 87.0553C55.8926 87.0553 55.0507 88.3245 55.0507 90.1631L55.0691 95.4026H52.982V89.3543C52.982 87.8472 52.3785 87.0553 50.9866 87.0553C49.3578 87.0553 48.5343 88.3245 48.5343 90.1631V95.4026H46.4655V85.2919H48.5343V86.9079C49.2295 85.7492 50.218 85.0693 51.6634 85.0693C53.202 85.0693 54.2822 85.8229 54.7757 87.1842C55.4526 85.8781 56.5878 85.0693 58.1798 85.0693C60.3036 85.0693 61.5855 86.5043 61.5855 88.9123Z" fill="#6496DC"/>
    <path d="M65.3374 89.2253H71.1953C70.8836 87.8472 69.84 86.8726 68.3213 86.8726C66.7476 86.8726 65.6857 87.8641 65.3374 89.2253ZM73.4107 90.9181H65.2273C65.3924 92.7752 66.6926 93.8034 68.3763 93.8034C69.5849 93.8034 70.5902 93.2877 71.0669 92.2963H73.209C72.4221 94.5585 70.4985 95.6236 68.358 95.6236C65.3007 95.6236 63.1219 93.4167 63.1219 90.3656C63.1219 87.3131 65.2823 85.0693 68.3213 85.0693C71.5619 85.0693 73.6124 87.5893 73.4107 90.9181Z" fill="#6496DC"/>
    <path d="M84.0263 89.0237V95.4036H81.9575V89.4458C81.9575 87.8834 81.2807 87.0562 79.7604 87.0562C77.985 87.0562 77.0332 88.2149 77.0332 90.164V95.4036H74.9659V85.2913H77.0332V86.9641C77.7482 85.7886 78.8284 85.0703 80.4022 85.0703C82.6726 85.0703 84.0263 86.5605 84.0263 89.0237Z" fill="#6496DC"/>
    <path d="M93.3988 94.8888C92.8503 95.2188 91.6784 95.6239 90.5248 95.6239C88.4561 95.6239 86.8457 94.3179 86.8457 91.5247V87.2398H84.9786V85.2907H86.8457V82.9917L88.9129 82.5312V85.2907H93.0504V87.2398H88.9129V91.4127C88.9129 92.8829 89.5913 93.6932 90.8915 93.6932C91.5317 93.6932 92.2452 93.4722 93.0321 93.196L93.3988 94.8888Z" fill="#6496DC"/>
    <path d="M94.1128 92.15H96.2182C96.5299 93.2703 97.3534 93.786 99.0921 93.786C100.427 93.786 101.251 93.3823 101.251 92.6288C101.251 91.7816 100.299 91.6527 98.6154 91.2491C95.7965 90.5493 94.6063 89.9799 94.6063 88.2871C94.6063 86.2459 96.3282 85.0703 98.8538 85.0703C101.434 85.0703 102.881 86.3012 103.248 88.1413H101.159C100.868 87.3141 100.097 86.9089 98.8171 86.9089C97.4817 86.9089 96.6934 87.3693 96.6934 88.0676C96.6934 88.7107 97.3167 88.8764 99.0738 89.3C101.801 89.943 103.375 90.4203 103.375 92.3878C103.375 94.5579 101.434 95.6246 99.0555 95.6246C96.4015 95.6246 94.4963 94.3385 94.1128 92.15Z" fill="#6496DC"/>
    <path d="M5.73109 50.3525C7.6272 40.5825 16.162 33.3156 26.3774 33.3156C30.6769 33.3156 34.8159 34.6432 38.2765 37.025L42.3224 32.9611C39.1505 30.59 35.4805 28.9432 31.5798 28.1621C32.7609 15.473 43.3873 5.67385 56.1956 5.67385C61.2544 5.67385 66.1161 7.19782 70.2582 10.08C73.8533 12.5816 76.6921 15.9472 78.5455 19.8807C73.6196 21.1806 69.0481 23.6085 65.2009 26.9711L69.207 30.9951C74.1146 26.8268 80.385 24.4572 86.9458 24.4572C101.523 24.4572 113.477 35.7988 114.342 50.3525H120C119.58 41.8548 115.979 33.931 109.847 28.027C103.656 22.0662 95.5233 18.7849 86.9458 18.7849C86.0535 18.7849 85.1658 18.8233 84.2842 18.8954C82.0504 13.4441 78.3224 8.78932 73.4744 5.41602C68.3835 1.87235 62.4095 0 56.1956 0C40.4553 0 27.398 12.0491 25.9557 27.6479C12.8083 27.852 1.94194 37.5438 0 50.3525H5.73109Z" fill="#6496DC"/>
    <path d="M11.2578 66.0115C11.2578 60.2947 15.4824 55.9453 21.2791 55.9453C25.9575 55.9453 30.1134 58.7861 30.8468 63.6956H25.7131C25.1202 61.5915 23.3036 60.5756 21.2791 60.5756C18.2417 60.5756 16.286 62.8193 16.3196 66.0115C16.286 69.239 18.312 71.4475 21.244 71.4475C23.3036 71.4475 25.1202 70.3947 25.7131 68.2906H30.8468C30.0782 73.3766 25.8536 76.0777 21.244 76.0777C15.4824 76.0777 11.2578 71.7283 11.2578 66.0115Z" fill="#393962"/>
    <path d="M33.1841 75.6568H38.1772V50.377H33.1841V75.6568Z" fill="#393962"/>
    <path d="M45.8599 66.0115C45.8599 69.2022 48.0249 71.3078 50.8179 71.3078C53.6109 71.3078 55.7759 69.2022 55.7759 66.0115C55.7759 62.8546 53.6109 60.7152 50.8179 60.7152C48.0249 60.7152 45.8599 62.8546 45.8599 66.0115ZM60.8393 66.0115C60.8393 71.8342 56.439 76.0777 50.8179 76.0777C45.2304 76.0777 40.8316 71.7989 40.8316 66.0115C40.8316 60.1888 45.3007 55.9453 50.8179 55.9453C56.3687 55.9453 60.8393 60.1888 60.8393 66.0115Z" fill="#393962"/>
    <path d="M81.0541 56.3672V75.6555H76.061V72.9912C74.6645 74.9541 72.7791 76.0776 70.1251 76.0776C65.9005 76.0776 63.2817 73.1662 63.2817 68.4669V56.3672H68.2749V67.3803C68.2749 69.9049 69.2176 71.3077 71.8012 71.3077C74.5606 71.3077 76.061 69.6594 76.061 66.5025V56.3672H81.0541Z" fill="#393962"/>
    <path d="M98.7562 66.0117C98.7562 62.8548 96.6263 60.7154 93.8333 60.7154C91.0403 60.7154 88.9792 62.8548 88.9792 66.0117C88.9792 69.2023 91.0755 71.308 93.8333 71.308C96.6263 71.308 98.7562 69.2023 98.7562 66.0117ZM103.749 50.376V75.6558H98.7562V73.0622C97.43 74.8839 95.404 76.0779 92.7149 76.0779C87.7218 76.0779 83.951 71.9387 83.951 66.0117C83.951 60.0493 87.7569 55.9455 92.6798 55.9455C95.404 55.9455 97.43 57.2085 98.7562 59.0671V50.376H103.749Z" fill="#393962"/>
</svg>
