<?xml version="1.0" encoding="utf-8"?>
<svg version="1.1" id="Слой_1" xmlns="http://www.w3.org/2000/svg" xmlns:xlink="http://www.w3.org/1999/xlink" x="0px" y="0px"
	 viewBox="0 0 224.7 224.8" style="enable-background:new 0 0 224.7 224.8;" xml:space="preserve">
<g>
	<path fill="#b0252d" d="M162.4,224.8c-13.9,0-25.5-3.4-36.5-8.3c-55.5-24.8-95.7-64.8-119-121.2C1.5,82.1-1.8,68.3,1,53.8
		c1-5.4,3.2-10.3,6.8-14.3c6.5-7.3,13.2-14.6,20.7-21c9.4-8,21.4-7.8,30.4,0.7c9.6,9,18.9,18.3,27.9,28c9.1,9.8,8.8,22.1-0.4,31.8
		c-3.8,4-7.6,8-11.6,11.7c-2.8,2.5-2.9,4.6-1.2,7.8c8,14.5,19.3,26.2,31.4,37.2c6.7,6,13.9,11.3,21.8,15.7c2.6,1.4,4.3,1.3,6.5-1
		c4.5-4.7,9.1-9.3,13.9-13.6c9-7.8,20.1-7.8,28.9,0.4c10.1,9.4,20.1,19,29.3,29.3c7.6,8.6,8.1,19.8,0.9,28.8
		c-6.5,8.1-13.9,15.3-21.7,22C177.7,223,169.5,225.2,162.4,224.8z M14.5,64.6C14,73.8,16.8,82,19.9,90.1
		c12.1,31.3,31.9,57.3,56.8,79.3c20.8,18.3,44.2,32.7,71.4,39.8c11.1,2.9,22.1,3.8,31.2-5.7c4.8-5.1,9.8-10,14.6-15.1
		c4.7-5,4.7-9.1-0.1-14c-8.3-8.5-16.6-16.8-25.1-25.1c-5.5-5.4-9-5.3-14.6,0c-5.2,5-10.2,10.1-15.3,15.1c-3.9,3.8-8.5,4.5-13.3,2
		c-28.9-15.1-51.1-36.9-66.4-65.7c-4.3-8-3.1-11.8,3.6-18c4.6-4.3,9.2-8.7,13.6-13.3c4.1-4.3,4.4-8.3,0.6-12.4
		C67.9,48,59.1,38.9,50,30.1c-5-4.8-8.7-4.5-13.9,0.4c-4.5,4.3-8.6,8.8-13.1,13C16.6,49.3,13.4,56.2,14.5,64.6z"/>
	<path fill="#b0252d" d="M224.7,99.2c0,4-1.6,6.8-5.4,7.5c-4.2,0.7-7.2-1.3-8.2-5.5c-2.1-9.3-4.5-18.4-8.7-27
		c-15.5-31.5-40.3-51.4-74.5-59.6c-1.3-0.3-2.6-0.5-3.9-0.9c-4.8-1.4-6.9-4.2-6.2-8.2c0.8-4.1,4.2-6.3,9.2-5.2
		c5.7,1.2,11.5,2.3,16.9,4.4c43.4,16,70.3,46.6,80.3,91.8C224.5,97.4,224.6,98.4,224.7,99.2z"/>
	<path fill="#b0252d" d="M184.3,101.9c-0.4,3.6-2,6.2-5.7,6.7c-3.7,0.6-6.5-0.9-7.8-4.6c-1.5-4.4-2.3-9-4.2-13.3
		c-8.1-18.3-21.6-30.3-41.1-35.4c-7.9-2.1-10.5-4.6-9.3-9.7c1.1-4.7,5-6.1,12.9-3.9c28.6,7.9,46.6,26.3,54.3,54.9
		C183.8,98.4,184,100.2,184.3,101.9z"/>
</g>
</svg>
