<?xml version="1.0" encoding="utf-8"?>
<!-- Generator: Adobe Illustrator 22.1.0, SVG Export Plug-In . SVG Version: 6.00 Build 0)  -->
<svg version="1.1" id="Слой_1" xmlns="http://www.w3.org/2000/svg" xmlns:xlink="http://www.w3.org/1999/xlink" x="0px" y="0px"
	 viewBox="0 0 15.4 31" style="enable-background:new 0 0 15.4 31;" xml:space="preserve">
<style type="text/css">
	.st0{fill:#FFFFFF;}
	.st1{fill:none;stroke:#C9C8C8;stroke-width:0.75;stroke-miterlimit:10;}
	.st2{fill:#C9C8C8;}
</style>
<g>
	<g>
		<path class="st0" d="M8.5,27.5H6.8c-1.8,0-3.3-1.5-3.3-3.3V6.8C3.5,5,5,3.5,6.8,3.5h1.6c1.8,0,3.3,1.5,3.3,3.3v17.4
			C11.8,26,10.3,27.5,8.5,27.5z"/>
		<path class="st1" d="M8.5,27.5H6.8c-1.8,0-3.3-1.5-3.3-3.3V6.8C3.5,5,5,3.5,6.8,3.5h1.6c1.8,0,3.3,1.5,3.3,3.3v17.4
			C11.8,26,10.3,27.5,8.5,27.5z"/>
	</g>
</g>
<g>
	<path class="st2" d="M6,24L6,24c-0.2,0-0.4-0.2-0.4-0.4V8c0-0.2,0.2-0.4,0.4-0.4h0c0.2,0,0.4,0.2,0.4,0.4v15.6
		C6.4,23.8,6.2,24,6,24z"/>
	<path class="st2" d="M7.7,24L7.7,24c-0.2,0-0.4-0.2-0.4-0.4V8c0-0.2,0.2-0.4,0.4-0.4h0C7.9,7.7,8,7.8,8,8v15.6
		C8,23.8,7.9,24,7.7,24z"/>
	<path class="st2" d="M9.3,24L9.3,24c-0.2,0-0.4-0.2-0.4-0.4V8c0-0.2,0.2-0.4,0.4-0.4h0c0.2,0,0.4,0.2,0.4,0.4v15.6
		C9.6,23.8,9.5,24,9.3,24z"/>
</g>
</svg>
