<?xml version="1.0" encoding="utf-8"?>
<!-- Generator: Adobe Illustrator 22.1.0, SVG Export Plug-In . SVG Version: 6.00 Build 0)  -->
<svg version="1.1" id="Слой_1" xmlns="http://www.w3.org/2000/svg" xmlns:xlink="http://www.w3.org/1999/xlink" x="0px" y="0px"
	 viewBox="0 0 104.1 144.9" enable-background="new 0 0 104.1 144.9" xml:space="preserve">
<g>
	<path d="M104.1,3c0,38.2,0,76.3,0,114.5c-0.2,0.7-0.1,1.5-0.1,2.2c-0.1,2.4-1.6,4.1-3.7,4.3
		c-0.8,0.1-1.6,0.1-2.4,0.1c-5,0.1-10.1,0.1-15.1,0.2c-0.7,0-1,0.2-0.9,0.9c0,1.1,0,2.2,0,3.3c-0.1,3.8,0.1,7.7-0.1,11.5
		c-0.1,2-0.7,3.6-2.5,4.7c-9.3,0-18.6,0-27.8,0c-1.1-0.7-1.8-1.8-2.4-3c-0.2-0.4-0.4-0.7-0.6-1c-2.3-4-5.9-5.3-10.2-4.2
		c-2.5,0.6-4.3,2.4-5.5,4.7c-0.8,1.4-1.6,2.7-3,3.6c-9.1,0-18.2,0-27.3,0c-1.2-0.6-2.1-1.5-2.5-2.8c0-39.3,0-78.7,0-118
		c1-1.9,2.7-2.7,4.7-2.7c1.2,0,2.3-0.1,3.5-0.1c4.4,0,8.8,0,13.2,0c0.7,0,1-0.2,1-0.9c0-1.7,0.1-3.3,0.1-5c0-3.7,0-7.4,0.2-11.2
		c0.1-2.1,1.4-3.6,3.5-3.9C28,0,29.9,0.1,31.8,0.1C38,0,44.2,0.1,50.4,0c1,0,1.8,0.3,2.6,0.8c0.7,0.4,1.1,1,1.5,1.7
		c0.4,0.7,0.8,1.5,1.3,2.2c2.2,3.3,5.3,4.7,9.2,4.1c2.9-0.4,4.7-2.3,6.1-4.7c0.3-0.5,0.5-1.1,0.9-1.6C72.9,1,74.3,0,76.3,0
		C84,0,91.8,0,99.6,0.2c1.7,0,3,0.6,3.9,2C103.7,2.4,103.9,2.7,104.1,3z M31.6,84.5c0,9.9,0,19.7,0,29.6c0,0.6,0,1,0.8,1
		c4.8,0,9.6,0,14.4,0c0.4,0,0.7-0.1,1-0.5c4.1-6.5,11.6-9.8,19.2-8.2c5,1,8.8,3.9,11.6,8.1c0.3,0.5,0.7,0.7,1.2,0.7
		c4.7,0,9.3,0,14,0c1,0,1,0,1-1c0-19.5,0-39.1,0-58.6c0-1.6,0-1.6-1.4-2.2c-1.3-0.5-2.2-1.4-2.6-2.8c-0.5-2.4-0.3-5,3.5-6
		c0.6-0.2,0.5-0.5,0.5-0.9c0-11.1,0-22.1,0-33.2c0-1.1-0.1-1.1-1.2-1.1c-4.3,0-8.5,0.1-12.8,0c-1.4,0-2.2,0.4-3,1.5
		c-4.7,6-10.8,8.6-18.3,7.1c-4.8-0.9-8.6-3.6-11.3-7.6c-0.4-0.6-0.8-1-1.6-1c-4.7,0-9.4,0-14.1,0c-0.9,0-1,0.1-1,1
		c0,11.1,0,22.2,0,33.3c0,0.7,0.1,0.9,0.9,1c2.3,0.2,4.3,2.6,4.2,4.7c-0.1,1.9-1.9,3.9-3.8,4.4c-1.2,0.3-1.2,0.3-1.2,1.5
		C31.6,64.9,31.6,74.7,31.6,84.5z M8.9,83.2c0,4.5,0,8.9,0,13.4c0,12.8,0,25.6,0,38.4c0,0.9,0.1,0.9,1,1c1.4,0,2.8,0,4.1,0
		c3.4,0,6.9,0,10.3,0c0.5,0,0.9,0,1.2-0.5c0.4-0.8,1-1.5,1.7-2.2c4.7-5.2,10.5-7.2,17.4-5.9c4.9,0.9,8.5,3.8,11.4,7.8
		c0.4,0.6,0.9,0.8,1.6,0.8c4.5,0,9.1,0,13.6,0c1,0,1.1,0,1.1-1.1c0-3.4-0.1-6.9,0-10.3c0.1-1.6-0.4-3-1.1-4.4
		c-2-3.8-5.8-5.6-9.9-4.7c-2.7,0.6-4.5,2.3-5.8,4.7c-0.4,0.7-0.7,1.3-1.2,2c-0.7,1-1.7,1.7-3,1.9c-0.8,0.1-1.7,0.2-2.5,0.2
		c-7.4,0-14.8,0-22.1,0c-1.8,0-3.7-1.6-4-3.4c-0.2-1.3-0.2-2.7-0.3-4c-0.1-5.6-0.1-11.3-0.1-16.9c-0.1-13,0-26,0-39
		c0-9.7,0-19.5,0-29.2c0-1.2,0-1.2-1.2-1.2c-3.8,0-7.5,0-11.3,0c-0.7,0-0.9,0.2-0.9,0.9C8.9,48.7,8.9,66,8.9,83.2z"/>
	<path d="M49.1,49c0,2.4-2.2,4.7-4.6,4.7c-2.4,0-4.5-2.2-4.5-4.7c0-2.5,2-4.6,4.6-4.6C47,44.5,49.1,46.6,49.1,49z"/>
	<path d="M57.2,44.6c2.8,0,4.4,1.8,4.4,4.8c0,2.4-2.6,4.4-4.4,4.3c-2.4,0-4.8-2.2-4.7-4.4
		C52.6,46.4,54.4,44.6,57.2,44.6z"/>
	<path d="M69.7,44.6c2.9,0,4.4,1.7,4.5,4.8c0.1,2.2-2.5,4.3-4.3,4.3c-2.4,0-4.9-2.1-4.8-4.6
		C65.2,46.4,66.9,44.6,69.7,44.6z"/>
	<path d="M82.4,44.5c2.3,0,4.5,2.3,4.5,4.5c0,2.7-2.1,4.7-4.9,4.6c-2.3,0-4.4-2.2-4.3-4.7
		C77.8,46.5,80,44.5,82.4,44.5z"/>
</g>
</svg>
