<?xml version="1.0" encoding="utf-8"?>
<!-- Generator: Adobe Illustrator 22.1.0, SVG Export Plug-In . SVG Version: 6.00 Build 0)  -->
<svg version="1.1" id="Слой_1" xmlns="http://www.w3.org/2000/svg" xmlns:xlink="http://www.w3.org/1999/xlink" x="0px" y="0px"
	 viewBox="0 0 34.5 34.5" enable-background="new 0 0 34.5 34.5" xml:space="preserve">
<g>
	<defs>
		<rect id="SVGID_1_" y="0" width="34.5" height="34.5"/>
	</defs>
	<clipPath id="SVGID_2_">
		<use xlink:href="#SVGID_1_"  overflow="visible"/>
	</clipPath>
	<path clip-path="url(#SVGID_2_)" fill="#B11F2C" d="M17.2,12.1h-6.9c-0.3,0-0.6,0.3-0.6,0.6v15.5H7.5v-8.6H6.3v8.6H4V13.2H2.9v6.3
		H1.7V14c0-1.7,1.4-3.1,3.1-3.1h12.5V12.1z M12.6,33.3H1.1v-4h11.5V33.3z M6.9,5.2c1.3,0,2.3,1,2.3,2.3c0,1.3-1,2.3-2.3,2.3
		s-2.3-1-2.3-2.3C4.6,6.2,5.6,5.2,6.9,5.2 M18.4,10.9v-0.6c0-0.3-0.3-0.6-0.6-0.6H9.5c1.3-1.4,1.2-3.6-0.3-4.9
		C7.8,3.6,5.6,3.7,4.3,5.2c-1.2,1.3-1.2,3.3,0,4.6c-2.1,0.2-3.8,2-3.8,4.2v6.1c0,0.3,0.3,0.6,0.6,0.6h0h1.7v7.5H0.6
		c-0.3,0-0.6,0.3-0.6,0.6v0v5.2c0,0.3,0.3,0.6,0.6,0.6h12.6c0.3,0,0.6-0.3,0.6-0.6v-5.2c0-0.3-0.3-0.6-0.6-0.6h-2.3V13.2h6.9
		c0.3,0,0.6-0.3,0.6-0.6v0v-0.6H31v-1.1H18.4z"/>
	<path clip-path="url(#SVGID_2_)" fill="#B11F2C" d="M23,7.5h-8.6V5.2c0-0.3-0.2-0.5-0.4-0.6l-1.1-0.3l1.3-1
		c0.1-0.1,0.2-0.3,0.2-0.5V1.1H23V7.5z M23.6,0L23.6,0h-9.8c-0.3,0-0.6,0.3-0.6,0.6v2l-2.1,1.6c-0.3,0.2-0.3,0.5-0.1,0.8
		c0.1,0.1,0.2,0.2,0.3,0.2l1.9,0.5V8c0,0.3,0.3,0.6,0.6,0.6h9.8c0.3,0,0.6-0.3,0.6-0.6V0.6C24.1,0.3,23.9,0,23.6,0"/>
	<path clip-path="url(#SVGID_2_)" fill="#B11F2C" d="M20.8,2.5l-2.5,2.5l-1.3-1.3l-0.8,0.8L18,6.2c0.1,0.1,0.3,0.2,0.4,0.2
		c0.2,0,0.3-0.1,0.4-0.2l2.9-2.9L20.8,2.5z"/>
	<path clip-path="url(#SVGID_2_)" fill="#B11F2C" d="M26.4,33.3H23v-2.9c0-1,0.8-1.7,1.7-1.7c1,0,1.7,0.8,1.7,1.7V33.3z M24.7,25.3
		c0.6,0,1.1,0.5,1.1,1.1s-0.5,1.1-1.1,1.1c-0.6,0-1.1-0.5-1.1-1.1C23.6,25.8,24.1,25.3,24.7,25.3 M26.3,28.1c0.9-0.9,0.9-2.3,0-3.2
		c-0.9-0.9-2.3-0.9-3.2,0c-0.9,0.9-0.9,2.3,0,3.2c0,0,0,0,0,0c-0.8,0.5-1.3,1.4-1.3,2.4v3.4c0,0.3,0.3,0.6,0.6,0.6h0H27
		c0.3,0,0.6-0.3,0.6-0.6v-3.4C27.6,29.5,27.1,28.6,26.3,28.1"/>
	<path clip-path="url(#SVGID_2_)" fill="#B11F2C" d="M33.3,33.3h-3.4v-2.9c0-1,0.8-1.7,1.7-1.7c1,0,1.7,0.8,1.7,1.7V33.3z
		 M31.6,25.3c0.6,0,1.1,0.5,1.1,1.1s-0.5,1.1-1.1,1.1c-0.6,0-1.1-0.5-1.1-1.1C30.4,25.8,31,25.3,31.6,25.3 M33.2,28.1
		c0.9-0.9,0.9-2.3,0-3.2c-0.9-0.9-2.3-0.9-3.2,0c-0.9,0.9-0.9,2.3,0,3.2c0,0,0,0,0,0c-0.8,0.5-1.3,1.4-1.3,2.4v3.4
		c0,0.3,0.3,0.6,0.6,0.6h0h4.6c0.3,0,0.6-0.3,0.6-0.6v-3.4C34.5,29.5,34,28.6,33.2,28.1"/>
	<path clip-path="url(#SVGID_2_)" fill="#B11F2C" d="M19.5,33.3h-3.4v-2.9c0-1,0.8-1.7,1.7-1.7c1,0,1.7,0.8,1.7,1.7V33.3z
		 M17.8,25.3c0.6,0,1.1,0.5,1.1,1.1s-0.5,1.1-1.1,1.1c-0.6,0-1.1-0.5-1.1-1.1C16.7,25.8,17.2,25.3,17.8,25.3 M19.4,28.1
		c0.9-0.9,0.9-2.3,0-3.2c-0.9-0.9-2.3-0.9-3.2,0c-0.9,0.9-0.9,2.3,0,3.2c0,0,0,0,0,0c-0.8,0.5-1.3,1.4-1.3,2.4v3.4
		c0,0.3,0.3,0.6,0.6,0.6h0h4.6c0.3,0,0.6-0.3,0.6-0.6v-3.4C20.7,29.5,20.2,28.6,19.4,28.1"/>
</g>
</svg>
