<?xml version="1.0" encoding="utf-8"?>
<!-- Generator: Adobe Illustrator 22.1.0, SVG Export Plug-In . SVG Version: 6.00 Build 0)  -->
<svg version="1.1" id="Слой_1" xmlns="http://www.w3.org/2000/svg" xmlns:xlink="http://www.w3.org/1999/xlink" x="0px" y="0px"
	 viewBox="0 0 75.9 75.9" enable-background="new 0 0 75.9 75.9" xml:space="preserve">
<path d="M38,0c5.5,0,11,0,16.5,0c12.4,0,21.4,8.9,21.4,21.3c0.1,11.1,0.1,22.2,0,33.3c0,10.4-6.5,18.6-16.2,20.7
	c-1.7,0.4-3.5,0.6-5.2,0.6c-11,0-22,0-33,0C9.1,75.9,0.1,67,0,54.6C0,43.5,0,32.4,0,21.3c0-10.4,6.5-18.6,16.2-20.7
	C18,0.2,19.7,0,21.5,0C27,0,32.5,0,38,0z M71.8,38c0-5.8,0-11.6,0-17.3c-0.1-9.3-7.1-16.4-16.3-16.5c-11.6-0.1-23.2-0.1-34.8,0
	c-9.3,0-16.4,7.2-16.4,16.4c0,11.6,0,23.1,0,34.7c0,9.4,7.1,16.4,16.5,16.5c11.5,0,23,0,34.5,0c9.5,0,16.5-7.1,16.6-16.6
	C71.8,49.4,71.8,43.7,71.8,38z"/>
<g>
	<path d="M29.1,37.7c0-2.6,0-5.2,0-7.7c0-1.1-0.6-2-1.2-2.8c-0.8-1.2-1.3-2.4-0.6-3.8c0.8-1.4,2.1-1.8,3.6-1.8
		c2.6,0,5.3,0,7.9,0c2.8,0,4,1.1,4,3.9c0.1,2.9,0,5.8,0,8.8c0,0.4,0,0.8,0,1.2c0.5,0.2,0.6-0.2,0.8-0.5c2.4-2.9,4.3-6.2,5.7-9.6
		c1.1-2.7,2.8-4.1,5.8-3.8c1.6,0.1,3.2,0,4.7,0c2.8,0,4.1,1.8,3.4,4.5c-0.4,1.8-1.4,3.4-2.3,5c-1.5,2.8-3.2,5.4-5.1,8
		c-0.7,0.9-0.5,1.4,0.2,2.2c2.5,2.6,5,5.1,7,8.2c0.7,1.1,1.4,2.3,1.4,3.7c0,2.1-1.2,3.6-3.3,3.6c-2.3,0.1-4.7,0.1-7,0
		c-1.5,0-2.6-0.9-3.5-1.9C49,53,47.4,51,45.5,49.4c-0.8-0.7-1.5-1.9-2.5-1.5c-0.6,0.2-0.1,1.7-0.2,2.6c-0.1,0.7,0,1.4,0,2.1
		c0,2.2-0.8,3.4-3,3.9c-3.4,0.8-6.8,0.3-10-1.1c-4.9-2-8.6-5.5-11.8-9.6c-4.2-5.4-7.3-11.3-9.2-17.9c-0.3-0.9-0.5-1.8-0.5-2.7
		c0-2.1,1.2-3.5,3.2-3.5c2.3-0.1,4.6-0.1,6.9,0c1.6,0.1,2.7,1,3.3,2.4c1,2.4,1.9,4.8,3,7.1C25.9,33.5,27.2,35.8,29.1,37.7z
		 M38.9,31.8c0-2,0-3.7,0-5.4c0-0.8-0.2-1.1-1.1-1.1c-1.8,0-3.7,0-5.5,0c-1,0-1,0.3-0.5,1c0.7,1.1,1.1,2.3,1.1,3.5
		c0.1,3.4,0.1,6.7,0,10.1c0,1.2-0.4,2.4-1.8,2.9c-1.4,0.5-2.5,0-3.6-0.9c-1.6-1.4-2.7-3-3.8-4.8c-2-3.4-3.7-6.9-4.9-10.6
		c-0.3-0.9-0.9-1.3-1.8-1.3c-1.1,0.1-2.3,0-3.4,0c-1.4,0-1.5,0.1-1.2,1.5c0.1,0.4,0.2,0.8,0.3,1.2c1.9,5.5,4.6,10.6,8.1,15.3
		c2.7,3.5,5.9,6.6,10,8.5c2.1,1,4.3,1.3,6.6,1.3c1.1,0,1.5-0.5,1.5-1.6c-0.1-1.6-0.1-3.2,0.1-4.9c0.4-2.2,1.9-3.3,4.1-2.9
		c1.2,0.2,2.2,0.8,3.1,1.5c2.4,1.8,4.4,4,6.4,6.3c0.7,0.7,1.3,1.6,2.4,1.6c1.5,0,3.1,0,4.6,0c0.9,0,0.9-0.4,0.5-1
		c-0.4-0.6-0.8-1.2-1.2-1.8c-1.9-2.5-4.2-4.8-6.3-7.1c-1.7-1.8-1.9-3.3-0.5-5.4c0.7-1.2,1.6-2.3,2.3-3.4c1.6-2.6,3.3-5.1,4.6-7.9
		c0.4-0.9,0.4-1.4-0.8-1.3c-1.1,0.1-2.2,0.1-3.2,0c-1.2-0.1-1.8,0.4-2.3,1.5c-1.6,3.8-3.7,7.4-6.3,10.6c-0.9,1.1-1.9,2-3.1,2.7
		c-2.2,1.2-4,0.3-4.4-2.2C38.7,35.7,39,33.6,38.9,31.8z"/>
</g>
</svg>
