<?xml version="1.0" encoding="utf-8"?>
<!-- Generator: Adobe Illustrator 22.1.0, SVG Export Plug-In . SVG Version: 6.00 Build 0)  -->
<svg version="1.1" id="Слой_1" xmlns="http://www.w3.org/2000/svg" xmlns:xlink="http://www.w3.org/1999/xlink" x="0px" y="0px"
	 viewBox="0 0 116.4 111.1" enable-background="new 0 0 116.4 111.1" xml:space="preserve">
<g>
	<path d="M81.3,93.5c0-4.5,0-9,0-13.5c0-1.5,0.4-2.6,1.3-3.7c8.4-9.9,16.8-19.9,25.2-29.8c1.5-1.8,2.7-3.6,2.2-6.2
		c-0.7-3.6-3.6-5-6.9-3.4c-0.9,0.4-1.6,1.1-2.3,1.9C97,42.8,93.1,46.9,89.1,51c-9.4,9.8-20.9,14.2-34.3,13.3
		c-10.5-0.8-19.5-5.1-26.9-12.6c-4.3-4.4-8.5-8.9-12.7-13.4c-1-1.1-2.3-1.9-3.8-2.1c-3.8-0.5-6.4,3.2-4.9,7.2
		C6.9,44.3,7.4,45,8,45.7C16.6,56,25.3,66.3,34,76.5c0.7,0.8,1.1,1.7,1.1,2.7c0,9.5,0,18.9,0,28.4c0,2.1-1.3,3.4-3.1,3.4
		c-1.8,0-3.1-1.4-3.1-3.5c0-8.5,0-17,0-25.5c0-1.5-0.4-2.6-1.3-3.7c-8-9.4-15.9-18.8-23.8-28.1c-1.8-2.2-3.3-4.5-3.6-7.4
		c-0.5-4.5,0.9-8.3,4.5-10.9c3.7-2.8,7.8-2.4,11.8-0.5c1.2,0.6,2.3,1.5,3.2,2.5c4.1,4.3,8.2,8.7,12.3,13c5.9,6.1,13,9.9,21.4,11
		C66,59.5,76.7,55.4,85.4,46c3.8-4.1,7.6-8.1,11.5-12.1c3.2-3.3,7.1-4.7,11.6-3.6c7.2,1.8,10.3,11,6,17.6c-2.1,3.2-4.8,5.9-7.3,8.9
		c-6.2,7.4-12.4,14.7-18.6,22c-0.7,0.9-1,1.7-1,2.8c0,8.2,0,16.3,0,24.5c0,0.7,0,1.5,0,2.2c-0.2,1.7-1.5,2.9-3.1,2.8
		c-1.6,0-2.9-1.3-3-3c-0.1-1.7,0-3.5,0-5.2C81.3,99.8,81.3,96.6,81.3,93.5C81.3,93.5,81.3,93.5,81.3,93.5z"/>
	<path d="M84.5,26.5C84.7,40,73.8,52.6,58.6,52.8c-16.4,0.2-26.4-13-26.8-25.4C31.3,12.5,43.3,0,58.5,0
		C72.7,0,84.5,11.9,84.5,26.5z M78.4,26.5c0.1-11-8.8-20.3-19.7-20.3C47.2,6.1,38.3,14.8,38,25.9c-0.3,10.6,8.1,20.8,20.5,20.7
		C70.1,46.5,78.4,37,78.4,26.5z"/>
</g>
</svg>
