<?xml version="1.0" encoding="utf-8"?>
<!-- Generator: Adobe Illustrator 22.1.0, SVG Export Plug-In . SVG Version: 6.00 Build 0)  -->
<svg version="1.1" id="Слой_1" xmlns="http://www.w3.org/2000/svg" xmlns:xlink="http://www.w3.org/1999/xlink" x="0px" y="0px"
	 viewBox="0 0 57.9 56" enable-background="new 0 0 57.9 56" xml:space="preserve">
<path d="M17,16.8c2.3,0,4.6,0,6.8,0c3.2,0,6.3,0,9.5,0c0.4,0,0.6,0.1,0.8,0.3c0.2,0.2,0.1,0.5,0.1,0.7
	c-0.1,0.4-0.6,0.5-0.9,0.5c-2.2,0-4.3,0-6.5,0l-4.5,0l-1.9,0l-0.1,0c-0.7,0-1.8,0-2.7,0.9c-0.9,0.9-0.8,2-0.7,2.8c0,0.5,0,1.1,0,1.8
	c0,0.3,0,0.6,0,0.9l0,1.2c0,2.5,0,5,0,7.6c0,1,0,2,0,3c0,0.8,0,1.6,0,2.4c0,1,0,1.9,0,2.9c0,0.9,0,1.8,0,2.7c0,1.9,0,3.7-0.1,5.4
	c0,0.4,0,0.7,0,1.1c0,0.5,0,0.9,0,1.2c0,0.4-0.2,1-0.9,1.1c-0.1,0-0.3,0.1-0.4,0.1c-0.4,0-0.7-0.2-1-0.5c-0.2-0.4-1-1.4-2.4-1.4
	c-1,0-1.8,0.5-2.5,1.5c-0.2,0.3-0.5,0.4-0.9,0.4c-0.1,0-0.3,0-0.4-0.1c-0.5-0.2-0.9-0.6-0.9-1.1c0-1.9,0-3.8,0-5.7h0v-2.5l0-2.2
	c0-1.9,0-4,0-5.9c0-2-1.2-3.3-3.2-3.5c-1.1-0.1-1.4-0.4-1.4-1.5c0-4.3,0-8.7,0-13c0-0.8,0.5-1.2,1.3-1.3c0.4,0,0.9,0,1.3,0
	c0.3,0,0.6,0,0.9,0c0.3,0,0.6,0,0.9,0c0.3,0.4,0.6,0.8,0.9,1.2c0.5,0.6,1,1.3,1.5,1.9c0.8,1.1,1.8,1.3,2.4,1.3
	c0.7,0,1.6-0.2,2.4-1.3c0.5-0.6,1-1.2,1.4-1.8C16.3,17.6,16.6,17.2,17,16.8 M16.5,14.3c-0.5,0-0.9,0.2-1.2,0.6
	c-0.9,1.2-1.8,2.3-2.7,3.4c-0.2,0.2-0.3,0.3-0.5,0.3c-0.1,0-0.3-0.1-0.5-0.3c-0.9-1.2-1.9-2.3-2.8-3.5c-0.2-0.3-0.5-0.5-0.9-0.5
	c0,0,0,0,0,0c-0.2,0-0.4,0-0.6,0c-0.6,0-1.3,0-1.9,0c-0.5,0-0.9,0-1.4,0c-2.2,0.1-3.7,1.6-3.7,3.8c0,4.3,0,8.7,0,13
	c0,2.4,1.4,3.8,3.7,4c0.7,0,0.9,0.3,0.9,0.9c0,2.7,0,5.4,0,8.1h0c0,2.7,0,5.5,0,8.2c0,1.6,1.1,3,2.7,3.5C7.9,55.9,8.3,56,8.7,56
	c1.2,0,2.3-0.6,3-1.6c0.2-0.3,0.3-0.4,0.4-0.4c0.1,0,0.2,0.1,0.4,0.4c0.7,1,1.8,1.6,3,1.6c0.4,0,0.7,0,1.1-0.1
	c1.5-0.4,2.5-1.7,2.7-3.3c0.1-0.8,0-1.7,0-2.5c0-1.8,0.1-3.6,0.1-5.5c0-1.9-0.1-3.8-0.1-5.7c0-1.8,0.1-3.6,0.1-5.5
	c0-2.9,0-5.8,0-8.7c0-1,0.1-1.9,0-2.9c-0.1-1-0.1-1,0.9-1c0,0,0,0,0.1,0c2.2,0,4.3,0,6.5,0s4.3,0,6.5,0c1.7,0,3-1,3.4-2.5
	c0.5-2.2-1-4-3.3-4C27.7,14.3,22.1,14.3,16.5,14.3C16.5,14.3,16.5,14.3,16.5,14.3L16.5,14.3z"/>
<path d="M12,12.5C12,12.5,12,12.5,12,12.5c-3.5,0-6.2-2.8-6.1-6.2c0-1.7,0.7-3.2,1.9-4.4c1.2-1.2,2.8-1.8,4.4-1.8
	c1.6,0,3.3,0.7,4.4,2c1.1,1.2,1.7,2.7,1.7,4.2C18.2,9.9,15.5,12.5,12,12.5z M12.1,2.8c-1,0-1.9,0.4-2.6,1C8.8,4.5,8.4,5.4,8.4,6.4v0
	C8.4,8.3,10,10,12,10c2.1,0,3.8-1.6,3.8-3.6c0-0.9-0.3-1.7-1-2.4C14.1,3.2,13.1,2.8,12.1,2.8C12.1,2.8,12.1,2.8,12.1,2.8z"/>
<path d="M28.6,55.7c-1.1,0-1.7-1.1-1.2-2c0.1-0.3,0.4-0.5,0.6-0.7c2.4-2.4,4.8-4.7,7.2-7c1.1-1,1.7-1,2.8,0
	c2.5,2.4,4.9,4.8,7.4,7.3c0.4,0.4,0.7,0.9,0.6,1.5c-0.3,1.1-1.5,1.4-2.4,0.5c-1.2-1.2-2.4-2.3-3.6-3.5c-0.9-0.9-1.9-1.8-2.8-2.8
	c-0.4-0.4-0.6-0.3-1,0c-2.1,2.1-4.2,4.1-6.3,6.2C29.4,55.4,29.1,55.7,28.6,55.7"/>
<polygon points="57.6,43.2 22.8,43.2 22.8,40.7 55.1,40.7 55.1,7 22.8,7 22.8,4.5 57.6,4.5 "/>
<path d="M39.4,7h-5.8c-1.7,0-3.1-1.4-3.1-3.1s1.4-3.1,3.1-3.1h5.8c1.7,0,3.1,1.4,3.1,3.1S41.1,7,39.4,7z M33.7,3.3
	c-0.3,0-0.6,0.3-0.6,0.6s0.3,0.6,0.6,0.6h5.8c0.3,0,0.6-0.3,0.6-0.6s-0.3-0.6-0.6-0.6H33.7z"/>
</svg>
