<?xml version="1.0" encoding="utf-8"?>
<!-- Generator: Adobe Illustrator 23.0.5, SVG Export Plug-In . SVG Version: 6.00 Build 0)  -->
<svg version="1.1" id="Слой_1" xmlns="http://www.w3.org/2000/svg" xmlns:xlink="http://www.w3.org/1999/xlink" x="0px" y="0px"
	 viewBox="0 0 18.5 18.7" enable-background="new 0 0 18.5 18.7" xml:space="preserve">
<g>
	<path fill="#DBDBDB" d="M16.9,18.7c-0.1,0-0.2,0-0.3,0l0,0c-0.4,0-0.6-0.2-0.9-0.5c-1.1-1.1-2.2-2.2-3.3-3.3c0,0-0.1-0.1-0.1,0
		c-1.1,0.6-2.2,1-3.5,1.1c-1.1,0.1-2.1,0-3.1-0.3c-1.9-0.6-3.4-1.8-4.5-3.5c-0.6-1-1-2.1-1.1-3.3c0-0.2,0-0.3-0.1-0.5
		c0-0.3,0-0.5,0-0.8V7.5c0-0.4,0.1-0.7,0.1-1.1c0.4-1.7,1.1-3.1,2.4-4.3c1.9-1.7,4.2-2.4,6.7-2c1.4,0.2,2.7,0.8,3.8,1.7
		c2.3,1.9,3.2,4.4,2.9,7.4c-0.1,1.1-0.5,2.1-1.1,3c0,0.1,0,0.1,0,0.2c1.1,1.1,2.2,2.2,3.3,3.3c0.6,0.6,0.6,1.4,0,2
		c-0.2,0.2-0.4,0.4-0.6,0.6S17.1,18.6,16.9,18.7C17,18.6,17,18.6,16.9,18.7z M8.1,13.8c3.2,0,5.8-2.6,5.8-5.8s-2.6-5.8-5.8-5.8
		C4.9,2.2,2.3,4.8,2.3,8C2.2,11.2,4.8,13.8,8.1,13.8z"/>
</g>
</svg>
