<svg version="1.1" id="Слой_1" xmlns="http://www.w3.org/2000/svg" xmlns:xlink="http://www.w3.org/1999/xlink" viewBox="0 0 27.7 34.1" preserveAspectRatio="xMinYMid"><defs><path id="SVGID_1_" d="M0 0h27.7v34.1H0z"/></defs><clipPath id="SVGID_2_"><use xlink:href="#SVGID_1_" overflow="visible"/></clipPath><path clip-path="url(#SVGID_2_)" fill="#B11F2C" d="M5.6 29.1v2.1c0 .6.2.7.6.4 1.1-.7 2.1-.7 3.2 0 .4.3.6.1.6-.4v-4c0-.5-.2-.8-.7-.8H6.2c-.5 0-.7.2-.7.7.1.6.1 1.3.1 2m8.8-8.2H4.5c-1.3 0-2.1.8-2.5 2.2-.2 1 .2 2.1 1.1 2.5.4.2.6.3.8-.3.1-.6.5-.9 1.1-.9h5.8c.6 0 1.1.3 1.1 1 0 .5.3.6.8.6h11.8c.7 0 .7-.3.5-.8-.4-1.1-.4-2.3 0-3.4.3-.8 0-.9-.7-.9h-9.9m1.2-2h11.2c.9.2 1.2.9.7 1.7-1.3 1.9-1.3 3.8 0 5.8.5.7.2 1.4-.7 1.6H13.2c-1.4 0-1.4 0-1.4 1.4v3.5c0 1.1-.5 1.4-1.5 1.1-.1 0-.1 0-.2-.1-1.6-1-3.1-1-4.8 0-1 .6-1.6.1-1.7-1.1v-4c0-.6-.1-.9-.7-1.1-2-.7-3.2-2.6-3-4.6.4-2.1 2-3.8 4.1-4.1 2.3-.3 4.7-.1 7-.1h4.6M14.5 2h-10C2.6 2 1.4 3.9 2.1 5.6c.5 1.2 1.6 1.5 2.7 1.5h19.6c.6 0 .8-.2.5-.8-.4-1.2-.4-2.4 0-3.6.3-.6.1-.7-.5-.7h-9.9m.8 7H4.4C1.6 9-.4 6.4.1 3.8.5 1.5 2.4 0 5 0h21.7c1 .1 1.3.8.8 1.7-.8 1.2-1.2 2.5-.8 3.9.1.5.3 1 .6 1.4.3.4.7.9.4 1.5-.4.6-1 .5-1.6.5H15.3m-1 7.6H24c1.1 0 1.1 0 .9-1.1-.3-1-.3-2.1.1-3.1.3-.9.1-1-.7-1H4.6c-1.8 0-3 1.9-2.4 3.5.3 1 1.2 1.6 2.5 1.6 3.1.1 6.3.1 9.6.1m1.1-7.1H26c.6 0 1.2-.1 1.5.5.4.6-.1 1.1-.4 1.5-1 1.7-1 3.4.1 5 .3.4.6.9.3 1.4-.3.6-.8.6-1.4.6h-21c-1.2 0-2.5-.1-3.5-1C.1 16.2-.5 14.4.1 12.7c.6-2 2.3-3.2 4.3-3.2h11"/></svg>