<svg version="1.1" id="Слой_1" xmlns="http://www.w3.org/2000/svg" x="0" y="0" viewBox="0 0 112.4 105.3" xml:space="preserve"><path fill="#b0252d" d="M56.1 105.3H10.6c-6.7 0-10.7-4-10.7-10.7V19.1C0 12.6 4.1 8.5 10.6 8.5h1c4.9 0 4.9 0 5.5-4.9.2-2.1 1.3-3.4 3.5-3.6 2-.1 3.5 1.3 3.7 3.6.5 4.9.5 4.9 5.5 4.9 6.7 0 13.5-.1 20.2 0 2 0 2.7-.7 2.6-2.6-.1-1.1 0-2.2.2-3.2C53.2.9 54.4 0 56.2 0c1.8 0 3 1 3.4 2.7.2.8.2 1.7.2 2.5.1 3.2 0 3.2 3.4 3.2h21.5c3.3 0 3.3 0 3.4-3.5 0-.7 0-1.3.1-2 .4-1.9 1.5-3 3.5-3 2.1 0 3.2 1.2 3.6 3.1 0 .2 0 .5.1.7.3 4.6.3 4.7 5 4.5 3.6-.1 6.8.5 9.3 3.2 1.7 1.9 2.7 4 2.7 6.5v77.5c0 5.6-4.3 9.6-10 9.7-15.4.2-30.8.2-46.3.2zm.1-7.1h44.2c4.1 0 4.8-.7 4.8-4.8V42.7c0-3.3 0-3.3-3.4-3.3H10.6c-3.4 0-3.4 0-3.4 3.5v50.2c0 4.5.6 5.1 5 5.1h44zm0-66.2h46c2.2 0 3.2-.6 3.1-3-.1-2.2 0-4.3 0-6.5 0-7-.1-7-7.1-7-2 0-2.8.6-2.8 2.7 0 2.9-1.5 4.5-3.7 4.4-2.1-.1-3.6-1.6-3.5-4.3 0-2.3-.9-2.8-3-2.8-7.5.1-15 .1-22.5 0-2.2 0-2.9.7-2.9 2.9 0 2.7-1.4 4.2-3.6 4.2-2.1 0-3.7-1.6-3.6-4.2.1-2.5-1-2.9-3.1-2.9-7.2.1-14.5.1-21.7 0-2.5 0-3.7.5-3.5 3.3.1 2.3-1.5 3.8-3.4 3.8-2 .1-3.4-1.4-3.7-3.7-.4-3.4-.4-3.4-4-3.4H11c-2.7.1-3.6 1-3.6 3.7-.1 3 0 6 0 9 0 3.6 0 3.6 3.6 3.6 14.9.2 30 .2 45.2.2z"/><path fill="#b0252d" d="M26 56.2h-8.5c-2.1 0-3.8-1.7-3.8-3.8v-3.7c0-2.1 1.7-3.8 3.8-3.8H26c2.1 0 3.8 1.7 3.8 3.8v3.7c-.1 2.1-1.8 3.8-3.8 3.8zm23 0h-8.5c-2.1 0-3.8-1.7-3.8-3.8v-3.7c0-2.1 1.7-3.8 3.8-3.8H49c2.1 0 3.8 1.7 3.8 3.8v3.7c-.1 2.1-1.8 3.8-3.8 3.8zm23 0h-8.5c-2.1 0-3.8-1.7-3.8-3.8v-3.7c0-2.1 1.7-3.8 3.8-3.8H72c2.1 0 3.8 1.7 3.8 3.8v3.7c-.1 2.1-1.8 3.8-3.8 3.8zm23 0h-8.5c-2.1 0-3.8-1.7-3.8-3.8v-3.7c0-2.1 1.7-3.8 3.8-3.8H95c2.1 0 3.8 1.7 3.8 3.8v3.7c-.1 2.1-1.8 3.8-3.8 3.8zm-69 18h-8.5c-2.1 0-3.8-1.7-3.8-3.8v-3.7c0-2.1 1.7-3.8 3.8-3.8H26c2.1 0 3.8 1.7 3.8 3.8v3.7c-.1 2.1-1.8 3.8-3.8 3.8zm23 0h-8.5c-2.1 0-3.8-1.7-3.8-3.8v-3.7c0-2.1 1.7-3.8 3.8-3.8H49c2.1 0 3.8 1.7 3.8 3.8v3.7c-.1 2.1-1.8 3.8-3.8 3.8zm23 0h-8.5c-2.1 0-3.8-1.7-3.8-3.8v-3.7c0-2.1 1.7-3.8 3.8-3.8H72c2.1 0 3.8 1.7 3.8 3.8v3.7c-.1 2.1-1.8 3.8-3.8 3.8zm23 0h-8.5c-2.1 0-3.8-1.7-3.8-3.8v-3.7c0-2.1 1.7-3.8 3.8-3.8H95c2.1 0 3.8 1.7 3.8 3.8v3.7c-.1 2.1-1.8 3.8-3.8 3.8zm-69 18h-8.5c-2.1 0-3.8-1.7-3.8-3.8v-3.7c0-2.1 1.7-3.8 3.8-3.8H26c2.1 0 3.8 1.7 3.8 3.8v3.7c-.1 2.1-1.8 3.8-3.8 3.8zm23 0h-8.5c-2.1 0-3.8-1.7-3.8-3.8v-3.7c0-2.1 1.7-3.8 3.8-3.8H49c2.1 0 3.8 1.7 3.8 3.8v3.7c-.1 2.1-1.8 3.8-3.8 3.8zm23 0h-8.5c-2.1 0-3.8-1.7-3.8-3.8v-3.7c0-2.1 1.7-3.8 3.8-3.8H72c2.1 0 3.8 1.7 3.8 3.8v3.7c-.1 2.1-1.8 3.8-3.8 3.8z"/></svg>