<svg version="1.1" id="Слой_1" xmlns="http://www.w3.org/2000/svg" x="0" y="0" viewBox="0 0 27 27.5" xml:space="preserve"><style>.st0{fill:#fff}</style><path class="st0" d="M20.2 27.5c-.6-.1-1.1-.2-1.7-.4-.9-.4-1.7-.9-2.4-1.7-.5-.6-.9-1.2-1.1-1.9-.2-.6-.3-1.1-.4-1.7 0-.6 0-1.2.1-1.8.2-.8.5-1.6 1-2.2.7-.9 1.5-1.6 2.5-2.1.2-.1.2-.1.2-.3-.1-.5.2-.9.7-.9h3c.6 0 .9.4.7 1 0 .1 0 .1.1.2.4.2.9.4 1.3.7.1.1.2 0 .3-.1.2-.2.4-.3.7-.3.3 0 .5.2.6.4.1.3 0 .5-.2.7l-.2.2c-.1.1-.1.2 0 .3.7.8 1.1 1.8 1.2 2.8.2 1.2.1 2.3-.4 3.4-.4 1-1.1 1.8-2 2.5-.6.5-1.4.8-2.1 1.1-.3.1-.6.1-.9.2-.1-.1-.5-.1-1-.1zm.7-10.9c-2.4-.1-4.8 1.9-4.8 4.8 0 2.4 1.8 4.6 4.5 4.7 2.6.1 4.7-1.9 4.9-4.4.3-2.7-1.9-5.1-4.6-5.1zM18.9 0c.3.2.4.4.4.8 0 .3.1.4.3.3h4.9c.5 0 .7.3.7.8v1.6c0 .3-.3.6-.6.7-.4 0-.7-.1-.8-.5-.1-.3 0-.6 0-.9 0-.2-.1-.3-.3-.3h-4.1c-.2 0-.2.1-.2.3 0 .5-.2.7-.5.8-.4.1-.9-.2-.9-.6v-.1c0-.3-.1-.3-.3-.3H7.6c-.2 0-.3 0-.3.3 0 .5-.2.7-.6.8-.3 0-.7-.3-.7-.8 0-.4 0-.4-.4-.4H1.8c-.2 0-.3.1-.3.3v.5c0 .4-.3.8-.6.8-.5.1-.8-.2-.9-.7V1.6c0-.2.3-.5.6-.5h4.3c.3 0 .6-.1.9 0C6 1.1 6 1 6 .9c-.1-.4.1-.6.3-.9H7c.2.1.4.3.4.6v.3c0 .1.1.2.2.2h10.1c.1 0 .2-.1.2-.2-.1-.4.1-.7.3-.9h.7z"/><path class="st0" d="M12.7 5.3h11.8c.5 0 .7.3.7.8v6.3c0 .3.1.6 0 .9-.1.4-.4.7-.7.6-.3 0-.6-.4-.6-.7v-.8c0-.1-.1-.2-.2-.2h-4.1c-.2 0-.3 0-.3.3-.1.3-.4.5-.7.5-.3 0-.6-.3-.6-.6 0-.1-.1-.2-.2-.2h-4.1c-.2 0-.3.1-.2.3.1.7 0 1.4 0 2.1 0 .4.1.8 0 1.2v.2c0 .5 0 .5.6.5.4 0 .7.3.7.7 0 .4-.3.7-.7.7-.6 0-.6 0-.6.5v4.5c0 .3-.3.6-.6.6H2c-.4 0-.9.1-1.3 0-.5.1-.7-.3-.7-.7V6c0-.3.2-.6.6-.6.6-.1 1.1 0 1.7 0h9.1c.4-.1.8-.1 1.3-.1zm2.9 5.7h1.9c.3 0 .4 0 .4-.4v-.2c-.1-.7 0-1.4 0-2.1V8c.1-.4.5-.6.8-.5.3 0 .5.4.5.7v2.5c0 .2 0 .2.2.2h4.1c.2 0 .3 0 .3-.3V6.9c0-.4 0-.4-.4-.4H1.7c-.2.2-.3.3-.3.5v3.8c0 .2.1.2.3.2h3.9c.3 0 .4 0 .4-.4V8c.1-.3.5-.5.8-.5.3 0 .6.3.6.7v2.6c0 .2.1.2.2.2h4.1c.2 0 .3-.1.3-.3V8.2c0-.4.4-.7.8-.7.3 0 .6.4.6.8v2.5c0 .2 0 .3.2.3.6-.2 1.3-.1 2-.1zM1.4 14.5v1.8c0 .4 0 .4.4.4h3.9c.3 0 .3-.1.3-.3v-3.8c0-.2 0-.2-.2-.2H1.7c-.2 0-.3.1-.3.3v1.8zm10.5.1v-1.9c0-.1 0-.2-.2-.2H7.6c-.4 0-.4 0-.4.4v3.5c0 .4.1.4.5.4h3.9c.2 0 .2 0 .2-.2.1-.8.1-1.4.1-2zm-8.2 3.5h-2c-.2 0-.3.1-.3.3v3.8c0 .2.1.2.2.2h4.1c.2 0 .3 0 .3-.3v-3.8c0-.2-.1-.2-.2-.2H3.7zm6 4.3s0-.1 0 0h2c.2 0 .2 0 .2-.2v-3.9c0-.2 0-.2-.2-.2H7.6c-.2 0-.3.1-.3.3v3.7c0 .2.1.3.2.3h2.2zm11.8-2.5c.2-.2.3-.3.6-.4.4-.1.9.2.9.7 0 .2-.1.4-.2.6l-1.3 1.3c-.2.2-.5.3-.9.2-.2-.1-.4-.5-.4-.8v-1.3c0-.4-.1-.9 0-1.3s.4-.6.8-.6c.3 0 .6.4.6.7-.1.2-.1.5-.1.9z"/></svg>