<svg version="1.1" id="Слой_1" xmlns="http://www.w3.org/2000/svg" x="0" y="0" viewBox="0 0 81.7 107.5" xml:space="preserve"><path fill="#C41F2D" d="M0 5.7v96c0 3.9 1.9 5.8 5.8 5.8h70.1c3.9 0 5.8-1.9 5.8-5.8v-96c0-3.8-1.9-5.7-5.8-5.7H5.8C1.9 0 0 1.9 0 5.7z"/><path fill="#FFF" d="M34.3 35.5c.3-.4.1-13.5.1-15.2v-7.8c0-1-.2-7.4.4-7.4h12.4v.2h.2v29.6h-.2l.1.2.4.4V4.9H34.3v30.6zm14.9-5.4v3.8h4.5c.8 0 4-2.9 4.6-3.5 1.7-1.7 2.2-2.6 3.6-4.6 1.1-1.7 2-3.1 3.3-4.8.5-.7 1.3-1.5 2-2 .4-.3 2.2-1.5 2.4-1.7-.3-.4-3.6-3.8-3.9-3.8-.5 0-4 3-4.6 3.6-1.3 1.4-2.3 3.1-3.5 4.8-1.2 1.9-2 3-3.7 4.5-.9.8-1.4 1.2-2.3 1.9-.4.2-2.4 1.5-2.4 1.8zM17.5 12.5c0 .4 2.8 3.4 3.3 3.8 1.2 1.3 2.5 2.3 4.1 3.1 1.4.8 2.9 2 4.2 3.1.5.4 3.4 3.4 3.7 3.5v-7.4c0-1.2-4.3-4.1-5.2-4.8-1-.6-2-1.3-2.9-2.1-.8-.6-2.1-1.9-2.7-2.3-.5.3-4.5 2.8-4.5 3.1zm31.7 7.9v6.5c.6-.1 3.5-2.7 4.1-3.2 1.2-1.2 2.4-2.7 3.3-4.2.9-1.4 2.1-3 3.2-4.1 1.6-1.6 2.5-2 4.3-3.2-.3-.4-4.4-3.2-4.8-3.2-.4 0-2.7 1.9-3.2 2.2-.7.6-2 2.1-2.5 2.8-.8 1.1-1.5 2.1-2.2 3.3-.2.4-2.2 3-2.2 3.1zm-37.1-2.7c0 .9 2.9 4 3.6 4.7 1.3 1.4 3.3 2.3 5 3.4 1.8 1.3 3 2.1 4.6 3.7.5.5 3.8 4.4 4 4.4h3.5v-4.3c0-.5-3.2-3.9-3.7-4.4-1.5-1.5-2.9-2.5-4.6-3.6-1.7-1.1-3.3-2-4.7-3.4-.8-.7-3.5-3.5-3.7-4.4-.5 0-4 3.7-4 3.9zM7.8 24c0 1.2 3.8 5 4.8 5.8 1 .8 2.1 1.3 3.3 2 .4.2 3 2.1 3.1 2.1h7c-.1-.6-2.6-3.7-3.1-4.2-1.3-1.3-2.9-2-4.4-3-1.7-1.1-2.9-1.8-4.4-3-.6-.5-2.9-3.5-3.1-4.3-.5 0-1.5 1.6-1.8 2.1-.2.3-1.4 2.2-1.4 2.5zm49.8 9.9h7.5c.7 0 3.9-4.4 4.4-5.2.7-1 1.3-1.8 2.2-2.7.3-.3 2.3-2.2 2.3-2.5s-2.7-4.3-3-4.3h-.1c-.8 0-3.4 2.5-3.9 3.1-1.1 1.1-2.2 2.6-3.1 3.9-.8 1.3-1.8 3.1-2.9 4.1-.4.4-3.4 3.4-3.4 3.6z"/><path fill="#FFF" d="M34.4 35.5H3.8v13.4h30.6v30.5h13.1v-.1l-.2-.3c.2-.1.1.2.1-.2V49.2h-.1v-.6c.2 0 .3.1.6.1h29.9c.3 0 .3-.1.4-.2l.1-12.9-30.6-.1-.4-.4v-.3h.1V5.3h-.1v-.1H34.8c-.6 0-.4 6.3-.4 7.3v7.7c0 1.8.2 14.9 0 15.3z"/><path fill="#FFF" d="M16.5 71c.6 0 4-3.2 4.5-3.8 1.4-1.4 2.6-3 3.7-4.7 1.2-1.9 2.1-3 3.7-4.6.7-.8 1.4-1.3 2.1-2 .3-.3 2.3-1.6 2.3-1.9v-3.6h-4.7c-.5 0-3.8 3.2-4.3 3.7-1.1 1-3.1 3.2-3.7 4.5-.7 1.3-2.4 3.7-3.3 4.8-.7.7-1.3 1.4-2.1 2-.1.2-2.1 1.8-2.1 1.8.3.5 3.6 3.8 3.9 3.8zm32.7-13.2v7c0 1.4.5 1.3 1.2 2.3.4.6 1.2 1.3 1.7 1.7 1.1.9 3 2 4.3 2.8.7.4 1.3.9 2 1.5.2.2 1.6 1.8 1.6 1.8.5 0 4.6-2.8 4.6-3.1 0-.6-2.8-3.5-3.4-4-.7-.5-1.4-1.1-2.1-1.6-.8-.5-1.5-.9-2.3-1.4-1.5-.9-2.9-2-4.2-3.2-.6-.7-1.1-1.2-1.7-1.9-.3-.3-1.5-1.8-1.7-1.9zm7.2-7.4c1.2 2.9 5 5.3 7.6 7 .7.6 1.6 1.1 2.2 1.5.8.6 1.3 1.2 2 1.7.7.6 1.2 1.3 1.8 1.9.4.4 1.3 1.9 1.5 2.1.5-.3 3-4.3 3-5 0-.1-2-2.6-2.2-2.8-1-1-1.6-1.6-2.7-2.4-.9-.7-2.1-1.3-3.1-2-.3-.2-2.9-2-3-2h-7.1zM11.1 65.3c3-1.6 5.3-4.5 7.1-7.4.9-1.4 2.1-3 3.2-4.1.5-.5 3.7-3.2 3.7-3.4h-8.5c-.7 0-3.7 4.4-4.2 5.2-.7 1.3-3.2 4.5-4.5 4.9.1.7 2.7 4.5 3.2 4.8zM49.2 54c0 .7 3 4.2 3.6 4.7 1.8 1.8 2.7 2.4 4.7 3.8 1.8 1.1 3.3 2.2 4.8 3.6.8.7 1.4 1.3 2.2 2 .5.5 1.7 1.9 2.1 2.1.3-.5 3.5-3.3 3.5-3.8 0-.8-2.9-4-3.6-4.5-1.6-1.2-2.9-2.3-4.7-3.4-1.6-1.1-3.3-2.2-4.6-3.5-.7-.7-3.4-3.8-3.6-4.6h-4.4V54zM23 75.4c2.2-1.5 3.9-2.9 5.5-5.1.5-.6 4.3-6 4.3-6.4V57c-.5.1-3.7 2.9-4.1 3.4-1.3 1.6-2.1 2.5-3.2 4.4-1.1 1.8-1.8 2.7-3.3 4.2-.7.7-1.3 1.2-2.1 1.7-.5.4-1.9 1.2-2 1.7.8.2 3.4 2.7 4.9 3z"/><path fill="#FFF" d="M34.3 79.4l13.4.1V48.9h30.6V35.6l-.1 12.9c-.2.1-.2.2-.4.2H47.9c-.3 0-.4-.1-.7-.1v.6h.2v29.6c0 .4.1.1-.1.2l.2.3v.1H34.3zm7.5 5.9h1.8v2.4h-1.8zm11.7 9.1c0-.6.8-1.5 1.2-1.8.5-.4 1.4-.7 2.2-.7h1.6c1.1 0 2.5 1.2 2.5 2.3v.7c0 1.3-1 1.4-2.2 1.7-1.1.2-2.3.1-3.4.4-1.1.2-1.9.5-2.7 1-.5.4-1.5 1.5-1.5 2.3v1.6c0 1.6 2.2 3.2 4 3.2h.4c1.5 0 2.2-.2 3.3-.6.9-.4 1.9-1.5 2.2-1.6v.7c0 .7.8 1.4 1.5 1.4h.8c.4 0 .3-.2.7-.2h.3v-1.3c-.5 0-.7.2-1.1.2-.9 0-.6-2.7-.6-3.7v-4.2c0-1.3-.1-2.6-.6-3.5-.8-1.3-1.4-1.1-2.4-1.7l-1.8-.2h-1c-2.7 0-5.1 1.8-5.1 4.6h1.7v-.6zm2.6 9.3zm0 0H56c-1.7 0-3.1-.9-3.1-2.5v-.4c0-1.4 1.8-2.4 3.2-2.5.8 0 1.8-.3 2.5-.3 1.1 0 1.6-.4 2.4-.6v2.9c0 .9-1 2-1.7 2.4-.8.6-2 1-3.2 1zm-20.2-5.6c0-3.3.9-5.9 4.2-5.9h.5v-1.8h-.3c-1.3 0-2.1.3-2.9.8-1 .7-.9 1.4-1.5 2.1v-2.5h-1.6v14h1.6v-6.7zm30.4-4c0-1.2 1.3-2.2 2.4-2.2h1.7c1.2 0 2.8 1.4 2.8 2.5v.4h1.7c0-1.5-.8-2.6-1.6-3.3-.8-.8-2.1-1.1-3.8-1.1h-.7c-2 0-4.2 1.6-4.2 3.6v1.1c0 2.1 2.5 2.7 4.3 3.1 1.5.4 4.7.9 4.7 2.6v.6c0 .5-.7 1.4-1.2 1.7-.6.3-1.2.6-2.1.6h-1.2c-1.6 0-3-1.8-3.2-3.3h-1.6c0 2.5 2.1 4.7 4.6 4.7H71c.6 0 2.5-.8 2.8-1.1.6-.4 1.5-1.5 1.5-2.3v-1.1c0-1.5-1.5-2.5-2.6-3-.5-.2-3.6-1.1-4.2-1.1-.9-.6-2.2-.7-2.2-2.4zM8.4 97.4c0-1.3.7-3.1 1.3-3.9.7-1 1.8-1.6 3.5-1.6h.6c1.6 0 3.5 1.9 3.5 3.3H19c0-1.4-1-2.8-1.7-3.5-.7-.8-2.2-1.3-3.8-1.3h-.7c-1.8 0-3.4.9-4.2 2-.7.8-1.8 2.9-1.8 4.4v1.9c0 3.5 2.4 6.4 6 6.4h1.1c2.7 0 5.3-2.7 5.3-5.2h-1.5c-.3 0-.5 1.3-.7 1.5-.1.4-.6 1-.8 1.2-.7.7-1.8 1.1-3.1 1.1-2.8 0-4.7-2.7-4.7-5.4v-.9zM22.2 95c.4 0 .2-.7.5-1.2.2-.4.4-.7.7-1 .6-.5 1.5-.9 2.5-.9h1c1.8 0 3 .8 3 2.7v.2l-.1 1.1c-.4.1-.5.3-1.2.5-.5.1-1.1.1-1.6.2-.6.3-2.3.2-3.1.5-1 .3-1.7.5-2.5 1.1-.5.4-1.3 1.5-1.3 2.3v1c0 1 .5 1.8 1 2.3.8.8 1.3.7 2 1.2l1.6.2h.5c.8 0 2.3-.4 2.8-.8.4-.3.7-.4 1.1-.7.2-.2.7-.6.9-.8 0 1.5.7 2.1 2.1 2.1.5 0 .9-.2 1.2-.3v-1.2l-1 .1c-.2 0-.2 0-.5-.1-.1-1.4-.2-2.7-.2-4.4 0-1.5.1-3.3 0-4.7-.2-2.9-2-4-5.1-4s-5.7 1.5-5.7 4.6h1.4zm-.3 5.8zm0 0c0-1.7 1.7-2.3 3.2-2.5.8-.1 1.8-.1 2.6-.3.6-.1 2.1-.5 2.3-.5v2.6c0 .2-.1.2-.2.4v.3c-.7 1.2-.5 1.4-1.8 2.1-.8.5-1.8.8-3.1.8s-3-.8-3-2v-.9zm20-10h1.6v14h-1.6zm6.3 1.3h2.6v-1.3h-2.6v-4h-1.7v4h-1.9v1.4h1.9v10l.1 1.3c.5.9.5 1.6 2.2 1.6h1c.3 0 1.1-.1 1.1-.5v-1.1c-.6 0-.6.2-1.1.2h-.5c-.9 0-1.1-.7-1.1-1.6v-10z"/></svg>