<svg version="1.1" id="Слой_1" xmlns="http://www.w3.org/2000/svg" xmlns:xlink="http://www.w3.org/1999/xlink" x="0" y="0" viewBox="0 0 37.6 33.5" xml:space="preserve"><defs><path id="SVGID_1_" d="M0 0h37.6v33.5H0z"/></defs><clipPath id="SVGID_2_"><use xlink:href="#SVGID_1_" overflow="visible"/></clipPath><path clip-path="url(#SVGID_2_)" fill="#B11F2C" d="M14.7 28.6c.3 0 .7-.1 1-.4.8-.7 1.5-1.5 2.3-2.2.6-.6.6-1.5 0-2.1-.6-.6-1.5-.6-2.2 0-.7.7-1.5 1.4-2.2 2.1-.5.5-.6 1-.4 1.6.3.7.8 1 1.5 1m.4-6.9c0-.6-.3-1.1-.9-1.3-.6-.3-1.2-.1-1.6.3-.8.8-1.6 1.5-2.4 2.3-.6.6-.6 1.4 0 2 .6.6 1.5.6 2.1 0 .8-.7 1.5-1.5 2.3-2.2.4-.3.5-.7.5-1.1m6.8 6.6c0-.7-.3-1.1-.9-1.4-.6-.3-1.2-.2-1.6.2-.8.8-1.6 1.5-2.4 2.3-.6.6-.5 1.5.1 2.1.6.5 1.5.5 2.1 0 .8-.7 1.6-1.5 2.3-2.2.2-.3.3-.7.4-1M6.4 20.6c0 .7.3 1.1.9 1.4.6.3 1.1.2 1.6-.2.9-.8 1.7-1.6 2.6-2.5.5-.6.4-1.4-.2-1.9-.6-.6-1.5-.6-2.1 0-.8.7-1.5 1.5-2.3 2.2-.3.3-.5.7-.5 1M26.5 2.5c-.4 0-.9 0-1.3.1-2.3.3-4.4 1.1-6 2.7-2.1 1.9-4.2 4-6.2 5.9-.3.2-.2.3.1.5 1.6.7 3.4.4 4.7-.8 1.3-1.3 2.7-2.6 4-3.8.5-.4.9-.5 1.4 0 .4.3.7.7 1.1 1.1 1.9 1.8 3.8 3.7 5.7 5.5 1.2 1.2 2.5 2.4 3.7 3.6.2.2.2.1.4 0 .3-.4.5-.8.8-1.1 2-3.4 1.4-7.9-1.4-10.7-2.1-2.1-4.4-2.9-7-3m-15.2-.9c-2.7 0-4.9.8-6.7 2.4-2.5 2.2-3.2 5-2.8 8.1.4 2.5 1.5 4.6 3.4 6.3.2.2.3.2.5 0 .8-.7 1.5-1.5 2.3-2.2.8-.7 1.8-1 2.8-.8 1.5.3 2.4 1.3 2.6 2.9 0 .2.1.3.3.3 1.7.1 2.9 1.3 3 2.9 0 .2.1.3.3.3.3 0 .7.1 1 .2 1.2.5 1.9 1.4 2 2.7 0 .2 0 .3.3.3 1 0 1.8.5 2.4 1.2.2.2.5.4.7.6 1 .5 2.2-.2 2.2-1.3 0-.5-.3-.9-.6-1.2-1.6-1.5-3.2-3.1-4.8-4.6-.6-.6-1.2-1.2-1.9-1.8-.3-.2-.4-.5-.2-.9.1-.3.4-.5.7-.5.3-.1.6.1.8.3 1.6 1.5 3.2 3.1 4.8 4.6.7.7 1.4 1.4 2.1 2 .6.6 1.6.5 2.1-.1.6-.6.6-1.5-.1-2.1l-.5-.5-6.3-6c-.2-.1-.3-.3-.3-.5-.1-.4.1-.7.4-.9.4-.2.8-.1 1.1.2 1.8 1.7 3.6 3.5 5.4 5.2.5.5 1 .9 1.5 1.4.5.4 1 .5 1.6.3.6-.3.9-.7.9-1.4 0-.6-.3-.9-.7-1.3-2.1-2-4.3-4.1-6.4-6.1-1-.9-1.9-1.9-2.9-2.8-.2-.2-.3-.2-.5 0l-.6.6c-1.1 1-2 2.1-3.1 2.9-1.1.9-2.5 1.3-3.9 1.2-1.6-.1-2.9-.8-4-1.9-.2-.2-.2-.3 0-.5.2-.1.3-.3.4-.4 2.2-2.1 4.4-4.3 6.6-6.4.2-.2.2-.3 0-.4-1.5-1.4-3.6-2.2-5.9-2.3m.1-1.6c2.6.1 5.2 1 7.4 3 .2.1.3.2.6 0C21.6 1.6 24 .9 26.7.9c4.6 0 8.4 2.5 10.1 6.6 1.5 3.7 1 7.2-1.4 10.5l-.1.1c-.5.5-.9 1.1-1.1 1.8-.3 1.3-1.4 2.1-2.8 2.2-.3 0-.4.1-.4.4-.1 1.5-1.3 2.8-3.1 2.9-.2 0-.3.1-.3.3-.2 1.9-1.7 3.1-3.7 2.9-.2 0-.4 0-.4.3-.1.6-.5 1.1-1 1.6-.8.7-1.5 1.4-2.2 2.1-1 .9-2.1 1.1-3.4.7-1.2-.5-1.9-1.4-2.1-2.7 0-.3-.1-.4-.4-.4-1.6-.1-2.7-1.2-3-2.6-.1-.4-.2-.6-.6-.6-1.5-.2-2.7-1.3-2.8-2.8 0-.3-.2-.4-.4-.4-.9-.1-1.7-.5-2.3-1.2-.5-.6-.7-1.2-.7-2 0-.3-.1-.5-.3-.7-1.1-1-2.1-2-2.8-3.3C-.4 13.1-.8 9.5.9 5.9 2.2 3.6 4 2 6.4 1c1.5-.7 3.1-1 5-1"/></svg>