<svg version="1.1" id="Слой_1" xmlns="http://www.w3.org/2000/svg" x="0" y="0" viewBox="0 0 72.9 58.4" xml:space="preserve"><path d="M10.8 44c.4 0 .5-.3.6-.4l8.8-8.8c.6-.6 1.2-.8 2-.8h2.4c1.2 0 2 .7 2 1.7 0 1.1-.7 2-1.9 1.8-1.7-.2-2.8.5-4 1.7-3.3 3.4-6.7 6.7-10 10-.7.8-1.4 1.2-2.4.8-1-.4-1.1-1.3-1.1-2.2v-9.5c0-.6-.2-.8-.8-.8H3.8C1.6 37.4 0 35.7 0 33.4v-29C0 1.7 1.7 0 4.3 0h48.3c2.8 0 4.5 1.6 4.5 4.5v10.9c0 1-.7 1.6-1.6 1.8-.8.1-1.6-.5-1.8-1.3-.1-.2-.1-.5-.1-.8V4.6c0-.9-.2-1.1-1.1-1.1H4.6c-.9 0-1.1.2-1.1 1.1v28.3c0 .9.1 1.1 1.1 1.1h4.1c1.4 0 2.1.7 2.1 2.1V44z"/><path d="M30.4 35.1c0-3.2.1-6.4 0-9.5-.1-2.4 1.5-4.6 4.6-4.6h17.7c5.2 0 10.4 0 15.6.1 2.8 0 4.5 1.7 4.5 4.5v19.3c0 2.7-1.7 4.5-4.4 4.4-.7 0-.9.1-.9.9.1 2.1 0 4.2 0 6.3 0 .9-.3 1.6-1.1 1.9-.8.3-1.5 0-2.1-.6L56.5 50c-.5-.5-.9-.6-1.5-.6H34.8c-2.7 0-4.4-1.7-4.4-4.5.1-3.3.1-6.6 0-9.8zm33.8 17.2v-4.6c0-1.2.6-1.9 1.9-1.9h2.3c1 0 1.1-.1 1.1-1.1V25.6c0-1-.1-1.1-1.1-1.1H35.2c-1.1 0-1.2.1-1.2 1.2v19.5c0 .4.2.6.6.6H56c1 0 1.8.3 2.6 1.1 1.6 1.7 3.3 3.4 5 5 .1.1.2.4.6.4zM28.5 14.9H13.2c-1.4 0-2.3-.9-2-2.2.2-.7.6-1.2 1.3-1.3.4-.1.8-.1 1.1-.1h29.7c.3 0 .6 0 .9.1 1 .1 1.7.9 1.7 1.8s-.8 1.7-1.7 1.7H28.5zm-9.7 11.4h-5.7c-1.4 0-2.2-1.1-1.9-2.3.2-.8 1-1.3 2.1-1.3h11.2c.7 0 1.3.2 1.7.8.4.6.5 1.2.2 1.8-.3.7-1 1-1.7 1h-5.9z"/><path d="M42 35.2c0-1 .7-1.8 1.7-1.8.9 0 1.7.8 1.7 1.7 0 .9-.8 1.8-1.8 1.8-.8 0-1.6-.8-1.6-1.7zm7.9-.1c0-1 .7-1.7 1.7-1.7s1.8.8 1.8 1.7c0 .9-.8 1.7-1.7 1.7-.9.1-1.8-.7-1.8-1.7zm9.7-1.7c1 0 1.7.7 1.7 1.7s-.8 1.8-1.7 1.8c-1 0-1.8-.8-1.7-1.8 0-.9.8-1.7 1.7-1.7z"/></svg>