<svg version="1.1" id="Слой_1" xmlns="http://www.w3.org/2000/svg" xmlns:xlink="http://www.w3.org/1999/xlink" x="0" y="0" viewBox="0 0 39.4 37" xml:space="preserve"><defs><path id="SVGID_1_" d="M0 0h39.4v37H0z"/></defs><clipPath id="SVGID_2_"><use xlink:href="#SVGID_1_" overflow="visible"/></clipPath><path clip-path="url(#SVGID_2_)" fill="#B11F2C" d="M25.4 28.1c-.2.4-.6.8-1 1-.1.1-.1.2-.1.4v1.7c0 1.3.1 2.6-.1 3.9 0 .2.1.4.4.4.5.1.8-.2.8-.7v-6.7m1.4 2.9v4.1c.1.3.3.5.7.5.3 0 .5-.2.6-.5.1-.7.2-1.4.2-2.1.2-1.9.4-3.9.6-5.8 0-.3-.1-.4-.3-.4h-1.4c-.4 0-.5.1-.4.5V31M20 12.8c-1.3 0-2.2 1-2.2 2.2 0 1.2.9 2.2 2.2 2.2 1.2.1 2.3-1 2.3-2.2 0-1.3-1-2.2-2.3-2.2m-2.1 18.9v2.8c0 .2 0 .5.2.7.3.3.7.4 1.1.3.4-.1.6-.4.6-.8v-5.3c0-.5.4-.8.8-.8.3.1.5.3.6.8v5.2c0 .6.4.9 1 .9.5 0 .8-.4.8-.9v-5.9c0-.5.2-.7.7-.8.4-.1.6-.2.6-.7v-4.5c0-1.4-1.1-2.7-2.5-2.9-.7-.1-1.3-.1-2-.1-1.5.1-2.9 1.3-2.9 2.7-.1 1.6 0 3.3 0 4.9 0 .3.2.5.5.5.6.1.8.3.8 1-.3 1.1-.3 2-.3 2.9m-9.7-14v-3.6c0-.2 0-.4.1-.6.2-.4.7-.5 1.1-.2.2.2.2.4.2.6 0 2.9.1 5.8-.1 8.8-.1 1.5-.1 3-.2 4.5 0 .7 0 1.3-.1 2-.1 1.7-.2 3.4-.2 5.1 0 .7.5 1.2 1.1 1.2.7 0 1.3-.4 1.3-1.2.1-1.5.2-3 .2-4.4.1-1.8.2-3.5.2-5.3 0-.4 0-.8.1-1.1 0-.4.3-.5.6-.5s.6.2.7.5c0 .2.1.4.1.6 0 .8.1 1.6.1 2.3.1 2.4.2 4.9.4 7.3 0 .3 0 .7.1 1 .2.6.8.9 1.4.8.5-.1 1-.7 1-1.2v-4.8c0-.2-.1-.3-.2-.4-.8-.4-1-1.1-1-1.9v-4.1c0-1.7.7-3 2.1-3.9 1.3-.9 2.9-.8 4.3-.6 2.3.3 3.8 2.2 3.8 4.6v1.9c0 .3.1.4.4.4h5.8c.2 0 .3-.1.2-.3v-.3c-.2-1.6-.4-3.2-.7-4.8-.3-2.1-.6-4.3-.9-6.4-.1-.5.1-.9.5-1 .4-.1.7.2.8.7.2 1.2.3 2.4.5 3.6.2 1.6.4 3.2.7 4.8 0 .1 0 .2.1.3.1 0 .2-.1.3-.2.3-.4.5-.8.5-1.3 0-.4-.1-.9-.2-1.3-.3-1.8-.6-3.7-.8-5.5-.3-2.4-2.1-4.1-4.5-4.1h-2.4c-1.6 0-2.8.7-3.7 2-.2.2-.2.4.1.6 1.1.8 1.6 1.9 1.4 3.3-.2 1.5-1.6 2.8-3 3-2 .2-3.3-1-3.8-2.5-.4-1.5 0-2.7 1.2-3.7.1-.1.2-.2.1-.4-.7-1.5-1.9-2.2-3.5-2.3h-3.9c-1.3 0-2.3.6-3.1 1.7-.8 1.2-1.1 2.4-1.1 3.8v6.3c0 .3.1.6.4.8.6.4 1.4 0 1.4-.8.1-1.3.1-2.5.1-3.8M35 20c0 .7.1 1.3-.3 2-.3.6-.8 1.1-1.4 1.4-.2.1-.3.2-.3.5.1.4.1.9.2 1.3.1 1-.5 1.6-1.4 1.6h-1.2c-.2 0-.3.1-.3.3-.2 1.6-.4 3.2-.5 4.9-.1 1.1-.2 2.2-.4 3.4-.2 1.4-1.8 2.2-3 1.4-.2-.2-.4-.1-.6 0-.7.4-1.5.5-2.2 0-.2-.1-.3-.1-.5 0-.9.5-1.7.5-2.5-.1-.2-.1-.3-.1-.5 0-.9.6-1.9.6-2.8-.1-.2-.1-.3-.2-.5-.1-1.5 1.1-3.1.7-4-.9 0 0-.1-.1-.1-.2-.2.4-.4.8-.8 1-.8.7-1.8.8-2.7.4-1-.4-1.5-1.2-1.5-2.3 0-.8 0-1.5.1-2.3.1-.8.1-1.5.1-2.3.1-1.5.1-3.1.2-4.6 0-.5 0-.9.1-1.4 0-.2-.1-.3-.3-.3-1.7.4-2.9-1-2.9-2.3V15c0-1.6.4-3.2 1.4-4.5 1-1.4 2.4-2.2 4.2-2.2h3.9c2 0 3.5 1 4.5 2.7.1.2.2.5.3.5.3.1.7 0 1 0 .1 0 .2-.1.2-.2 1.2-2 2.9-3 5.2-3h2.5c2.7 0 5.1 2 5.6 4.7.3 1.7.5 3.5.8 5.2.2.6.3 1.2.4 1.8M12.7 6.3c1.4 0 2.5-1.1 2.5-2.5s-1.1-2.5-2.5-2.5-2.5 1.1-2.5 2.4c0 1.5 1.1 2.6 2.5 2.6M8.9 3.9c0-2.1 1.7-3.9 3.9-3.8 2.1 0 3.8 1.6 3.8 3.9 0 2.2-1.8 3.8-3.9 3.9-2.1-.2-3.8-1.9-3.8-4m17.8 2.4c1.4 0 2.5-1.1 2.5-2.5s-1.1-2.5-2.5-2.5-2.5 1.1-2.5 2.5c0 1.5 1.1 2.5 2.5 2.5m-3.8-2.4c0-2.1 1.7-3.9 3.8-3.9 2.1 0 3.8 1.7 3.8 3.8 0 2.1-1.7 3.9-3.8 3.9-2.1 0-3.8-1.7-3.8-3.8M0 19.1v-.7c0-.3.3-.6.6-.6s.7.2.7.6v1.5c0 .3-.3.6-.7.6-.3 0-.6-.3-.6-.6v-.8m39.4 0v.6c0 .4-.3.6-.6.7-.4 0-.7-.2-.7-.6v-1.5c0-.4.4-.6.7-.6.3 0 .6.3.6.7v.7zm-34.9 0v.6c0 .4-.3.6-.6.7-.3 0-.7-.2-.7-.6v-1.5c0-.3.4-.6.7-.6.3 0 .6.3.6.7v.7zM35 20v-1.4c0-.4.3-.7.7-.7.4 0 .6.3.6.7v1.1c0 .4-.1.7-.5.8-.4 0-.6-.2-.8-.5"/></svg>