<svg version="1.1" id="Слой_1" xmlns="http://www.w3.org/2000/svg" x="0" y="0" viewBox="0 0 75.9 75.9" xml:space="preserve"><path d="M38 0h16.5c12.4 0 21.4 8.9 21.4 21.3.1 11.1.1 22.2 0 33.3 0 10.4-6.5 18.6-16.2 20.7-1.7.4-3.5.6-5.2.6h-33C9 75.9.1 67 0 54.6V21.3C0 10.9 6.5 2.7 16.2.6 18 .2 19.7 0 21.5 0H38zm33.7 38V20.7c-.1-9.3-7.1-16.4-16.3-16.5-11.6-.1-23.2-.1-34.8 0-9.3 0-16.4 7.2-16.4 16.4v34.7c0 9.4 7.1 16.4 16.5 16.5h34.5c9.5 0 16.5-7.1 16.6-16.6 0-5.8-.1-11.5-.1-17.2z"/><path d="M52.1 62.1v10.3c0 2.1-1.2 3.5-3.4 3.5-3.2.1-6.5.1-9.7 0-2.2 0-3.4-1.4-3.4-3.8V52c0-1.9 0-1.9-1.9-1.9h-3.4c-2.2 0-3.6-1.2-3.6-3.4-.1-3.1-.1-6.2 0-9.3.1-2.2 1.4-3.4 3.6-3.5 1.3 0 2.5-.1 3.8 0 1.1.1 1.6-.3 1.6-1.5-.1-2.6-.1-5.1.5-7.7 1.6-7.3 7.4-11.9 14.8-11.9h8.6c2 0 3.2 1.1 3.3 3.1.1 3 .1 5.9 0 8.9 0 2-1.4 3.3-3.4 3.4-1.8.1-3.7.1-5.5 0-1 0-1.5.4-1.7 1.4-.7 3.9-.4 4.3 3.5 4.3h3.1c2.2.1 3.5 1.2 3.6 3.3.1 3.2.1 6.4 0 9.6-.1 2-1.5 3.2-3.7 3.2-1.8 0-3.6.1-5.3 0-1.1 0-1.4.4-1.4 1.4.1 3.5 0 7.1 0 10.7zm-12.4-2.6v10.7c0 1.3.4 1.7 1.6 1.6 1.6-.1 3.2 0 4.8 0 2 0 2 0 2-2V49.6c0-2.8.8-3.5 3.6-3.6H57c.9 0 1.4-.3 1.3-1.3-.1-1.8-.1-3.7 0-5.5 0-1-.4-1.3-1.3-1.3h-6c-1.9 0-2.7-.7-2.9-2.7-.2-2.3-.1-4.6.2-6.9.3-2.2 1.7-3.6 3.9-4.1 1.7-.4 3.5-.3 5.2-.3.9 0 1.4-.3 1.4-1.3v-4.9c0-.9-.3-1.3-1.2-1.2h-5.9c-6.9.1-11.7 4.9-11.9 11.8V35c0 2-.9 2.8-2.9 2.8H32c-.8 0-1.2.3-1.2 1.2v5.6c0 1 .4 1.3 1.4 1.3h4.5c2.3.1 3.1.9 3.1 3.2-.1 3.5-.1 7-.1 10.4z"/></svg>