<svg version="1.1" id="Слой_1" xmlns="http://www.w3.org/2000/svg" x="0" y="0" viewBox="0 0 63.2 58.6" xml:space="preserve"><path fill="#b0252d" d="M32.1 29.5h-2.8c-.2 0-.3.1-.4.2-2.5 2.6-5.1 5.1-7.6 7.8-1.3 1.4-1.3 2.5-.4 4.2.3.5.6 1 1.1 1.4l9.5 9.5.4.4c1.5 1.3 3 1.4 4.8.4.6-.3 1.2-.8 1.7-1.3 6-6.1 12.1-12.1 18.2-18.2.4-.4.4-.4.9 0l2.5 2.5c.2.2.2.4 0 .6-6.3 6.2-12.5 12.5-18.7 18.7-1.9 1.9-4.1 2.9-6.8 2.9-2.2 0-4.1-.8-5.6-2.2-2.2-2-4.3-4.2-6.4-6.3-1.4-1.4-2.8-2.8-4.1-4.2-1.4-1.6-2.3-3.4-2.4-5.6-.1-2 .5-3.8 1.7-5.4 1-1.3 2.2-2.4 3.4-3.6 1.8-1.9 3.6-3.7 5.4-5.5.6-.6 1.2-.9 2-.9h7.9c.5 0 .8-.2 1.2-.5 2.7-2.8 5.5-5.5 8.3-8.3.3-.3.5-.3.8 0 .8.9 1.7 1.7 2.5 2.6.3.3.3.4 0 .7L35.3 33.3c-1.1 1.1-2.2 2.1-3.2 3.2-.3.3-.5.3-.7 0-.8-.9-1.7-1.7-2.6-2.6-.3-.3-.2-.4 0-.7l3-3 .6-.6c-.2 0-.2-.1-.3-.1"/><path fill="#b0252d" d="M60.9 18.1h-1.8c-.4 0-.5-.1-.5-.5 0-1.5-.1-2.9-.5-4.3-1.3-3.8-3.7-6.5-7.4-7.9-1.4-.6-2.9-.8-4.3-.8-1.9 0-3.7.5-5.4 1.3-2.7 1.2-5 2.9-7.1 4.9-.7.6-1.2 1.3-1.8 2-.2.3-.4.2-.6 0-1.5-1.8-3.2-3.4-5.1-4.7-2.2-1.5-4.5-2.8-7.2-3.2-3.9-.7-7.2.2-10.2 2.6-2.3 2-3.6 4.5-4.2 7.4-.5 2.7.3 5 1.7 7.2 1.1 1.7 2.5 3.1 3.9 4.5l4.5 4.5c.3.3.3.4 0 .7-.9.9-1.8 1.7-2.6 2.6-.2.3-.4.2-.6 0-2.1-2.1-4.2-4.1-6.2-6.3-1.9-2-3.5-4.3-4.5-6.9-1.1-2.9-1-5.8-.2-8.8C1.9 8 4.6 4.6 8.6 2.3 10.8 1 13.3.2 15.9.1c5.2-.3 9.7 1.4 13.7 4.6.6.5 1.2 1 1.7 1.5.3.3.4.3.7 0 1.9-1.9 4-3.4 6.5-4.5C40.6.8 42.8.2 45.2.1c5.3-.3 9.8 1.5 13.5 5.4 2.6 2.7 4 6 4.5 9.7.1.8.1 1.7.1 2.5 0 .3-.1.5-.5.5-.7-.1-1.3-.1-1.9-.1z"/><path fill="#b0252d" d="M39.4 38.3c-.1-.1-.2-.1-.3-.2l-2.7-2.7c-.2-.2-.2-.3 0-.6 5.4-5.4 10.8-10.8 16.3-16.2.3-.3.5-.4.8 0 .8.9 1.7 1.7 2.5 2.6.2.2.2.4 0 .6L39.8 38c-.1.1-.2.3-.4.3m19.4-9.8c0 .2-.2.3-.3.4L50.4 37l-5.8 5.8c-.3.3-.5.3-.8 0-.8-.8-1.6-1.7-2.5-2.5-.3-.3-.3-.5 0-.8 3-3 6-5.9 8.9-8.9l5-5c.3-.3.5-.3.7 0 .8.9 1.7 1.7 2.5 2.6.2.1.4.2.4.3"/></svg>