<svg version="1.1" id="Слой_1" xmlns="http://www.w3.org/2000/svg" x="0" y="0" viewBox="0 0 75.9 75.9" xml:space="preserve"><path d="M38 0h16.5c12.4 0 21.4 8.9 21.4 21.3.1 11.1.1 22.2 0 33.3 0 10.4-6.5 18.6-16.2 20.7-1.7.4-3.5.6-5.2.6h-33C9 75.9.1 67 0 54.6V21.3C0 10.9 6.5 2.7 16.2.6 18 .2 19.7 0 21.5 0H38zm33.7 38V20.7c-.1-9.3-7.1-16.4-16.3-16.5-11.6-.1-23.2-.1-34.8 0-9.3 0-16.4 7.2-16.4 16.4v34.7c0 9.4 7.1 16.4 16.5 16.5h34.5c9.5 0 16.5-7.1 16.6-16.6 0-5.8-.1-11.5-.1-17.2z"/><path d="M58.6 38c0 11.3-9.3 20.6-20.6 20.6s-20.7-9.4-20.6-20.7c0-11.2 9.4-20.5 20.7-20.5 11.2 0 20.5 9.3 20.5 20.6zm-4.2-.1c0-9.3-7.2-16.5-16.5-16.4-9.2 0-16.4 7.2-16.4 16.4 0 9.3 7.2 16.5 16.4 16.5 9.3 0 16.5-7.2 16.5-16.5zm4.9-24.5c1.3 0 2.4 1.1 2.4 2.4 0 1.3-1.1 2.4-2.4 2.4s-2.4-1.1-2.4-2.4c0-1.3 1.1-2.4 2.4-2.4m0-3.5c-3.3 0-5.9 2.7-5.9 5.9 0 3.3 2.7 5.9 5.9 5.9 3.3 0 5.9-2.7 5.9-5.9.1-3.2-2.6-5.9-5.9-5.9z"/></svg>