<svg version="1.1" id="Слой_1" xmlns="http://www.w3.org/2000/svg" x="0" y="0" viewBox="0 0 323 435.1" xml:space="preserve"><path fill="#b0252d" d="M160.5.1C240-.7 309.9 58 321.6 138.9c3.7 25.3-.4 49.3-9.7 72.9-15.5 39.5-37.3 75.4-60.6 110.7-23.9 36.2-50.1 70.6-77.3 104.4-.9 1.2-1.9 2.3-2.9 3.4-6.1 6.7-13.9 6.4-19.7-.6C123.9 396.4 98 361.9 74 326c-23.2-34.6-45-70.1-60.8-108.8-7.9-19.5-14-39.5-13.2-61C1.5 119 13.9 86 37.8 57.7 63.9 26.7 97.3 8 137.4 1.6c1.2-.2 2.3-.3 3.5-.5 6.9-1 13.9-1.2 19.6-1zm.4 23.6c-5.9-.4-12.7.4-19.4 1.4-31.9 4.9-59.6 18.7-80.9 43-35 39.9-47.1 84.9-27.2 136.1 9.6 24.6 22.1 47.8 35.8 70.2 26.8 43.6 56.6 85.2 88.7 125 3.7 4.6 3.7 4.6 7.4-.1 24.6-31.1 48.2-63 70-96.1 19.4-29.4 37.6-59.4 51.4-91.9 9.4-22.1 14.8-44.7 11.4-69.1-9.4-67.2-68-118.4-137.2-118.5z"/><path fill="#b0252d" d="M230.9 148.5c0 37.7-29.9 68.1-67.2 68.1-37.2 0-67.5-30.5-67.5-67.9 0-36.9 30.5-67.3 67.6-67.4 36.7-.1 67 30.4 67.1 67.2zm-67.7 43.9c24.3.2 43.9-19 44-43 .1-24.2-18.9-43.6-43.2-43.8-24.3-.2-44.4 19.2-44 43.5.4 27.4 22.8 43.9 43.2 43.3z"/></svg>