<svg version="1.1" id="Слой_1" xmlns="http://www.w3.org/2000/svg" x="0" y="0" viewBox="0 0 225.2 172.2" xml:space="preserve"><g fill="#b0252d"><path d="M112.7 172.1h-79c-4.2 0-8.4-.3-12.4-1.2C8.7 167.9.2 157.2.2 144c0-37.3.6-74.6-.2-111.9C-.4 14.3 10.5-.1 32.3 0c22.5.1 45 0 67.5 0h92.5c7.7.1 15.3 1 21.7 6 7.2 5.7 11 13 11 22.4-.1 37.1-.6 74.3.2 111.4.4 18.3-10.8 32.6-32.5 32.4-26.7-.3-53.3-.1-80-.1zm-.4-14.1h82.5c11.4 0 16.5-5.2 16.5-16.4v-110c0-12.3-5-17.4-17.2-17.4h-163c-12.3 0-17.3 5-17.3 17.2v109c0 12.6 4.9 17.6 17.5 17.6h81z"/><path d="M199 32.3c0 2.3-2.6 4.4-5.1 6.7-16 14.4-31.9 28.8-48 43.1-2.3 2-2.7 3.2-.3 5.4 15.1 14.1 30.1 28.4 45 42.6 2.3 2.2 4.6 4.4 6.6 6.8 2.6 3.1 2.9 6.5-.1 9.4-3 2.8-6.4 2.8-9.4 0-7.6-7-15.2-14-22.7-21.1-9.8-9.3-19.6-18.6-29.2-28-2.4-2.4-4.1-2.6-6.5-.1-3.1 3.2-6.6 6.1-10 9.1-4.7 4.2-7.5 4.4-12.3.5-3.6-2.9-7.2-6-10.5-9.2-2.5-2.5-4.1-2.1-6.5.2-16.4 15.6-33 31-49.6 46.5-1 .9-1.9 1.9-3 2.6-3.1 2.1-6.4 2.3-9-.6-2.8-3-2.8-6.5.1-9.4 4.2-4.3 8.5-8.4 12.9-12.5 12.5-11.7 25-23.5 37.7-35 3.4-3.1 3.1-4.9-.2-7.8-16-14.4-31.9-28.7-47.8-42.9-1-.9-2-1.8-2.9-2.8-2.5-3-3.3-6.3-.4-9.5 2.8-3.1 6.3-3 9.4-.4 7.2 6.1 14.4 12.4 21.5 18.7 17 15.2 34 30.4 50.9 45.8 2.1 1.9 3.5 2.2 5.8.2 22.3-20.1 44.6-40.1 67-60.1 2.2-2 4.5-4.1 7.1-5.5 4.5-2.4 9.5.8 9.5 7.3z"/></g></svg>