<svg width="120" height="100" fill="none" xmlns="http://www.w3.org/2000/svg"><path d="M20.271 90.347c0-1.931-1.245-3.292-3.002-3.292-1.757 0-3.094 1.361-3.094 3.292 0 1.95 1.337 3.292 3.094 3.292 1.739 0 3.002-1.342 3.002-3.292zm2.087 0c0 3.09-1.958 5.276-4.65 5.276-1.574 0-2.783-.77-3.515-1.91V100h-2.068V85.291h2.068v1.728c.732-1.158 1.94-1.949 3.533-1.949 2.637 0 4.632 2.187 4.632 5.277zm9.482 0c0-1.931-1.337-3.292-3.093-3.292-1.759 0-3.002 1.361-3.002 3.292 0 1.95 1.262 3.292 3.002 3.292 1.756 0 3.092-1.342 3.092-3.292zm2.05-5.056v10.113h-2.07v-1.692c-.732 1.157-1.94 1.911-3.514 1.911-2.69 0-4.65-2.185-4.65-5.276 0-3.09 1.996-5.277 4.632-5.277 1.592 0 2.8.79 3.532 1.95v-1.73h2.069zm11.386 0L38.612 100h-2.215l2.654-5.884-3.97-8.825h2.213l2.856 6.582 2.91-6.582h2.216zm16.31 3.621v6.49h-2.07v-6.048c0-1.507-.603-2.299-1.995-2.299-1.628 0-2.47 1.27-2.47 3.108l.018 5.24h-2.087v-6.049c0-1.507-.603-2.299-1.995-2.299-1.63 0-2.453 1.27-2.453 3.108v5.24h-2.069V85.292h2.07v1.616c.695-1.159 1.683-1.839 3.128-1.839 1.539 0 2.62.754 3.113 2.115.677-1.306 1.812-2.115 3.404-2.115 2.124 0 3.406 1.435 3.406 3.843zm3.751.313h5.858c-.311-1.378-1.355-2.352-2.874-2.352-1.573 0-2.635.991-2.984 2.352zm8.074 1.693h-8.184c.165 1.857 1.466 2.885 3.15 2.885 1.208 0 2.213-.515 2.69-1.507h2.142c-.787 2.262-2.71 3.328-4.851 3.328-3.057 0-5.236-2.207-5.236-5.258 0-3.053 2.16-5.297 5.2-5.297 3.24 0 5.29 2.52 5.089 5.85zm10.615-1.894v6.38h-2.069v-5.958c0-1.563-.676-2.39-2.197-2.39-1.775 0-2.727 1.159-2.727 3.108v5.24h-2.067V85.29h2.067v1.673c.715-1.175 1.795-1.894 3.37-1.894 2.27 0 3.623 1.49 3.623 3.954zm9.373 5.865c-.549.33-1.72.735-2.874.735-2.069 0-3.68-1.306-3.68-4.1V87.24H84.98v-1.95h1.867v-2.298l2.067-.46v2.759h4.137v1.949h-4.137v4.173c0 1.47.678 2.28 1.978 2.28.64 0 1.354-.22 2.141-.497l.367 1.693zm.714-2.739h2.105c.312 1.12 1.135 1.636 2.874 1.636 1.335 0 2.159-.404 2.159-1.157 0-.847-.952-.976-2.636-1.38-2.819-.7-4.009-1.27-4.009-2.962 0-2.041 1.722-3.217 4.248-3.217 2.58 0 4.027 1.231 4.394 3.071h-2.089c-.291-.827-1.062-1.232-2.342-1.232-1.335 0-2.124.46-2.124 1.159 0 .643.624.808 2.38 1.232 2.728.643 4.302 1.12 4.302 3.088 0 2.17-1.941 3.237-4.32 3.237-2.654 0-4.559-1.287-4.942-3.475zM5.731 50.352c1.896-9.77 10.431-17.036 20.646-17.036 4.3 0 8.439 1.327 11.9 3.709l4.045-4.064a26.711 26.711 0 00-10.742-4.799C32.76 15.473 43.387 5.674 56.196 5.674c5.058 0 9.92 1.524 14.062 4.406a24.779 24.779 0 018.288 9.8A33.137 33.137 0 0065.2 26.972l4.006 4.024a27.416 27.416 0 0117.739-6.538c14.577 0 26.531 11.342 27.396 25.895H120a33.138 33.138 0 00-10.153-22.325c-6.191-5.96-14.324-9.242-22.901-9.242-.892 0-1.78.038-2.662.11a30.426 30.426 0 00-10.81-13.479A30.099 30.099 0 0056.196 0c-15.74 0-28.798 12.05-30.24 27.648C12.808 27.852 1.942 37.544 0 50.352h5.731z" fill="#6496DC"/><path d="M11.258 66.011c0-5.716 4.224-10.066 10.021-10.066 4.678 0 8.834 2.841 9.568 7.75h-5.134c-.593-2.103-2.41-3.12-4.434-3.12-3.037 0-4.993 2.244-4.96 5.436-.033 3.228 1.993 5.437 4.925 5.437 2.06 0 3.876-1.053 4.47-3.157h5.133c-.769 5.086-4.993 7.787-9.603 7.787-5.762 0-9.986-4.35-9.986-10.067zm21.926 9.646h4.993v-25.28h-4.993v25.28zm12.676-9.646c0 3.191 2.165 5.297 4.958 5.297s4.958-2.106 4.958-5.297c0-3.156-2.165-5.296-4.958-5.296s-4.958 2.14-4.958 5.296zm14.98 0c0 5.823-4.401 10.067-10.022 10.067-5.588 0-9.986-4.28-9.986-10.067 0-5.822 4.469-10.066 9.986-10.066 5.55 0 10.021 4.244 10.021 10.066zm20.214-9.644v19.289h-4.993V72.99c-1.397 1.963-3.282 3.087-5.936 3.087-4.225 0-6.843-2.912-6.843-7.611v-12.1h4.993V67.38c0 2.525.943 3.928 3.526 3.928 2.76 0 4.26-1.649 4.26-4.806V56.367h4.993zm17.702 9.645c0-3.157-2.13-5.297-4.923-5.297s-4.854 2.14-4.854 5.297c0 3.19 2.097 5.296 4.854 5.296 2.793 0 4.923-2.106 4.923-5.296zm4.993-15.636v25.28h-4.993v-2.594c-1.326 1.822-3.352 3.016-6.041 3.016-4.993 0-8.764-4.14-8.764-10.066 0-5.963 3.806-10.066 8.729-10.066 2.724 0 4.75 1.263 6.076 3.121v-8.691h4.993z" fill="#393962"/></svg>