<svg version="1.1" id="Слой_1" xmlns="http://www.w3.org/2000/svg" x="0" y="0" viewBox="0 0 224.7 224.8" xml:space="preserve"><g fill="#b0252d"><path d="M162.4 224.8c-13.9 0-25.5-3.4-36.5-8.3-55.5-24.8-95.7-64.8-119-121.2-5.4-13.2-8.7-27-5.9-41.5 1-5.4 3.2-10.3 6.8-14.3 6.5-7.3 13.2-14.6 20.7-21 9.4-8 21.4-7.8 30.4.7 9.6 9 18.9 18.3 27.9 28 9.1 9.8 8.8 22.1-.4 31.8-3.8 4-7.6 8-11.6 11.7-2.8 2.5-2.9 4.6-1.2 7.8 8 14.5 19.3 26.2 31.4 37.2 6.7 6 13.9 11.3 21.8 15.7 2.6 1.4 4.3 1.3 6.5-1 4.5-4.7 9.1-9.3 13.9-13.6 9-7.8 20.1-7.8 28.9.4 10.1 9.4 20.1 19 29.3 29.3 7.6 8.6 8.1 19.8.9 28.8-6.5 8.1-13.9 15.3-21.7 22-6.9 5.7-15.1 7.9-22.2 7.5zM14.5 64.6c-.5 9.2 2.3 17.4 5.4 25.5 12.1 31.3 31.9 57.3 56.8 79.3 20.8 18.3 44.2 32.7 71.4 39.8 11.1 2.9 22.1 3.8 31.2-5.7 4.8-5.1 9.8-10 14.6-15.1 4.7-5 4.7-9.1-.1-14a1485 1485 0 00-25.1-25.1c-5.5-5.4-9-5.3-14.6 0-5.2 5-10.2 10.1-15.3 15.1-3.9 3.8-8.5 4.5-13.3 2-28.9-15.1-51.1-36.9-66.4-65.7-4.3-8-3.1-11.8 3.6-18 4.6-4.3 9.2-8.7 13.6-13.3 4.1-4.3 4.4-8.3.6-12.4-9-9-17.8-18.1-26.9-26.9-5-4.8-8.7-4.5-13.9.4-4.5 4.3-8.6 8.8-13.1 13-6.4 5.8-9.6 12.7-8.5 21.1zm210.2 34.6c0 4-1.6 6.8-5.4 7.5-4.2.7-7.2-1.3-8.2-5.5-2.1-9.3-4.5-18.4-8.7-27-15.5-31.5-40.3-51.4-74.5-59.6-1.3-.3-2.6-.5-3.9-.9-4.8-1.4-6.9-4.2-6.2-8.2.8-4.1 4.2-6.3 9.2-5.2 5.7 1.2 11.5 2.3 16.9 4.4 43.4 16 70.3 46.6 80.3 91.8.3.9.4 1.9.5 2.7z"/><path d="M184.3 101.9c-.4 3.6-2 6.2-5.7 6.7-3.7.6-6.5-.9-7.8-4.6-1.5-4.4-2.3-9-4.2-13.3-8.1-18.3-21.6-30.3-41.1-35.4-7.9-2.1-10.5-4.6-9.3-9.7 1.1-4.7 5-6.1 12.9-3.9 28.6 7.9 46.6 26.3 54.3 54.9.4 1.8.6 3.6.9 5.3z"/></g></svg>