<svg version="1.1" id="Слой_1" xmlns="http://www.w3.org/2000/svg" x="0" y="0" viewBox="0 0 15.4 31" xml:space="preserve"><path d="M8.5 27.5H6.8c-1.8 0-3.3-1.5-3.3-3.3V6.8C3.5 5 5 3.5 6.8 3.5h1.6c1.8 0 3.3 1.5 3.3 3.3v17.4c.1 1.8-1.4 3.3-3.2 3.3z" fill="#fff"/><path d="M8.5 27.5H6.8c-1.8 0-3.3-1.5-3.3-3.3V6.8C3.5 5 5 3.5 6.8 3.5h1.6c1.8 0 3.3 1.5 3.3 3.3v17.4c.1 1.8-1.4 3.3-3.2 3.3z" fill="none" stroke="#c9c8c8" stroke-width=".75" stroke-miterlimit="10"/><path d="M6 24c-.2 0-.4-.2-.4-.4V8c0-.2.2-.4.4-.4s.4.2.4.4v15.6c0 .2-.2.4-.4.4zm1.7 0c-.2 0-.4-.2-.4-.4V8c0-.2.2-.4.4-.4.2.1.3.2.3.4v15.6c0 .2-.1.4-.3.4zm1.6 0c-.2 0-.4-.2-.4-.4V8c0-.2.2-.4.4-.4s.4.2.4.4v15.6c-.1.2-.2.4-.4.4z" fill="#c9c8c8"/></svg>