<svg version="1.1" id="Слой_1" xmlns="http://www.w3.org/2000/svg" x="0" y="0" viewBox="0 0 104.1 144.9" xml:space="preserve"><path d="M104.1 3v114.5c-.2.7-.1 1.5-.1 2.2-.1 2.4-1.6 4.1-3.7 4.3-.8.1-1.6.1-2.4.1-5 .1-10.1.1-15.1.2-.7 0-1 .2-.9.9v3.3c-.1 3.8.1 7.7-.1 11.5-.1 2-.7 3.6-2.5 4.7H51.5c-1.1-.7-1.8-1.8-2.4-3-.2-.4-.4-.7-.6-1-2.3-4-5.9-5.3-10.2-4.2-2.5.6-4.3 2.4-5.5 4.7-.8 1.4-1.6 2.7-3 3.6H2.5c-1.2-.6-2.1-1.5-2.5-2.8V24c1-1.9 2.7-2.7 4.7-2.7 1.2 0 2.3-.1 3.5-.1h13.2c.7 0 1-.2 1-.9 0-1.7.1-3.3.1-5 0-3.7 0-7.4.2-11.2C22.8 2 24.1.5 26.2.2 28 0 29.9.1 31.8.1 38 0 44.2.1 50.4 0c1 0 1.8.3 2.6.8.7.4 1.1 1 1.5 1.7.4.7.8 1.5 1.3 2.2C58 8 61.1 9.4 65 8.8c2.9-.4 4.7-2.3 6.1-4.7.3-.5.5-1.1.9-1.6C72.9 1 74.3 0 76.3 0 84 0 91.8 0 99.6.2c1.7 0 3 .6 3.9 2 .2.2.4.5.6.8zM31.6 84.5v29.6c0 .6 0 1 .8 1h14.4c.4 0 .7-.1 1-.5 4.1-6.5 11.6-9.8 19.2-8.2 5 1 8.8 3.9 11.6 8.1.3.5.7.7 1.2.7h14c1 0 1 0 1-1V55.6c0-1.6 0-1.6-1.4-2.2-1.3-.5-2.2-1.4-2.6-2.8-.5-2.4-.3-5 3.5-6 .6-.2.5-.5.5-.9V10.5c0-1.1-.1-1.1-1.2-1.1-4.3 0-8.5.1-12.8 0-1.4 0-2.2.4-3 1.5-4.7 6-10.8 8.6-18.3 7.1-4.8-.9-8.6-3.6-11.3-7.6-.4-.6-.8-1-1.6-1H32.5c-.9 0-1 .1-1 1v33.3c0 .7.1.9.9 1 2.3.2 4.3 2.6 4.2 4.7-.1 1.9-1.9 3.9-3.8 4.4-1.2.3-1.2.3-1.2 1.5v29.2zM8.9 83.2V135c0 .9.1.9 1 1h14.4c.5 0 .9 0 1.2-.5.4-.8 1-1.5 1.7-2.2 4.7-5.2 10.5-7.2 17.4-5.9 4.9.9 8.5 3.8 11.4 7.8.4.6.9.8 1.6.8h13.6c1 0 1.1 0 1.1-1.1 0-3.4-.1-6.9 0-10.3.1-1.6-.4-3-1.1-4.4-2-3.8-5.8-5.6-9.9-4.7-2.7.6-4.5 2.3-5.8 4.7-.4.7-.7 1.3-1.2 2-.7 1-1.7 1.7-3 1.9-.8.1-1.7.2-2.5.2H26.7c-1.8 0-3.7-1.6-4-3.4-.2-1.3-.2-2.7-.3-4-.1-5.6-.1-11.3-.1-16.9-.1-13 0-26 0-39V31.8c0-1.2 0-1.2-1.2-1.2H9.8c-.7 0-.9.2-.9.9v51.7z"/><path d="M49.1 49c0 2.4-2.2 4.7-4.6 4.7-2.4 0-4.5-2.2-4.5-4.7s2-4.6 4.6-4.6c2.4.1 4.5 2.2 4.5 4.6zm8.1-4.4c2.8 0 4.4 1.8 4.4 4.8 0 2.4-2.6 4.4-4.4 4.3-2.4 0-4.8-2.2-4.7-4.4.1-2.9 1.9-4.7 4.7-4.7zm12.5 0c2.9 0 4.4 1.7 4.5 4.8.1 2.2-2.5 4.3-4.3 4.3-2.4 0-4.9-2.1-4.8-4.6.1-2.7 1.8-4.5 4.6-4.5zm12.7-.1c2.3 0 4.5 2.3 4.5 4.5 0 2.7-2.1 4.7-4.9 4.6-2.3 0-4.4-2.2-4.3-4.7.1-2.4 2.3-4.4 4.7-4.4z"/></svg>