<svg version="1.1" id="Слой_1" xmlns="http://www.w3.org/2000/svg" xmlns:xlink="http://www.w3.org/1999/xlink" x="0" y="0" viewBox="0 0 34.5 34.5" xml:space="preserve"><defs><path id="SVGID_1_" d="M0 0h34.5v34.5H0z"/></defs><clipPath id="SVGID_2_"><use xlink:href="#SVGID_1_" overflow="visible"/></clipPath><path clip-path="url(#SVGID_2_)" fill="#B11F2C" d="M17.2 12.1h-6.9c-.3 0-.6.3-.6.6v15.5H7.5v-8.6H6.3v8.6H4v-15H2.9v6.3H1.7V14c0-1.7 1.4-3.1 3.1-3.1h12.5v1.2zm-4.6 21.2H1.1v-4h11.5v4zM6.9 5.2c1.3 0 2.3 1 2.3 2.3 0 1.3-1 2.3-2.3 2.3s-2.3-1-2.3-2.3c0-1.3 1-2.3 2.3-2.3m11.5 5.7v-.6c0-.3-.3-.6-.6-.6H9.5c1.3-1.4 1.2-3.6-.3-4.9-1.4-1.2-3.6-1.1-4.9.4-1.2 1.3-1.2 3.3 0 4.6-2.1.2-3.8 2-3.8 4.2v6.1c0 .3.3.6.6.6h1.7v7.5H.6c-.3 0-.6.3-.6.6V34c0 .3.3.6.6.6h12.6c.3 0 .6-.3.6-.6v-5.2c0-.3-.3-.6-.6-.6h-2.3v-15h6.9c.3 0 .6-.3.6-.6V12H31v-1.1H18.4z"/><path clip-path="url(#SVGID_2_)" fill="#B11F2C" d="M23 7.5h-8.6V5.2c0-.3-.2-.5-.4-.6l-1.1-.3 1.3-1c.1-.1.2-.3.2-.5V1.1H23v6.4zm.6-7.5h-9.8c-.3 0-.6.3-.6.6v2l-2.1 1.6c-.3.2-.3.5-.1.8.1.1.2.2.3.2l1.9.5V8c0 .3.3.6.6.6h9.8c.3 0 .6-.3.6-.6V.6c-.1-.3-.3-.6-.6-.6"/><path clip-path="url(#SVGID_2_)" fill="#B11F2C" d="M20.8 2.5L18.3 5 17 3.7l-.8.8L18 6.2c.1.1.3.2.4.2.2 0 .3-.1.4-.2l2.9-2.9-.9-.8zm5.6 30.8H23v-2.9c0-1 .8-1.7 1.7-1.7 1 0 1.7.8 1.7 1.7v2.9zm-1.7-8c.6 0 1.1.5 1.1 1.1s-.5 1.1-1.1 1.1c-.6 0-1.1-.5-1.1-1.1 0-.6.5-1.1 1.1-1.1m1.6 2.8c.9-.9.9-2.3 0-3.2-.9-.9-2.3-.9-3.2 0-.9.9-.9 2.3 0 3.2-.8.5-1.3 1.4-1.3 2.4v3.4c0 .3.3.6.6.6H27c.3 0 .6-.3.6-.6v-3.4c0-1-.5-1.9-1.3-2.4m7 5.2h-3.4v-2.9c0-1 .8-1.7 1.7-1.7 1 0 1.7.8 1.7 1.7v2.9zm-1.7-8c.6 0 1.1.5 1.1 1.1s-.5 1.1-1.1 1.1c-.6 0-1.1-.5-1.1-1.1-.1-.6.5-1.1 1.1-1.1m1.6 2.8c.9-.9.9-2.3 0-3.2-.9-.9-2.3-.9-3.2 0-.9.9-.9 2.3 0 3.2-.8.5-1.3 1.4-1.3 2.4v3.4c0 .3.3.6.6.6h4.6c.3 0 .6-.3.6-.6v-3.4c0-1-.5-1.9-1.3-2.4m-13.7 5.2h-3.4v-2.9c0-1 .8-1.7 1.7-1.7 1 0 1.7.8 1.7 1.7v2.9zm-1.7-8c.6 0 1.1.5 1.1 1.1s-.5 1.1-1.1 1.1c-.6 0-1.1-.5-1.1-1.1 0-.6.5-1.1 1.1-1.1m1.6 2.8c.9-.9.9-2.3 0-3.2-.9-.9-2.3-.9-3.2 0-.9.9-.9 2.3 0 3.2-.8.5-1.3 1.4-1.3 2.4v3.4c0 .3.3.6.6.6h4.6c.3 0 .6-.3.6-.6v-3.4c0-1-.5-1.9-1.3-2.4"/></svg>