<svg version="1.1" id="Слой_1" xmlns="http://www.w3.org/2000/svg" x="0" y="0" viewBox="0 0 75.9 75.9" xml:space="preserve"><path d="M38 0h16.5c12.4 0 21.4 8.9 21.4 21.3.1 11.1.1 22.2 0 33.3 0 10.4-6.5 18.6-16.2 20.7-1.7.4-3.5.6-5.2.6h-33C9.1 75.9.1 67 0 54.6V21.3C0 10.9 6.5 2.7 16.2.6 18 .2 19.7 0 21.5 0H38zm33.8 38V20.7c-.1-9.3-7.1-16.4-16.3-16.5-11.6-.1-23.2-.1-34.8 0-9.3 0-16.4 7.2-16.4 16.4v34.7c0 9.4 7.1 16.4 16.5 16.5h34.5c9.5 0 16.5-7.1 16.6-16.6-.1-5.8-.1-11.5-.1-17.2z"/><path d="M29.1 37.7V30c0-1.1-.6-2-1.2-2.8-.8-1.2-1.3-2.4-.6-3.8.8-1.4 2.1-1.8 3.6-1.8h7.9c2.8 0 4 1.1 4 3.9.1 2.9 0 5.8 0 8.8v1.2c.5.2.6-.2.8-.5 2.4-2.9 4.3-6.2 5.7-9.6 1.1-2.7 2.8-4.1 5.8-3.8 1.6.1 3.2 0 4.7 0 2.8 0 4.1 1.8 3.4 4.5-.4 1.8-1.4 3.4-2.3 5-1.5 2.8-3.2 5.4-5.1 8-.7.9-.5 1.4.2 2.2 2.5 2.6 5 5.1 7 8.2.7 1.1 1.4 2.3 1.4 3.7 0 2.1-1.2 3.6-3.3 3.6-2.3.1-4.7.1-7 0-1.5 0-2.6-.9-3.5-1.9-1.6-1.9-3.2-3.9-5.1-5.5-.8-.7-1.5-1.9-2.5-1.5-.6.2-.1 1.7-.2 2.6-.1.7 0 1.4 0 2.1 0 2.2-.8 3.4-3 3.9-3.4.8-6.8.3-10-1.1-4.9-2-8.6-5.5-11.8-9.6-4.2-5.4-7.3-11.3-9.2-17.9-.3-.9-.5-1.8-.5-2.7 0-2.1 1.2-3.5 3.2-3.5 2.3-.1 4.6-.1 6.9 0 1.6.1 2.7 1 3.3 2.4 1 2.4 1.9 4.8 3 7.1 1.2 2.3 2.5 4.6 4.4 6.5zm9.8-5.9v-5.4c0-.8-.2-1.1-1.1-1.1h-5.5c-1 0-1 .3-.5 1 .7 1.1 1.1 2.3 1.1 3.5.1 3.4.1 6.7 0 10.1 0 1.2-.4 2.4-1.8 2.9s-2.5 0-3.6-.9c-1.6-1.4-2.7-3-3.8-4.8-2-3.4-3.7-6.9-4.9-10.6-.3-.9-.9-1.3-1.8-1.3-1.1.1-2.3 0-3.4 0-1.4 0-1.5.1-1.2 1.5l.3 1.2c1.9 5.5 4.6 10.6 8.1 15.3 2.7 3.5 5.9 6.6 10 8.5 2.1 1 4.3 1.3 6.6 1.3 1.1 0 1.5-.5 1.5-1.6-.1-1.6-.1-3.2.1-4.9.4-2.2 1.9-3.3 4.1-2.9 1.2.2 2.2.8 3.1 1.5 2.4 1.8 4.4 4 6.4 6.3.7.7 1.3 1.6 2.4 1.6h4.6c.9 0 .9-.4.5-1l-1.2-1.8c-1.9-2.5-4.2-4.8-6.3-7.1-1.7-1.8-1.9-3.3-.5-5.4.7-1.2 1.6-2.3 2.3-3.4 1.6-2.6 3.3-5.1 4.6-7.9.4-.9.4-1.4-.8-1.3-1.1.1-2.2.1-3.2 0-1.2-.1-1.8.4-2.3 1.5-1.6 3.8-3.7 7.4-6.3 10.6-.9 1.1-1.9 2-3.1 2.7-2.2 1.2-4 .3-4.4-2.2-.2-2 .1-4.1 0-5.9z"/></svg>