<svg version="1.1" id="Слой_1" xmlns="http://www.w3.org/2000/svg" x="0" y="0" viewBox="0 0 116.4 111.1" xml:space="preserve"><path d="M81.3 93.5V80c0-1.5.4-2.6 1.3-3.7 8.4-9.9 16.8-19.9 25.2-29.8 1.5-1.8 2.7-3.6 2.2-6.2-.7-3.6-3.6-5-6.9-3.4-.9.4-1.6 1.1-2.3 1.9-3.8 4-7.7 8.1-11.7 12.2-9.4 9.8-20.9 14.2-34.3 13.3-10.5-.8-19.5-5.1-26.9-12.6-4.3-4.4-8.5-8.9-12.7-13.4-1-1.1-2.3-1.9-3.8-2.1-3.8-.5-6.4 3.2-4.9 7.2.4.9.9 1.6 1.5 2.3C16.6 56 25.3 66.3 34 76.5c.7.8 1.1 1.7 1.1 2.7v28.4c0 2.1-1.3 3.4-3.1 3.4s-3.1-1.4-3.1-3.5V82c0-1.5-.4-2.6-1.3-3.7-8-9.4-15.9-18.8-23.8-28.1C2 48 .5 45.7.2 42.8c-.5-4.5.9-8.3 4.5-10.9 3.7-2.8 7.8-2.4 11.8-.5 1.2.6 2.3 1.5 3.2 2.5 4.1 4.3 8.2 8.7 12.3 13 5.9 6.1 13 9.9 21.4 11 12.6 1.6 23.3-2.5 32-11.9 3.8-4.1 7.6-8.1 11.5-12.1 3.2-3.3 7.1-4.7 11.6-3.6 7.2 1.8 10.3 11 6 17.6-2.1 3.2-4.8 5.9-7.3 8.9-6.2 7.4-12.4 14.7-18.6 22-.7.9-1 1.7-1 2.8v26.7c-.2 1.7-1.5 2.9-3.1 2.8-1.6 0-2.9-1.3-3-3-.1-1.7 0-3.5 0-5.2-.2-3.1-.2-6.3-.2-9.4z"/><path d="M84.5 26.5c.2 13.5-10.7 26.1-25.9 26.3-16.4.2-26.4-13-26.8-25.4C31.3 12.5 43.3 0 58.5 0c14.2 0 26 11.9 26 26.5zm-6.1 0c.1-11-8.8-20.3-19.7-20.3-11.5-.1-20.4 8.6-20.7 19.7-.3 10.6 8.1 20.8 20.5 20.7 11.6-.1 19.9-9.6 19.9-20.1z"/></svg>