<svg version="1.1" id="Слой_1" xmlns="http://www.w3.org/2000/svg" x="0" y="0" viewBox="0 0 57.9 56" xml:space="preserve"><path d="M17 16.8h16.3c.4 0 .6.1.8.3.2.2.1.5.1.7-.1.4-.6.5-.9.5h-13c-.7 0-1.8 0-2.7.9-.9.9-.8 2-.7 2.8v22.5c0 1.9 0 3.7-.1 5.4v2.3c0 .4-.2 1-.9 1.1-.1 0-.3.1-.4.1-.4 0-.7-.2-1-.5-.2-.4-1-1.4-2.4-1.4-1 0-1.8.5-2.5 1.5-.2.3-.5.4-.9.4-.1 0-.3 0-.4-.1-.5-.2-.9-.6-.9-1.1V35.9c0-2-1.2-3.3-3.2-3.5-1.1-.1-1.4-.4-1.4-1.5v-13c0-.8.5-1.2 1.3-1.3h3.1l.9 1.2c.5.6 1 1.3 1.5 1.9.8 1.1 1.8 1.3 2.4 1.3.7 0 1.6-.2 2.4-1.3.5-.6 1-1.2 1.4-1.8.5-.3.8-.7 1.2-1.1m-.5-2.5c-.5 0-.9.2-1.2.6-.9 1.2-1.8 2.3-2.7 3.4-.2.2-.3.3-.5.3-.1 0-.3-.1-.5-.3-.9-1.2-1.9-2.3-2.8-3.5-.2-.3-.5-.5-.9-.5H4c-2.2.1-3.7 1.6-3.7 3.8v13c0 2.4 1.4 3.8 3.7 4 .7 0 .9.3.9.9v16.3c0 1.6 1.1 3 2.7 3.5.3.1.7.2 1.1.2 1.2 0 2.3-.6 3-1.6.2-.3.3-.4.4-.4.1 0 .2.1.4.4.7 1 1.8 1.6 3 1.6.4 0 .7 0 1.1-.1 1.5-.4 2.5-1.7 2.7-3.3.1-.8 0-1.7 0-2.5 0-1.8.1-3.6.1-5.5s-.1-3.8-.1-5.7c0-1.8.1-3.6.1-5.5v-8.7c0-1 .1-1.9 0-2.9s-.1-1 .9-1h13.1c1.7 0 3-1 3.4-2.5.5-2.2-1-4-3.3-4h-17zM12 12.5c-3.5 0-6.2-2.8-6.1-6.2 0-1.7.7-3.2 1.9-4.4C9 .7 10.6.1 12.2.1c1.6 0 3.3.7 4.4 2 1.1 1.2 1.7 2.7 1.7 4.2-.1 3.6-2.8 6.2-6.3 6.2zm.1-9.7c-1 0-1.9.4-2.6 1-.7.7-1.1 1.6-1.1 2.6C8.4 8.3 10 10 12 10c2.1 0 3.8-1.6 3.8-3.6 0-.9-.3-1.7-1-2.4-.7-.8-1.7-1.2-2.7-1.2zm16.5 52.9c-1.1 0-1.7-1.1-1.2-2 .1-.3.4-.5.6-.7 2.4-2.4 4.8-4.7 7.2-7 1.1-1 1.7-1 2.8 0 2.5 2.4 4.9 4.8 7.4 7.3.4.4.7.9.6 1.5-.3 1.1-1.5 1.4-2.4.5-1.2-1.2-2.4-2.3-3.6-3.5-.9-.9-1.9-1.8-2.8-2.8-.4-.4-.6-.3-1 0-2.1 2.1-4.2 4.1-6.3 6.2-.5.2-.8.5-1.3.5"/><path d="M57.6 43.2H22.8v-2.5h32.3V7H22.8V4.5h34.8z"/><path d="M39.4 7h-5.8c-1.7 0-3.1-1.4-3.1-3.1S31.9.8 33.6.8h5.8c1.7 0 3.1 1.4 3.1 3.1S41.1 7 39.4 7zm-5.7-3.7c-.3 0-.6.3-.6.6s.3.6.6.6h5.8c.3 0 .6-.3.6-.6s-.3-.6-.6-.6h-5.8z"/></svg>