<svg version="1.1" id="Слой_1" xmlns="http://www.w3.org/2000/svg" x="0" y="0" viewBox="0 0 18.5 18.7" xml:space="preserve"><path fill="#DBDBDB" d="M16.9 18.7h-.3c-.4 0-.6-.2-.9-.5l-3.3-3.3s-.1-.1-.1 0c-1.1.6-2.2 1-3.5 1.1-1.1.1-2.1 0-3.1-.3-1.9-.6-3.4-1.8-4.5-3.5-.6-1-1-2.1-1.1-3.3 0-.2 0-.3-.1-.5v-.9c0-.4.1-.7.1-1.1.4-1.7 1.1-3.1 2.4-4.3C4.4.4 6.7-.3 9.2.1c1.4.2 2.7.8 3.8 1.7 2.3 1.9 3.2 4.4 2.9 7.4-.1 1.1-.5 2.1-1.1 3v.2l3.3 3.3c.6.6.6 1.4 0 2l-.6.6c-.2.2-.4.3-.6.4.1-.1.1-.1 0 0zm-8.8-4.9c3.2 0 5.8-2.6 5.8-5.8s-2.6-5.8-5.8-5.8C4.9 2.2 2.3 4.8 2.3 8c-.1 3.2 2.5 5.8 5.8 5.8z"/></svg>