<?xml version="1.0" encoding="utf-8"?><!DOCTYPE svg PUBLIC "-//W3C//DTD SVG 1.1//EN" "http://www.w3.org/Graphics/SVG/1.1/DTD/svg11.dtd"><svg viewBox="0 0 253.5 151" xmlns="http://www.w3.org/2000/svg" xmlns:xlink="http://www.w3.org/1999/xlink"><style>:root>svg{display:none}:root>svg:target{display:block}</style><svg viewBox="0 0 59.7 59.8" id="advantages-calendar" xmlns="http://www.w3.org/2000/svg"><circle fill="#EAEAE8" cx="29.8" cy="29.8" r="29.8"/><path fill="#E0DCD2" d="M59.7 29.8c0-1-.1-2-.1-2.9L45.6 13l-4 1.2-2.9 7.6-5.7-5.7-6 4.2 3.3 3.3h-2.2l-8.8-8.8-3.5.3-6.9.4-.9 6 4.8 4.8-2.2 4.6-1.8 1.9 1.9 3.5 1.8 5.2 1.4 2.5-.7 3.2 12.3 12.3c1.5.2 3 .3 4.5.3 16.3-.1 29.7-13.5 29.7-30z"/><g fill="#4C0017"><path d="M8.1 32.2c.2-.4.4-.9.8-1.2.5-.5 1-.8 1.7-1 .3-.1.4-.2.5-.5l1.2-3.6c.6-1.8 1.9-2.8 3.8-2.8h16.7c1.5 0 2.7.6 3.5 1.9.4.8.6 1.7.9 2.5.2.6.4 1.3.6 1.9.1.2.2.4.4.4 1.5.5 2.4 1.6 2.5 3.1.2 1.6-.5 2.8-1.9 3.7-.2.1-.3.3-.4.5-.4 1.9-.7 3.7-1.1 5.6-.2.7-.5 1-1.2 1-.3 0-.3.1-.2.3.2.5.4 1 .5 1.5.2.7-.1 1.2-.7 1.4-.6.2-1.1-.1-1.4-.8-.2-.7-.5-1.4-.7-2.1-.1-.3-.2-.4-.5-.4H15.5c-.3 0-.5.1-.5.4-.2.7-.4 1.3-.7 2 0 .1-.1.3-.2.4-.3.4-.9.6-1.3.4s-.7-.8-.5-1.3.3-1.1.5-1.6c.1-.3.1-.4-.3-.4-.8 0-1.1-.3-1.2-1.1-.4-1.8-.7-3.6-1.1-5.4-.1-.3-.2-.5-.5-.6-.9-.4-1.4-1.1-1.8-2 .2-.5.2-1.3.2-2.2zm16.3-7.1h-8.3c-.9 0-1.5.4-1.7 1l-1.2 3.6c-.1.2-.1.3.1.4 1.1.4 1.5 1.4 2.2 2.3.1.2.2.4.2.6v.6c0 .4 0 .4.4.2.9-.6 1.9-.9 3-.9H30c1.1 0 2.1.3 3 .8.1.1.2.2.4.2.1-.1.1-.3.1-.4 0-1.6.8-2.7 2.2-3.5.2-.1.3-.2.2-.5-.4-1.1-.7-2.2-1.1-3.3-.2-.6-.6-1-1.3-1.1h-9.1zm0 16.7h10.5c.4 0 .6-.1.6-.5.2-1.3.5-2.6.8-3.9 0-.2 0-.4-.1-.6-.4-.7-.1-1.5.7-1.6h.3c.7-.1 1.3-.6 1.4-1.3.1-.8-.2-1.5-.9-1.8-1.2-.6-2.5.2-2.5 1.6v4.7c0 .9-.4 1.3-1.3 1.3H14.5c-.7 0-1.1-.4-1.1-1.2V35c0-.6-.1-1.3-.3-1.9-.2-.8-1-1.3-1.7-1.2-.8.1-1.5.8-1.6 1.6s.5 1.5 1.3 1.7c.2.1.5.1.7.1.7.1 1.1.9.7 1.5-.1.3-.2.5-.1.8.3 1.2.5 2.5.8 3.7.1.6.1.6.7.6 3.5-.1 7-.1 10.5-.1zm0-4.4h8.3c.4 0 .5-.1.3-.4-.6-1.3-1.7-2-3.1-2H19.1c-1.4 0-2.5.6-3.2 2-.2.4-.2.4.3.4h8.2z"/><path d="M47.5 22.4c-.2.5-.6.7-1.2.7h-1.7c-.3 0-.4.1-.4.4v21.3c0 .3.1.3.4.3h.6c.5 0 1 .4 1 .9.1.5-.3 1-.8 1.1-.1 0-.3.1-.4.1h-3.8c-.7 0-1.1-.5-1.1-1.1s.5-1 1.2-1h.3c.5 0 .5 0 .5-.5v-7.8-13.1c0-.5 0-.5-.5-.6h-1.7c-.8 0-1.2-.5-1.1-1.3.1-1 .3-2 .5-2.9.3-1.6.5-3.2.8-4.8.1-.9.5-1.2 1.3-1.2h3.7c.7 0 1.1.4 1.2 1.1.4 2.5.9 5 1.3 7.5-.1.2-.1.5-.1.9zm-4.4-1.5h1.7c.3 0 .4-.1.3-.4-.3-1.8-.6-3.5-.9-5.3 0-.2-.2-.3-.4-.3h-1.5c-.3 0-.4.1-.4.4-.3 1.7-.6 3.5-.9 5.2-.1.3.1.4.3.4h1.8zM8.1 14.6c.3-.3.6-.4 1-.4h9.1c.8 0 1.2.4 1.2 1.2v5c0 .8-.4 1.2-1.2 1.2H9.1c-.4 0-.7-.1-1-.4v-6.6zm5.5 5h3.1c.6 0 .6 0 .6-.6v-2c0-.7 0-.7-.7-.7h-6.1c-.5 0-.6.1-.6.6v2.2c0 .3.1.5.4.5h3.3zM33.5 17.9c.1 1.9-1.6 3.8-3.8 3.8-2 0-3.7-1.7-3.7-3.8s1.7-3.7 3.7-3.7c2.1 0 3.8 1.7 3.8 3.7zm-3.7-1.6c-1 0-1.6.7-1.6 1.6s.7 1.6 1.6 1.6 1.6-.7 1.6-1.6-.7-1.6-1.6-1.6z"/></g></svg><svg viewBox="0 0 59.7 59.6" id="advantages-cash" xmlns="http://www.w3.org/2000/svg"><circle fill="#EAEAE8" cx="29.8" cy="29.8" r="29.8"/><path fill="#E0DCD2" d="M59.1 35.8l.6-7.1c-.1-2.2-.4-4.3-.9-6.4L52 15.5l-1.3.2-12.8-8.8-7.7 11.8-5.6 1.5-4.8 2-6.5 9.8-2.3.8L6.4 34l3.7 14.9 8.5 8.5c3.5 1.4 7.3 2.2 11.3 2.2 14.4.1 26.4-10.2 29.2-23.8z"/><g fill="#4C0017"><path d="M51.9 16c-.8.9-1.4 2-2.1 3-5.2 7.5-10.4 15-15.6 22.6-.2.3-.4.3-.7.1-1.2-.8-2.3-1.7-3.5-2.5-.2-.2-.4-.2-.7 0-1.7 2.2-4 3.4-6.7 3.9-2.1.4-4.1.9-6.1 1.4-.4.1-.4.2-.3.5l.6 1.8c.1.3 0 .4-.3.5-2.1.6-4.1 1.3-6.2 1.9-.6.2-.6.2-.8-.5L5.6 35.5c0-.1-.1-.2-.1-.3v-2.1c1.5-.5 3-.9 4.5-1.4.5-.1.9-.3 1.4-.4.6-.2.6-.2.9.4.2 0 .2-.2.3-.3 2-3 3.9-6.1 5.9-9.1.7-1.1 1.6-1.8 2.9-2.2 2.1-.6 4.2-1.2 6.2-1.8.5-.1.8-.4 1.1-.8 2.7-4 5.5-7.9 8.2-11.9.2-.4.4-.4.7-.1 4.7 3.3 9.4 6.5 14.1 9.8.1 0 .1.1.2.1v.6zm-25.5 4.9s0-.1 0 0c-1.4.3-2.8.7-4.1 1.1-1 .3-1.8.8-2.3 1.7-2 3.1-4 6.3-6.1 9.4-.2.2-.3.5-.6.6-.4.1-.4.3-.3.6.8 2.6 1.6 5.2 2.3 7.8.1.4.3.5.7.4 2-.5 4.1-1 6.1-1.3 2.6-.5 4.6-1.7 6.1-3.9 1-1.4 2.1-2.6 3.1-4 1.2-1.5 2.4-2.9 3.5-4.4.7-.9.5-1.8-.3-2.6-.7-.6-1.7-.7-2.5 0-.3.3-.6.5-.9.7l-4.8 3.9c-.2.2-.4.2-.7.1-1.2-.8-2.5-1.5-3.7-2.2-.3-.2-.3-.3-.2-.6 1-1.5 1.9-3 2.9-4.6.7-.9 1.2-1.8 1.8-2.7zm16.4 4.6c.1-.2.2-.3.3-.3 2-2.9 4-5.7 6-8.6.2-.3.1-.4-.1-.6-3.6-2.5-7.2-5-10.7-7.5-.5-.4-.5-.4-.9.2-1.9 2.7-3.8 5.5-5.7 8.2-.1.1-.2.1-.1.3 2.9-1.3 5.6-.9 8 .9 2.4 1.7 3.7 4.2 3.2 7.4zm-8.1-7.2c-1.2 0-2.2.3-2.9.9-1.6 1.3-1.5 3.4-.7 5 .1.2.3.1.5.1 2.6-1.2 5.4.4 5.6 3.2 0 .4.2.4.5.4 2.3-.4 3.7-2.4 3.2-4.7-.6-2.7-3.4-4.9-6.2-4.9zM7.5 34.9c0 .1 0 .2.1.3.4 1.3.8 2.7 1.2 4 .7 2.4 1.5 4.9 2.2 7.3.1.3.2.4.6.3.8-.3 1.6-.5 2.4-.7.4-.1.5-.3.4-.7-.5-1.7-1-3.5-1.6-5.2-.6-2-1.2-4.1-1.8-6.1-.1-.2-.1-.5-.5-.4l-2.7.9c-.2 0-.3.1-.3.3zm33-6c-1.5.8-1.9.9-3.5 1-.2 0-.3.1-.5.2-1.8 2.3-3.6 4.6-5.5 6.9-.2.2-.2.4.1.5.7.5 1.3.9 2 1.4.3.2.4.1.6-.1.7-1.1 1.5-2.2 2.2-3.3 1.5-2.1 3-4.3 4.6-6.6zm-12-7.6c-.1.1-.2.2-.3.4-1.1 1.7-2.2 3.4-3.3 5.2-.2.4-.7.7-.6 1.1s.7.5 1 .7.5.1.8-.1c.9-.7 1.7-1.4 2.6-2.2.7-.6.7-.6.4-1.5-.4-1.2-.6-2.3-.6-3.6z"/><path d="M43.2 15.2c0 .9-.8 1.6-1.6 1.6-.9 0-1.6-.8-1.6-1.6 0-.9.7-1.6 1.6-1.7.9 0 1.6.8 1.6 1.7z"/></g></svg><svg viewBox="0 0 59.6 59.6" id="advantages-chat" xmlns="http://www.w3.org/2000/svg"><circle fill="#EAEAE8" cx="29.8" cy="29.8" r="29.8"/><path fill="#E0DCD2" d="M59.2 35.3L48.6 24.7l-2.9-1.2-9.2-9.2-4.3-1.3-19.7 1.3-1.8.5v15.9l27.7 27.7C49 55.2 57.1 46.3 59.2 35.3z"/><path fill="#4F051C" d="M46.1 23.6h-8.8v-7.2c0-1.9-1.5-3.4-3.4-3.4H13.3c-1.9 0-3.4 1.5-3.4 3.4v12.4c0 1.9 1.5 3.4 3.4 3.4h2l2.5 3.4c.1.2.4.3.7.3.3 0 .5-.1.7-.3l2.5-3.4h.4v7.2c0 1.9 1.5 3.4 3.4 3.4h12.1l2.5 3.4c.1.2.4.3.7.3s.5-.1.7-.3l2.5-3.4h2c1.9 0 3.4-1.5 3.4-3.4V27c.1-1.9-1.4-3.4-3.3-3.4zm-24.8 6.9c-.3 0-.5.1-.7.3l-2.1 2.8-2.1-2.8c-.1-.2-.4-.3-.7-.3h-2.5c-.9 0-1.6-.7-1.6-1.6V16.5c0-.9.7-1.6 1.6-1.6h20.6c.9 0 1.6.7 1.6 1.6V28.9c0 .9-.7 1.6-1.6 1.6H21.3zm26.5 8.9c0 .9-.7 1.6-1.6 1.6h-2.5c-.3 0-.5.1-.7.3l-2.1 2.8-2.1-2.8c-.1-.2-.4-.3-.7-.3H25.6c-.9 0-1.6-.7-1.6-1.6v-7.2h10c.7 0 1.3-.2 1.8-.5h6.7c.5 0 .9-.4.9-.9s-.4-.9-.9-.9h-5.3c.1-.3.2-.7.2-1.1v-3.4h8.8c.9 0 1.6.7 1.6 1.6v12.4zm-4.6-3.6c0 .5-.4.9-.9.9h-13c-.5 0-.9-.4-.9-.9s.4-.9.9-.9h13c.5 0 .9.4.9.9zm-13.3-9.7H17c-.5 0-.9-.4-.9-.9s.4-.9.9-.9h12.9c.5 0 .9.4.9.9.1.5-.4.9-.9.9zm-13.8-5.8c0-.5.4-.9.9-.9h7.8c.5 0 .9.4.9.9s-.4.9-.9.9H17c-.5-.1-.9-.4-.9-.9z"/></svg><svg viewBox="0 0 59.7 59.6" id="advantages-diploma" xmlns="http://www.w3.org/2000/svg"><circle fill="#EAEAE8" cx="29.8" cy="29.8" r="29.8"/><path fill="#E0DCD2" d="M31.1 59.6C47 59 59.7 45.9 59.7 29.8c0-2-.2-4-.6-6L45.9 10.6h-7.2L38 9.4l-3.9.4-.8-1.5s-.3-.5-1.9-1-3.2 2.1-3.2 2.1H27l-4.4 1.3-1.3-.2-3.5.2-1.4 3.2v2.7l-.5 2-1 .6h-.8l-1.7-.4-1.5 2.3-.4 2.1-.2 1.4-1.8 1.1-.6 3.9 2.5 2.5v1.5l1.9 3.1 4 4v4.2l14.8 14.7z"/><path fill="#550D22" d="M42.6 30c-.1-.1-.3-.2-.5-.2s-.4.1-.5.2-.2.3-.2.5.1.4.2.5.3.2.5.2.4-.1.5-.2.2-.3.2-.5-.1-.4-.2-.5z"/><path fill="#550D22" d="M44.2 9.9h-4.9c-.4-.7-1.1-1.2-1.9-1.2H34c-.3-1.3-1.5-2.2-2.9-2.2s-2.5.9-2.9 2.2h-3.4c-.8 0-1.5.5-1.9 1.2H18c-1.3 0-2.3 1-2.3 2.3v1.4c0 .4.3.8.8.8.4 0 .8-.3.8-.8v-1.4c0-.4.3-.8.8-.8h4.7v1.8h-2.5c-.4 0-.8.3-.8.8v2.2h-2.9c-.4 0-.8.3-.8.8v.4c0 .6-.4 1.1-.9 1.3-.6.2-1.2.1-1.6-.3l-.3-.3c-.3-.3-.8-.3-1.1 0l-2.6 2.6c-.3.3-.3.8 0 1.1l.3.3c.4.4.5 1 .3 1.6-.2.6-.8.9-1.3.9h-.4c-.4 0-.8.3-.8.8v3.7c0 .4.3.8.8.8h.4c.6 0 1.1.4 1.3.9.2.6.1 1.2-.3 1.6l-.3.3c-.3.3-.3.8 0 1.1l2.6 2.6c.1.1.3.2.5.2s.4-.1.5-.2l.3-.3c.4-.4 1-.5 1.6-.3.3.1.6.4.7.7V43.4c0 1.3 1 2.3 2.3 2.3H44c1.3 0 2.3-1 2.3-2.3V12.3c.2-1.4-.9-2.4-2.1-2.4zm-20 1c0-.3.3-.6.6-.6h4.1c.4 0 .8-.3.8-.8 0-.8.6-1.4 1.4-1.4s1.4.6 1.4 1.4c0 .4.3.8.8.8h4.1c.3 0 .6.3.6.6v2.4H24.2v-2.4zm-8.7 23.4c-1-.4-2.2-.3-3 .4L11 33.2c.6-.8.8-2 .4-3s-1.3-1.7-2.4-1.8v-2.2c1-.1 1.9-.8 2.4-1.8.4-1 .3-2.1-.4-3l1.5-1.5c.8.6 2 .8 3 .4s1.7-1.3 1.8-2.3h2.2c.1 1 .8 1.9 1.8 2.3 1 .4 2.1.3 3-.4l1.5 1.5c-.6.8-.8 2-.4 3s1.3 1.7 2.3 1.8v2.2c-1 .1-1.9.8-2.3 1.8-.4 1-.3 2.1.4 3l-1.5 1.5c-.8-.6-2-.8-3-.4s-1.7 1.3-1.8 2.4h-2.2c-.1-1.1-.8-2-1.8-2.4zm29.4 9c0 .4-.3.8-.8.8H17.9c-.4 0-.8-.3-.8-.8v-5.1h3.1c.4 0 .8-.3.8-.8V37c0-.6.4-1.1.9-1.3.6-.2 1.2-.1 1.6.3l.3.3c.1.1.3.2.5.2s.4-.1.5-.2l2.6-2.6c.1-.1.2-.3.2-.5s-.1-.4-.2-.5l-.3-.3c-.4-.4-.5-1-.3-1.6.2-.6.8-.9 1.3-.9h.4c.4 0 .8-.3.8-.8v-3.7c0-.4-.3-.8-.8-.8h-.4c-.6 0-1.1-.4-1.3-.9-.2-.6-.1-1.2.3-1.6l.2-.2c.1-.1.2-.3.2-.5s-.1-.4-.2-.5l-2.6-2.6c-.3-.3-.8-.3-1.1 0v.1c-.4.4-1 .5-1.6.3-.6-.2-.9-.8-.9-1.3V17c0-.2-.1-.4-.2-.5v-1.7h20.4v12.4c0 .4.3.8.8.8.4 0 .8-.3.8-.8V14.1c0-.4-.3-.8-.8-.8h-2.5v-1.9h4.7c.4 0 .8.3.8.8v31.1h-.2z"/><path fill="#550D22" d="M31 10.7c-.4 0-.8.3-.8.8 0 .4.3.8.8.8.4 0 .8-.3.8-.8s-.3-.8-.8-.8zM21.4 25.2c-.3-.3-.8-.3-1.1 0l-2.4 2.4-1.2-1.2c-.3-.3-.8-.3-1.1 0s-.3.8 0 1.1l1.8 1.8c.1.1.3.2.5.2s.4-.1.5-.2l2.9-2.9c.3-.5.3-.9.1-1.2zM42 33c-.4 0-.8.3-.8.8v2.4h-3.3c-.4 0-.8.3-.8.8v3.3H20c-.4 0-.8.3-.8.8 0 .4.3.8.8.8h17.9c.2 0 .4-.1.5-.2l4.1-4.1c.1-.1.2-.3.2-.5v-3.2c.1-.5-.2-.9-.7-.9zm-3.3 6.2v-1.5h1.5l-1.5 1.5z"/><path fill="#550D22" d="M18.5 21c-3.4 0-6.2 2.8-6.2 6.2s2.8 6.2 6.2 6.2 6.2-2.8 6.2-6.2c-.1-3.4-2.8-6.2-6.2-6.2zm0 10.8c-2.6 0-4.7-2.1-4.7-4.7s2.1-4.7 4.7-4.7 4.7 2.1 4.7 4.7-2.2 4.7-4.7 4.7zM38.7 18.4h-3.8c-.4 0-.8.3-.8.8 0 .4.3.8.8.8h3.8c.4 0 .8-.3.8-.8s-.3-.8-.8-.8zM32.4 18.6c-.1-.1-.3-.2-.5-.2s-.4.1-.5.2-.2.3-.2.5.1.4.2.5.3.2.5.2.4-.1.5-.2.2-.3.2-.5-.1-.4-.2-.5zM38.7 22.9h-6.9c-.4 0-.8.3-.8.8 0 .4.3.8.8.8h6.9c.4 0 .8-.3.8-.8 0-.4-.3-.8-.8-.8zM38.7 27.5h-6.9c-.4 0-.8.3-.8.8 0 .4.3.8.8.8h6.9c.4 0 .8-.3.8-.8s-.3-.8-.8-.8zM38.7 32.1h-6.9c-.4 0-.8.3-.8.8 0 .4.3.8.8.8h6.9c.4 0 .8-.3.8-.8s-.3-.8-.8-.8z"/></svg><svg viewBox="0 0 59.7 59.6" id="advantages-lamp" xmlns="http://www.w3.org/2000/svg"><circle fill="#EAEAE8" cx="29.8" cy="29.8" r="29.8"/><path fill="#E0DCD2" d="M31.6 59.6c15.7-.9 28.1-13.9 28.1-29.8 0-.9 0-1.8-.1-2.6l-15-14.9-15.3-.1-1.9 1.8.2 6.6-8.2-8.2-8.3 1.5-1.9 5.2 2.8 5.6v15.4l19.6 19.5z"/><path fill="#4C0017" d="M30.5 24.8c-4.3-2-9.3-.1-11.2 4.2-2 4.3-.1 9.3 4.2 11.2.3.1.5.4.5.7v5.5c0 1.3 1 2.3 2.3 2.3h1.5c1.3 0 2.3-1 2.3-2.3v-5.5c0-.3.2-.6.5-.7 1.8-.8 3.3-2.3 4.2-4.2 1.8-4.2-.1-9.2-4.3-11.2zm-2.8 22.3h-1.5c-.4 0-.8-.3-.8-.8h3.1c0 .5-.4.8-.8.8zm-2.3-2.3V44h3.1v.8h-3.1zm4.4-6c-.8.4-1.4 1.2-1.4 2.1v1.6h-.8V34h1.5c1.3 0 2.3-1 2.3-2.3v-.8h-1.5v.8c0 .4-.3.8-.8.8h-4.5c-.4 0-.8-.3-.8-.8v-.8h-1.5v.8c0 1.3 1 2.3 2.3 2.3h1.5v8.5h-.8v-1.6c0-.9-.5-1.7-1.4-2.1-2.2-1-3.7-3.1-4-5.5-.4-3.8 2.3-7.2 6.1-7.7 2-.2 3.9.4 5.4 1.7.7.6 1.3 1.4 1.7 2.3 1.7 3.5.2 7.6-3.3 9.2zM16.1 11.7c-4.2 0-7.7 3.1-7.7 6.9s3.5 6.9 7.7 6.9 7.7-3.1 7.7-6.9-3.4-6.9-7.7-6.9zm0 12.3c-3.4 0-6.2-2.4-6.2-5.4s2.8-5.4 6.2-5.4 6.2 2.4 6.2 5.4-2.8 5.4-6.2 5.4z"/><path fill="#4C0017" d="M43.1 11.7H29.2c-1.3 0-2.3 1-2.3 2.3v8.5h1.5V14c0-.4.3-.8.8-.8h13.9c.4 0 .8.3.8.8v14.6c0 .4-.3.8-.8.8h-6.2v1.5h6.2c1.3 0 2.3-1 2.3-2.3V14c0-1.3-1-2.3-2.3-2.3zM19 39.7l-3.1-3.1-1.1 1.1 1.8 1.8h-2.8c-.4 0-.8-.3-.8-.8V26.4h-1.5v12.3c0 1.3 1 2.3 2.3 2.3h2.8l-1.8 1.8 1.1 1.1 3.1-3.1c.3-.4.3-.8 0-1.1zM42.1 32c-.3-.3-.8-.3-1.1 0l-3.1 3.1 1.1 1.1 1.8-1.8V41c0 2.1-1.7 3.8-3.9 3.9h-2.3v1.5h2.3c3 0 5.4-2.4 5.4-5.4v-6.6l1.8 1.8 1.1-1.1-3.1-3.1z"/><path fill="#4C0017" d="M39.6 19.4l-1.3-1.3c-.3-.3-.8-.3-1.1 0l-3.3 3.3-1.8-1.8c-.1-.1-.3-.2-.5-.2h-1.5v1.5h1.2l2.1 2.1c.1.1.3.2.5.2s.4-.1.5-.2l3.3-3.3 1 1c.1.1.3.2.5.2h3.1v-1.5h-2.7zM31.5 44.8H33v1.5h-1.5zM15.4 17.9h1.5v1.5h-1.5zM18.5 17.9H20v1.5h-1.5zM12.3 17.9h1.5v1.5h-1.5z"/></svg><svg viewBox="0 0 59.6 59.6" id="advantages-laptop" xmlns="http://www.w3.org/2000/svg"><circle fill="#EAEAE8" cx="29.8" cy="29.8" r="29.8"/><path fill="#E0DCD2" d="M59.6 31.4l-13.4-13-2.3-1-5.1-5.1-.6-.1-2.9-.5-7.6 6.1H16l-2 1.5-.1 20.7-3.1 3 15.8 16.4c1 .1 2.1.2 3.2.2 15.9 0 29-12.5 29.8-28.2z"/><g fill="#4C0017"><path d="M29.8 44.2H13c-1.6 0-2.7-1.1-2.7-2.7v-1.8c0-.4.1-.5.5-.5.6.1 1.3 0 1.9 0 .5 0 .6 0 .6-.5v-11-7.8c0-1.5 1.1-2.6 2.6-2.6H26.1c.2 0 .2.1.1.2-.4.4-.7.7-1.1 1-.2.1-.4.1-.5.1h-8.3c-1.2 0-1.7.5-1.7 1.7v18.3c0 .6 0 .6.6.6h8.9c.4 0 .5.1.6.5.1.7.6 1.1 1.5 1.1h6.9c.8-.1 1.3-.5 1.3-1.2.1-.4.2-.4.5-.4h9.7c.6 0 .6 0 .6-.6V20.5 20c-.1-.9-.5-1.4-1.4-1.4h-.9c-.2 0-.3-.1-.3-.3.1-1.2-.2-1 1-1 1.6 0 2.6.7 2.9 2.1.1.3.1.6.1.9v18.4c0 .5 0 .5.6.5.5 0 1 .1 1.6 0 .4-.1.5.2.5.5-.1.6 0 1.2 0 1.8 0 1.5-1.1 2.6-2.6 2.6-5.7.1-11.3.1-16.9.1z"/><path d="M35.9 11.4h1.5c.4 0 .6.1.9.4l2.7 2.7c.3.3.5.7.5 1.1v2.5c0 .4-.1.7-.4.9l-9.3 9.3c-.5.5-1 .5-1.5.2-.4-.4-.3-.9.2-1.4 3-2.9 5.9-5.9 8.8-8.8.3-.3.5-.6.4-1s0-.8 0-1.1c0-.2.1-.3-.1-.4s-.3.1-.4.2l-.2.2-9.7 9.7-.3.3c-.2.2-.5.2-.7 0s-.2-.5 0-.7l.3-.3 9.8-9.8c.3-.3.3-.4 0-.7-.8-.7-.8-.8-1.6 0l-9.4 9.4c-.4.4-.7.5-.9.3-.3-.3-.2-.5.3-.9l9.8-9.8.3-.3c.1-.2.1-.2-.1-.2H35c-.2 0-.3.2-.5.3l-8.7 8.7c-.1.1-.2.3-.4.4-.4.4-.9.3-1.2 0-.4-.4-.4-.9-.1-1.2l.3-.3 9-9c.3-.3.7-.5 1.1-.5.6-.1 1-.2 1.4-.2zM29.7 29.2c0 .5-.2.8-.7.9-.9.3-1.9.5-2.8.7-1.4.4-2.8.7-4.2 1-.2.1-.4.1-.6.1-.7.1-1.2-.5-1-1.1.7-2.4 1.4-4.9 2.1-7.3.2-.5.7-.8 1.1-.6.5.2.8.6.6 1.2-.3 1.1-.6 2.2-1 3.3-.1.3-.1.5.2.7l.2.2c.6.9 1.3 1 2.3.6.8-.3 1.7-.5 2.5-.7.8 0 1.3.4 1.3 1z"/></g></svg><svg viewBox="0 0 59.6 59.6" id="advantages-phone" xmlns="http://www.w3.org/2000/svg"><circle fill="#EAEAE8" cx="29.8" cy="29.8" r="29.8"/><path fill="#E0DCD2" d="M59.6 31.3L41.4 13.1l-19.3-.4-3.3 1.9v19.5l.7 13.5 12 12c15.2-.9 27.4-13.1 28.1-28.3z"/><g fill="#4C0017"><path d="M21.2 12.1h18.6c1.9.7 2.9 2 2.9 4v28.3c0 .6-.1 1.3-.4 1.9-.6 1.1-1.5 1.8-2.8 2.1H21.4c-2-.4-3.2-2.1-3.2-4.3.1-9.3 0-18.6 0-27.9.1-2.1 1-3.4 3-4.1zm9.2 28.7h10.1c.5 0 .5 0 .5-.5V20.2c0-.5 0-.5-.5-.5H20.4c-.5 0-.5 0-.5.5v20.1c0 .5 0 .5.5.5h10zm0 1.6H20.3c-.5 0-.5 0-.5.5v1.8c0 1.2.9 2.2 2.2 2.2h16.8c1.2 0 2.2-1 2.2-2.2v-1.8c0-.5 0-.5-.5-.5H30.4zm0-24.3h10.1c.5 0 .5 0 .5-.5v-1.8c0-.9-.7-1.8-1.6-2.1-.3-.1-.6-.1-.9-.1H22c-1.2.1-2.1 1-2.1 2.2v1.8c0 .5 0 .5.5.5h10z"/><path d="M30.4 46.2c-.9 0-1.6-.7-1.6-1.6s.7-1.6 1.6-1.6 1.5.7 1.6 1.6c0 .9-.7 1.6-1.6 1.6zM30.4 16.6h-3.7c-.6 0-.9-.4-.8-.9.1-.3.3-.5.6-.6.2-.1.4-.1.6-.1h6.7c.2 0 .3 0 .5.1.5.1.7.4.7.9-.1.4-.4.7-.8.7-1.3-.1-2.5-.1-3.8-.1z"/></g></svg><svg viewBox="0 0 59.6 59.6" id="advantages-worker" xmlns="http://www.w3.org/2000/svg"><circle fill="#EAEAE8" cx="29.8" cy="29.8" r="29.8"/><path fill="#E0DCD2" d="M58.8 36.8v-.2L37.3 15.1l-4.4-2.2-.4-1.7-2.8-.3h-2.4l-1.7 1.5-3.7 3.2-3.1 6.7-.7 1.5 1.5 1.5 1.2 2.5.3 2.7 1.8 2.2v2.8l-2.1 2-7.2 2.9-2.5 6.3L23.4 59c2 .4 4.1.6 6.2.6 14.3.1 26.1-9.7 29.2-22.8z"/><g fill="#4C0017"><path d="M44 39.1c-2-.5-2.6-1-3.5-1.3-2-.8-3-1.4-3.5-1.8l-.4-3.2c.1-.2.3-.4.4-.5 1.8-.9 2.1-2.3 1.7-3.5.4-1.1.6-2.3.6-3.5 0-.5 0-1-.1-1.5H40.9c.4 0 .8-.3.8-.8 0-.4-.3-.8-.8-.8h-.8c0-4.5-2.8-8.4-6.8-9.9v-.7c0-.3-.2-.6-.4-.7-.1 0-1.7-.8-3.4-.8s-3.3.8-3.4.8c-.3.1-.4.4-.4.7v.7c-4 1.5-6.8 5.4-6.8 9.9h-.8c-.4 0-.8.3-.8.8 0 .4.3.8.8.8H19.8c-.1.5-.1 1-.1 1.5 0 1.2.2 2.3.6 3.5-.4 1.2-.1 2.6 1.7 3.5.1.2.3.4.4.5L22 36c-.5.4-1.5 1.1-3.5 1.8-.8.3-1.5.8-3.4 1.3H15c-1.7.6-2.9 2.2-2.9 3.9v3.5h34.6V43c.2-1.7-.9-3.3-2.7-3.9zm-4.1 0l-1.8 1.8-2.1-2.1.6-1.3c1 .7 2.2 1.2 3.3 1.6zm-3.2-8.4c-.5.3-1.4.7-3.1.9h-.3c-1.3 0-2.5-.7-2.8-1.4-.1-.3-.2-.6.2-1.1.1-.1.1-.2.2-.2s.1.1.3.1c.2.1.5.3.8.5.8.6 1.9 1.4 3.2 1.4.6 0 1.1-.1 1.6-.4.3-.2.5-.3.7-.5-.2 0-.3.4-.8.7zm-2 2.4c0 .1-.1.4-.5.9s-1 1-1.6 1.6c-.6.5-1.3 1-1.9 1.3s-.9.5-1.1.5c-.2-.1-.5-.2-1.1-.5-.6-.4-1.3-.8-1.9-1.3-.7-.5-1.2-1.1-1.6-1.6s-.5-.8-.5-.9v-.2c.3.1.7.1 1 .1h.4c1.4 0 2.9-.6 3.7-1.5.8.9 2.3 1.5 3.7 1.5h.4c.4 0 .7-.1 1-.1v.2zM20.5 22.3c0-2.4.9-4.7 2.7-6.4.8-.8 1.7-1.4 2.6-1.8v3c0 .4.3.8.8.8.4 0 .8-.3.8-.8v-4.8c.6-.2 1.5-.5 2.3-.5.9 0 1.8.3 2.3.5V17c0 .4.3.8.8.8.4 0 .8-.3.8-.8v-2.9c1 .4 1.9 1.1 2.6 1.8 1.7 1.7 2.7 4 2.7 6.4H20.5zm.8 3c0-.5 0-1 .1-1.5h16.3c.1.5.1 1 .1 1.5 0 .6-.1 1.2-.2 1.8-.3-.2-.5-.3-.8-.3-1.2 0-1.7 1.3-1.7 1.3.2-.1.3-.1.5-.1.8 0 1.3.6.3 1.2-.3.2-.6.2-.9.2-1.6 0-2.9-2.1-4.2-2.1-.4 0-.8.2-1.2.6-.4-.5-.8-.6-1.2-.6-1.4 0-2.7 2.1-4.2 2.1-.3 0-.6-.1-.9-.2-1-.6-.5-1.2.3-1.2.2 0 .3 0 .5.1 0 0-.6-1.2-1.7-1.3-.2 0-.5.1-.8.3-.2-.6-.3-1.2-.3-1.8zm1.1 5.4c-.5-.3-.6-.6-.7-.8.2.2.5.4.7.5.5.3 1 .4 1.6.4 1.3 0 2.3-.8 3.2-1.4.3-.2.5-.4.8-.5.1-.1.2-.1.3-.1l.2.2c.4.5.4.9.2 1.1-.3.7-1.5 1.4-2.8 1.4h-.3c-1.8-.1-2.7-.5-3.2-.8zm.1 6.8l.6 1.3-2.1 2.1-1.8-1.8c1-.4 2.3-.9 3.3-1.6zM13.7 45v-.7l.7.7h-.7zm2.8 0l-2.7-2.7c.2-.8.9-1.5 1.7-1.7h.1c1-.3 1.6-.5 2.1-.7l2.2 2.2-3 3-.4-.1zm2.5 0l2-2 2 2h-4zm7.5-1.1L25.4 45H25l-3-3 1.7-1.7.6 1.2c.1.2.3.4.5.4h.2c.2 0 .3 0 .4-.1l1.1-.8v2.9zM25.3 40l-1.8-3.8.2-1.2c1 1.3 2.7 2.5 4 3.3L25.3 40zm5.8 5h-3v-5.1l1.3-1h.4l1.3 1V45zm4.3-10l.2 1.2-1.8 3.8-2.4-1.7c1.3-.8 3-2.1 4-3.3zm-1.8 10l-1.1-1.1V41l1.1.8c.1.1.3.1.4.1h.2c.2-.1.4-.2.5-.4l.6-1.2L37 42l-3 3h-.4zm2.6 0l2-2 2 2h-4zm6 0l-3-3 2.2-2.2c.5.2 1.2.5 2.1.7h.1c.8.3 1.4.9 1.7 1.7l-2.7 2.7-.4.1zm3.2 0h-.7l.7-.7v.7z"/><path d="M29 43c-.3.3-.3.8 0 1.1s.8.3 1.1 0c.3-.3.3-.8 0-1.1s-.8-.3-1.1 0zM29 39.9c-.3.3-.3.8 0 1.1s.8.3 1.1 0c.3-.3.3-.8 0-1.1-.3-.3-.8-.3-1.1 0z"/></g></svg><svg viewBox="0 0 253.5 68.3" id="brand-logo" xmlns="http://www.w3.org/2000/svg"><path fill="#C10016" class="ist0" d="M170.7 11.3h82.8V49h-81.3c.8-.1 1.8-.7 2.4-.8 1.3-.2 2.3-.8 3.4-1.3s2.7-.6 3.6-1.5c1.2-1.2 2.2-2.5 2.9-4 .7-1.5 1.3-3.2 1.7-5.1.4-1.9.5-3.9.5-6.2 0-6.9-1.8-12-5.4-15.3-1.4-1.3-2.9-2.2-4.6-2.7-1.6-.5-3.7-.8-6-.8"/><path fill="#FFF" class="ist1" d="M193.4 33.7v7.2h1.6c.6 0 1.1 0 1.3-.1.4-.1.7-.2.9-.5.2-.2.4-.6.6-1.1.1-.5.2-1.2.2-2s-.1-1.5-.2-1.9c-.2-.5-.4-.8-.6-1.1-.3-.3-.6-.4-1-.5-.3-.1-.9-.1-1.8-.1h-1v.1zm-2.2-1.9h4c.9 0 1.6.1 2.1.2.6.2 1.2.5 1.6 1 .5.5.8 1.1 1 1.8.2.7.4 1.6.4 2.6 0 .9-.1 1.7-.3 2.3-.3.8-.7 1.4-1.2 1.9-.4.4-.9.7-1.6.9-.5.2-1.1.2-2 .2h-4V31.8zM224.5 19.4v7.2h1.6c.6 0 1.1 0 1.3-.1.4-.1.7-.2.9-.5.2-.2.4-.6.6-1.1.1-.5.2-1.2.2-2s-.1-1.5-.2-1.9c-.2-.5-.4-.8-.6-1.1-.3-.3-.6-.4-1-.5-.3-.1-.9-.1-1.8-.1h-1v.1zm-2.2-1.9h4c.9 0 1.6.1 2.1.2.6.2 1.2.5 1.6 1 .5.5.8 1.1 1 1.8.2.7.4 1.6.4 2.6 0 .9-.1 1.7-.3 2.3-.3.8-.7 1.4-1.2 1.9-.4.4-.9.7-1.6.9-.5.2-1.1.2-2 .2h-4.2V17.5h.2zM239.5 23c0 1.2.3 2.2.9 2.8.6.6 1.3 1 2.2 1s1.6-.3 2.2-1c.6-.6.8-1.6.8-2.9s-.3-2.2-.8-2.8c-.6-.6-1.3-.9-2.2-.9s-1.6.3-2.2.9c-.7.7-.9 1.6-.9 2.9m-2.3.1c0-1.1.2-2.1.5-2.8.2-.6.6-1.1 1-1.5s.9-.8 1.4-1c.7-.3 1.5-.4 2.4-.4 1.6 0 2.9.5 3.9 1.5s1.5 2.4 1.5 4.2c0 1.8-.5 3.1-1.4 4.1-1 1-2.2 1.5-3.9 1.5-1.6 0-2.9-.5-3.9-1.5s-1.5-2.4-1.5-4.1z"/><path fill="#C10016" class="ist0" d="M4.3 8.5c-1.1 0-2.1-.4-3-1.1C.4 6.6 0 5.5 0 4.2c0-1.1.4-2.1 1.2-3C2 .4 3 0 4.2 0s2.2.4 3 1.2C8 2 8.5 3 8.5 4.2s-.4 2.3-1.3 3.1c-.8.8-1.7 1.2-2.9 1.2"/><path fill="#C10016" class="ist0" d="M4.3 7.6c-.9 0-1.7-.3-2.3-.9-.7-.6-1-1.4-1-2.4 0-.9.3-1.7.9-2.3.6-.6 1.4-1 2.3-1s1.7.3 2.3.9c.6.6 1 1.4 1 2.3 0 1-.3 1.8-1 2.4-.5.7-1.3 1-2.2 1"/><path fill="#20201E" class="ist2" d="M66.7 41.3c1.6 0 2.5-.3 3.8-1.4 2.7-2.3 3.2-6.5 3.2-9.9 0-2.3-.2-5.4-1.4-7.5-.8-1.3-1.8-2.5-3.3-2.9-1.6-.5-3.5-.7-5.2-.7h-3.7v24c0 1-.1 2.1-.3 3.1-.3 1-.8 1.7-1.7 2.2-.7.5-1.6.7-2.5.7s-1.7-.2-2.5-.7-1.4-1.3-1.7-2.2c-.3-1-.3-2-.3-3V16.7c0-1.4.3-3 1.3-4.1s2.5-1.3 4-1.3h9.1c2.1 0 4.3.2 6.4.7 1.9.5 3.6 1.5 5 2.8 4.4 3.9 5.7 9.6 5.7 15.3 0 2-.2 4.1-.6 6.1-.4 1.8-.9 3.5-1.8 5.1-.8 1.5-1.8 2.9-3.1 4.1-1 .9-2.1 1.7-3.3 2.2-1.2.6-2.5 1-3.8 1.2-2 .3-4.2.6-6.1 0-.8-.2-1.4-.7-1.9-1.5-.4-.6-.6-1.3-.6-2.1 0-.7.2-1.4.6-2.1s1-1.2 1.8-1.5c.8-.2 1.6-.3 2.4-.3h.5z"/><path fill="#20201E" class="ist2" d="M56.5 12.3h9.1c2.4 0 4.4.2 6.1.7s3.2 1.3 4.6 2.6c3.6 3.2 5.4 8 5.4 14.5 0 2.1-.2 4.1-.5 5.9s-.9 3.4-1.7 4.8c-.8 1.4-1.7 2.7-2.9 3.8-.9.9-1.9 1.6-3 2.1s-2.3.9-3.6 1.1c-1.8.3-4 .6-5.7.1-.6-.2-1-.5-1.3-1-.2-.4-.4-.9-.4-1.6s.2-1.2.4-1.6c.3-.5.7-.9 1.3-1 .6-.2 1.3-.2 2.2-.2 1.9 0 3.1-.3 4.7-1.7 2.3-2 3.5-5.6 3.5-10.6 0-3.5-.5-6.2-1.5-7.9-1-1.8-2.3-2.9-3.8-3.4s-3.3-.7-5.5-.7h-4.7v25c0 1.1-.1 2.1-.3 2.8-.2.7-.6 1.3-1.3 1.7-.5.3-1.1.6-1.9.6s-1.5-.3-1.9-.6c-.6-.4-1.1-1-1.3-1.7-.2-.7-.3-1.6-.3-2.8V16.9c0-1.6.3-2.7 1-3.4.7-.9 1.8-1.2 3.3-1.2M119.4 37.1l7-20.7c.3-.9.6-1.8 1-2.6.3-.7.7-1.2 1.3-1.7.7-.6 1.6-.8 2.5-.8.8 0 1.5.2 2.1.6.7.4 1.2.9 1.6 1.5s.6 1.3.6 2c0 .5-.1.9-.2 1.3s-.2.9-.4 1.3c-.1.4-.3.8-.4 1.2l-8.4 22.6c-.3.8-.6 1.7-.9 2.5s-.7 1.5-1.1 2.2c-.5.7-1.1 1.3-1.9 1.8-.9.5-1.9.7-2.9.7s-2-.2-2.9-.7c-.8-.4-1.4-1-1.9-1.8-.5-.7-.8-1.5-1.1-2.2-.3-.8-.6-1.6-.9-2.5l-8.2-22.4c-.1-.4-.3-.8-.4-1.2-.2-.5-.3-.9-.4-1.4-.1-.4-.2-.9-.2-1.4 0-1.1.5-2.1 1.2-2.9.8-.9 1.9-1.3 3.1-1.3 1.3 0 2.6.4 3.3 1.5.7 1.1 1.2 2.5 1.6 3.7l6.9 20.7z"/><path fill="#20201E" class="ist2" d="M111.6 16.9l7.8 23.2 7.9-23.4c.4-1.2.7-2.1.9-2.6.2-.5.5-.9 1-1.3s1.1-.6 1.9-.6c.6 0 1.2.2 1.7.5s.9.7 1.2 1.2c.3.5.4 1 .4 1.5 0 .3 0 .7-.1 1.1s-.2.8-.4 1.2c-.1.4-.3.8-.4 1.2l-8.4 22.6c-.3.9-.6 1.7-.9 2.5s-.6 1.5-1 2.1-.9 1.1-1.6 1.4c-.7.4-1.5.6-2.4.6s-1.7-.2-2.4-.6c-.7-.4-1.2-.9-1.6-1.5s-.7-1.3-1-2.1l-.9-2.4-8.2-22.4c-.1-.4-.3-.8-.4-1.2-.2-.4-.3-.8-.4-1.3s-.2-.8-.2-1.2c0-.8.3-1.5 1-2.2.6-.7 1.5-1 2.4-1 1.2 0 2 .4 2.5 1.1.5.8 1 2 1.6 3.6M23 27v17.1c0 1.3-.3 2.6-1.2 3.6-.8.9-1.9 1.3-3.1 1.3s-2.3-.4-3.1-1.3c-.9-1-1.1-2.3-1.1-3.6V17.4c0-1 .1-2.1.4-3 .4-.9 1-1.6 1.8-2.2.8-.5 1.8-.8 2.8-.8.7 0 1.4.1 2 .4.6.2 1.1.6 1.5 1s.8 1 1.1 1.5c.4.6.7 1.1 1.1 1.7l11.7 17.7V16.3c0-1.3.2-2.6 1.1-3.6.8-.9 1.8-1.3 3.1-1.3 1.2 0 2.3.4 3.1 1.3.9 1 1.1 2.4 1.1 3.6v27.2c0 3.1-1.3 5.5-4.7 5.5-.7 0-1.4-.1-2-.3-.6-.2-1.2-.6-1.7-1-.5-.5-1-1-1.4-1.5s-.8-1.1-1.2-1.6c-3.7-6-7.5-11.8-11.3-17.6"/><path fill="#20201E" class="ist2" d="M24.6 16.5l13.5 20.4V16.3c0-1.3.3-2.3.9-3s1.3-1 2.3-1 1.8.3 2.4 1 .9 1.7.9 3v27.2c0 3-1.3 4.6-3.8 4.6-.6 0-1.2-.1-1.7-.3-.5-.2-1-.5-1.4-.9s-.8-.9-1.2-1.4c-.4-.5-.8-1.1-1.1-1.6-4.4-6.7-8.8-13.4-13.1-20.1v20.3c0 1.3-.3 2.3-.9 3s-1.4 1-2.4 1-1.8-.3-2.4-1-.9-1.7-.9-3V17.4c0-1.1.1-2 .4-2.7s.8-1.3 1.5-1.7c.7-.4 1.4-.7 2.2-.7.6 0 1.2.1 1.6.3.5.2.8.5 1.2.8s.7.8 1 1.3c.2.6.6 1.2 1 1.8"/><path fill="#C10016" class="ist0" d="M8.5 16.3V44c0 1.3-.3 2.6-1.2 3.6-.8.9-1.9 1.3-3.1 1.3s-2.3-.4-3.1-1.3C.2 46.6 0 45.3 0 44V16.3c0-1.3.3-2.6 1.1-3.6.8-.9 1.9-1.3 3.1-1.3s2.3.4 3.1 1.3c1 .9 1.2 2.3 1.2 3.6"/><path fill="#C10016" class="ist0" d="M7.6 30.2v13.9c0 1.3-.3 2.3-.9 3s-1.4 1-2.4 1-1.8-.3-2.4-1-.9-1.7-.9-3V16.3c0-1.3.3-2.3.9-3s1.4-1 2.4-1 1.7.3 2.4 1c.6.7.9 1.7.9 3v13.9z"/><path fill="#20201E" class="ist2" d="M93 8.5c-1.1 0-2.1-.4-3-1.1-.9-.8-1.3-1.9-1.3-3.2 0-1.1.4-2.1 1.2-3 .8-.8 1.8-1.2 3-1.2s2.2.4 3 1.2c.8.8 1.3 1.8 1.3 3s-.4 2.3-1.3 3.1c-.8.8-1.8 1.2-2.9 1.2"/><path fill="#20201E" class="ist2" d="M93 7.6c-.9 0-1.7-.3-2.3-.9-.7-.6-1-1.4-1-2.4 0-.9.3-1.7.9-2.3.6-.6 1.4-1 2.3-1s1.7.3 2.3.9c.6.6 1 1.4 1 2.3 0 1-.3 1.8-1 2.4-.6.7-1.3 1-2.2 1M97.2 16.3V44c0 1.3-.3 2.6-1.2 3.6-.8.9-1.9 1.3-3.1 1.3s-2.3-.4-3.1-1.3c-.9-1-1.1-2.3-1.1-3.6V16.3c0-1.3.3-2.6 1.1-3.6.8-.9 1.9-1.3 3.1-1.3s2.3.4 3.1 1.3c.9.9 1.2 2.3 1.2 3.6"/><path fill="#20201E" class="ist2" d="M96.2 30.2v13.9c0 1.3-.3 2.3-.9 3s-1.4 1-2.4 1-1.8-.3-2.4-1-.9-1.7-.9-3V16.3c0-1.3.3-2.3.9-3s1.4-1 2.4-1 1.7.3 2.4 1c.6.7.9 1.7.9 3v13.9zM144.8 8.5c-1.1 0-2.1-.4-3-1.1-.9-.8-1.3-1.9-1.3-3.2 0-1.1.4-2.1 1.2-3 .8-.8 1.8-1.2 3-1.2s2.2.4 3 1.2c.8.8 1.3 1.8 1.3 3s-.4 2.3-1.3 3.1c-.8.8-1.8 1.2-2.9 1.2"/><path fill="#20201E" class="ist2" d="M144.8 7.6c-.9 0-1.7-.3-2.3-.9-.7-.6-1-1.4-1-2.4 0-.9.3-1.7.9-2.3.6-.6 1.4-1 2.3-1s1.7.3 2.3.9c.6.6 1 1.4 1 2.3 0 1-.3 1.8-1 2.4-.5.7-1.3 1-2.2 1M149 16.3V44c0 1.3-.3 2.6-1.2 3.6-.8.9-1.9 1.3-3.1 1.3s-2.3-.4-3.1-1.3c-.9-1-1.1-2.3-1.1-3.6V16.3c0-1.3.3-2.6 1.1-3.6.8-.9 1.9-1.3 3.1-1.3s2.3.4 3.1 1.3c1 .9 1.2 2.3 1.2 3.6"/><path fill="#20201E" class="ist2" d="M148.1 30.2v13.9c0 1.3-.3 2.3-.9 3s-1.4 1-2.4 1-1.8-.3-2.4-1-.9-1.7-.9-3V16.3c0-1.3.3-2.3.9-3s1.4-1 2.4-1 1.7.3 2.4 1c.6.7.9 1.7.9 3v13.9z"/><path fill="#FFF" class="ist1" d="M238.8 42.8v-11h2.2l4.4 7.3v-7.3h2.1v11h-2.2l-4.4-7.2v7.2zM232 38.7v-1.8h4.8v4.4c-.5.4-1.1.8-2 1.2-.9.3-1.8.5-2.7.5-1.1 0-2.1-.2-3-.7s-1.5-1.2-1.9-2.1-.6-1.9-.6-2.9c0-1.1.2-2.2.7-3 .5-.9 1.2-1.6 2.1-2 .7-.4 1.6-.5 2.6-.5 1.4 0 2.4.3 3.2.9s1.3 1.4 1.5 2.4l-2.2.4c-.2-.5-.4-1-.9-1.3-.4-.3-1-.5-1.6-.5-1 0-1.7.3-2.3.9s-.9 1.5-.9 2.7c0 1.3.3 2.3.9 2.9.6.7 1.3 1 2.3 1 .5 0 .9-.1 1.4-.3.5-.2.9-.4 1.2-.7v-1.4H232v-.1zM222.6 31.8h2.2v10.9h-2.2zM211.9 39.2l2.2-.2c.1.7.4 1.3.8 1.6.4.3.9.5 1.6.5s1.2-.2 1.6-.5c.4-.3.5-.7.5-1.1 0-.3-.1-.5-.2-.7-.2-.2-.4-.3-.8-.5-.3-.1-.8-.2-1.8-.5-1.2-.3-2-.7-2.5-1.1-.7-.6-1-1.3-1-2.2 0-.6.2-1.1.5-1.6s.8-.9 1.4-1.1c.6-.3 1.3-.4 2.2-.4 1.4 0 2.4.3 3.1.9s1.1 1.4 1.1 2.4l-2.2.1c-.1-.6-.3-1-.6-1.2-.3-.2-.8-.4-1.4-.4s-1.1.1-1.5.4c-.2.2-.4.4-.4.7 0 .3.1.5.3.7.3.2 1 .5 2 .7 1.1.3 1.9.5 2.4.8s.9.6 1.2 1.1.4 1.1.4 1.7-.2 1.2-.5 1.8c-.3.5-.8 1-1.5 1.2-.6.3-1.4.4-2.4.4-1.4 0-2.4-.3-3.2-1-.7-.3-1.2-1.3-1.3-2.5M202.3 42.8v-11h8.1v1.9h-5.9v2.4h5.5v1.8h-5.5v3h6.1v1.9zM233.3 17.5h2.2v10.9h-2.2zM211.3 17.5h2.2v5.9c0 .9 0 1.6.1 1.8.1.4.3.8.7 1.1.4.3.8.4 1.5.4.6 0 1.1-.1 1.4-.4s.5-.6.6-.9c.1-.4.1-1 .1-1.9v-6.1h2.2v5.7c0 1.3-.1 2.2-.2 2.8-.1.5-.3 1-.7 1.4-.3.4-.8.7-1.3.9-.5.2-1.2.3-2.1.3-1 0-1.8-.1-2.4-.4s-1-.6-1.3-.9c-.3-.4-.5-.8-.6-1.2-.1-.6-.2-1.6-.2-2.8v-5.7zM204.4 28.5v-9.1h-3.2v-1.9h8.7v1.9h-3.3v9.1zM191.2 24.9l2.2-.2c.1.7.4 1.3.8 1.6.4.3.9.5 1.6.5s1.2-.1 1.6-.5c.4-.3.5-.7.5-1.1 0-.3-.1-.5-.2-.7-.2-.2-.4-.3-.8-.5-.3-.1-.8-.2-1.8-.5-1.2-.3-2-.7-2.5-1.1-.7-.6-1-1.3-1-2.2 0-.6.2-1.1.5-1.6s.8-.9 1.4-1.1c.6-.3 1.3-.4 2.2-.4 1.4 0 2.4.3 3.1.9s1.1 1.4 1.1 2.4l-2.2.1c-.1-.6-.3-1-.6-1.2-.3-.2-.8-.4-1.4-.4s-1.1.1-1.5.4c-.2.2-.4.4-.4.7 0 .3.1.5.3.7.3.2 1 .5 2 .7 1.1.3 1.9.5 2.4.8s.9.6 1.2 1.1c.3.5.4 1.1.4 1.7s-.2 1.2-.5 1.8c-.3.5-.8 1-1.5 1.2-.6.3-1.4.4-2.4.4-1.4 0-2.4-.3-3.2-1-.7-.3-1.2-1.2-1.3-2.5"/><path fill="#575756" class="ist3" d="M253.4 56.7H.1V55H253.4zM214.3 59.9h2.7c.6 0 1.1 0 1.4.2.4.1.8.4 1.1.7.3.4.6.8.7 1.3.2.5.2 1.1.2 1.9 0 .7-.1 1.2-.2 1.7-.2.6-.5 1-.8 1.4-.3.3-.6.5-1.1.6-.3.1-.8.2-1.3.2h-2.8l.1-8zm1.5 1.3v5.3h1.1c.4 0 .7 0 .9-.1l.6-.3c.2-.2.3-.4.4-.8.1-.4.2-.8.2-1.5 0-.6-.1-1.1-.2-1.4-.1-.3-.2-.6-.4-.8-.2-.2-.4-.3-.7-.4-.2-.1-.6-.1-1.2-.1l-.7.1zm6-1.3h1.5v4.3c0 .7 0 1.1.1 1.3.1.3.2.6.5.8.2.2.6.3 1 .3s.7-.1 1-.3c.2-.2.3-.4.4-.7 0-.3.1-.7.1-1.4v-4.4h1.5V64c0 1 0 1.6-.1 2s-.2.7-.4 1-.5.5-.9.6c-.4.2-.8.2-1.4.2-.7 0-1.3-.1-1.6-.3-.4-.2-.7-.4-.9-.7-.2-.3-.4-.6-.4-.9-.1-.5-.1-1.1-.1-2v-4h-.3zm7.5 0h2.7c.6 0 1.1 0 1.4.2.4.1.8.4 1.1.7.3.4.5.8.7 1.3s.2 1.1.2 1.9c0 .7-.1 1.2-.2 1.7-.2.6-.5 1-.8 1.4-.3.3-.6.5-1.1.6-.3.1-.8.2-1.3.2h-2.8l.1-8zm1.5 1.3v5.3h1.1c.4 0 .7 0 .9-.1l.6-.3c.2-.2.3-.4.4-.8.1-.4.2-.8.2-1.5 0-.6-.1-1.1-.2-1.4-.1-.3-.2-.6-.4-.8-.2-.2-.4-.3-.7-.4-.2-.1-.6-.1-1.2-.1l-.7.1zm6 6.7v-8h1.5l3 5.3v-5.3h1.4v8h-1.5l-3-5.2v5.2h-1.4zm7.5 0v-8h1.5v8h-1.5zm7.7-3l1.5.5c-.2.9-.6 1.5-1.1 1.9s-1.2.6-2 .6c-1 0-1.8-.4-2.4-1.1-.6-.7-1-1.7-1-3s.3-2.4 1-3.1c.6-.7 1.5-1.1 2.5-1.1.9 0 1.7.3 2.2.9.3.3.6.8.8 1.5l-1.5.4c-.1-.4-.3-.7-.6-1-.3-.2-.6-.4-1-.4-.6 0-1 .2-1.3.6s-.5 1.1-.5 2.1.2 1.7.5 2.2c.3.4.8.6 1.3.6.4 0 .7-.1 1-.4.3-.2.5-.6.6-1.2zM164.1 67.9l-2.7-8h1.6l1.9 5.9 1.8-5.9h1.6l-2.7 8h-1.5zm5 0v-8h1.5v8h-1.5zm7.7-3l1.5.5c-.2.9-.6 1.5-1.1 1.9s-1.2.6-2 .6c-1 0-1.8-.4-2.4-1.1s-1-1.7-1-3 .3-2.4 1-3.1c.6-.7 1.5-1.1 2.5-1.1.9 0 1.7.3 2.2.9.3.3.6.8.8 1.5l-1.5.4c-.1-.4-.3-.7-.6-1-.3-.2-.6-.4-1-.4-.6 0-1 .2-1.3.6s-.5 1.1-.5 2.1.2 1.7.5 2.2c.3.4.8.6 1.3.6.4 0 .7-.1 1-.4.3-.2.5-.6.6-1.2zm4.5 3v-6.6h-2.2v-1.4h5.9v1.4h-2.2v6.6h-1.5zm4.2-4c0-.8.1-1.5.3-2 .2-.4.4-.8.7-1.1.3-.3.6-.6 1-.7.5-.2 1-.3 1.6-.3 1.1 0 2 .4 2.6 1.1.7.7 1 1.7 1 3s-.3 2.3-1 3-1.5 1.1-2.6 1.1-2-.4-2.6-1.1c-.7-.7-1-1.7-1-3zm1.5 0c0 .9.2 1.6.6 2.1s.9.7 1.5.7 1.1-.2 1.5-.7.6-1.2.6-2.1-.2-1.6-.6-2-.9-.7-1.5-.7-1.1.2-1.5.7c-.4.4-.6 1-.6 2zm6.9 4v-8h3.2c.8 0 1.4.1 1.7.2.4.1.7.4.9.8.2.4.3.8.3 1.3 0 .6-.2 1.1-.5 1.5s-.8.6-1.5.7c.3.2.6.4.8.7.2.2.5.7.9 1.3l.9 1.6h-1.8l-1.1-1.7c-.4-.6-.7-1-.8-1.2-.1-.2-.3-.3-.5-.3-.2-.1-.4-.1-.8-.1h-.3V68l-1.4-.1zm1.5-4.6h1.1c.7 0 1.2 0 1.4-.1.2-.1.3-.2.4-.3.1-.2.2-.4.2-.6 0-.3-.1-.5-.2-.6-.1-.2-.3-.3-.6-.3h-2.3v1.9zm5.9 4.6v-8h1.5v8h-1.5zm9.7 0h-1.6l-.7-1.8h-3l-.6 1.8h-1.6l2.9-8h1.6l3 8zm-2.8-3.2l-1-3-1 3h2zM.1 67.9v-8h1.5v8H.1zm3 0v-8h1.5l3 5.3v-5.3H9v8H7.5l-3-5.2v5.2H3.1zm9.1 0v-6.6H10V60h5.9v1.3h-2.2v6.6h-1.5zm4.7 0v-8h5.5v1.3h-4V63h3.7v1.3h-3.7v2.2h4.2v1.3h-5.7v.1zm7 0v-8h3.2c.8 0 1.4.1 1.7.2.4.1.7.4.9.8.2.4.3.8.3 1.3 0 .6-.2 1.1-.5 1.5s-.8.6-1.5.7c.3.2.6.4.8.7.2.2.5.7.9 1.3l.9 1.6h-1.8l-1.1-1.7c-.4-.6-.7-1-.8-1.2-.1-.2-.3-.3-.5-.3-.2-.1-.4-.1-.8-.1h-.3V68l-1.4-.1zm1.5-4.6h1.1c.7 0 1.2 0 1.4-.1.2-.1.3-.2.4-.3.1-.2.2-.4.2-.6 0-.3-.1-.5-.2-.6-.1-.2-.3-.3-.6-.3h-2.3v1.9zm5.9 4.6v-8h1.5v8h-1.5zm2.7-4c0-.8.1-1.5.3-2 .2-.4.4-.8.7-1.1.3-.3.6-.6 1-.7.5-.2 1-.3 1.6-.3 1.1 0 2 .4 2.6 1.1.7.7 1 1.7 1 3s-.3 2.3-1 3-1.5 1.1-2.6 1.1-2-.4-2.6-1.1c-.7-.7-1-1.7-1-3zm1.5 0c0 .9.2 1.6.6 2.1s.9.7 1.5.7 1.1-.2 1.5-.7.6-1.2.6-2.1-.2-1.6-.6-2-.9-.7-1.5-.7-1.1.2-1.5.7c-.4.4-.6 1-.6 2zm6.9 4v-8h3.2c.8 0 1.4.1 1.7.2.4.1.7.4.9.8.2.4.3.8.3 1.3 0 .6-.2 1.1-.5 1.5s-.8.6-1.5.7c.3.2.6.4.8.7.2.2.5.7.9 1.3l.9 1.6h-1.8l-1.1-1.7c-.4-.6-.7-1-.8-1.2-.1-.2-.3-.3-.5-.3-.2-.1-.4-.1-.8-.1h-.3V68l-1.4-.1zm1.5-4.6H45c.7 0 1.2 0 1.4-.1.2-.1.3-.2.4-.3.1-.2.2-.4.2-.6 0-.3-.1-.5-.2-.6-.1-.2-.3-.3-.6-.3h-2.3v1.9zM53.1 59.9h2.7c.6 0 1.1.1 1.4.2.4.1.8.4 1.1.7.3.4.5.8.7 1.3s.2 1.1.2 1.9c0 .7-.1 1.2-.2 1.7-.2.6-.5 1-.8 1.4-.3.3-.6.5-1.1.6-.3.1-.8.2-1.3.2H53l.1-8zm1.5 1.3v5.3h1.1c.4 0 .7 0 .9-.1l.6-.3c.2-.2.3-.4.4-.8s.2-.8.2-1.5c0-.6-.1-1.1-.2-1.4s-.2-.6-.4-.8c-.2-.2-.4-.3-.7-.4-.2-.1-.6-.1-1.2-.1l-.7.1zm6 6.7v-8h5.5v1.3h-4V63h3.7v1.3h-3.7v2.2h4.2v1.3h-5.7v.1zm6.6-2.6l1.5-.2c.1.5.3.9.5 1.2.3.2.6.4 1.1.4s.9-.1 1.1-.3c.2-.2.4-.5.4-.8 0-.2-.1-.3-.2-.5-.1-.1-.3-.2-.5-.3-.2-.1-.6-.2-1.2-.3-.8-.2-1.4-.5-1.7-.8-.5-.4-.7-1-.7-1.6 0-.4.1-.8.3-1.1.2-.4.5-.6.9-.8.4-.2.9-.3 1.5-.3.9 0 1.6.2 2.1.7.5.4.7 1 .7 1.8l-1.5.1c-.1-.4-.2-.7-.4-.9-.2-.2-.5-.3-1-.3-.4 0-.8.1-1 .3-.2.1-.2.3-.2.5s.1.4.2.5c.2.2.7.3 1.4.5s1.3.4 1.6.6c.4.2.6.5.8.8.2.3.3.8.3 1.3s-.1.9-.4 1.3c-.2.4-.6.7-1 .9-.4.2-1 .3-1.6.3-.9 0-1.7-.2-2.2-.7-.4-.8-.7-1.4-.8-2.3zm7.3 2.6v-8H76v8h-1.5zm6.4-3v-1.3h3.2v3.2c-.3.3-.8.6-1.4.9-.6.2-1.2.4-1.8.4-.8 0-1.5-.2-2-.5-.6-.4-1-.9-1.3-1.5-.3-.7-.4-1.4-.4-2.1 0-.8.2-1.6.5-2.2s.8-1.1 1.4-1.5c.5-.3 1.1-.4 1.8-.4.9 0 1.6.2 2.2.6.5.4.9 1 1 1.7l-1.5.3c-.1-.4-.3-.7-.6-.9-.3-.2-.7-.3-1.1-.3-.7 0-1.2.2-1.6.7-.4.4-.6 1.1-.6 2s.2 1.7.6 2.1c.4.5.9.7 1.5.7.3 0 .6-.1.9-.2s.6-.3.8-.5v-1h-1.6v-.2zm4.6 3v-8H87l3 5.3v-5.3h1.4v8h-1.5l-3-5.2v5.2h-1.4zM96.1 67.9v-8h1.5v8h-1.5zm2.9 0v-8h1.5l3 5.3v-5.3h1.4v8h-1.5l-3-5.2v5.2H99zm7.6 0v-8h1.5l3 5.3v-5.3h1.4v8H111l-3-5.2v5.2h-1.4zm7.1-4c0-.8.1-1.5.3-2 .2-.4.4-.8.7-1.1.3-.3.6-.6 1-.7.5-.2 1-.3 1.6-.3 1.1 0 2 .4 2.6 1.1.7.7 1 1.7 1 3s-.3 2.3-1 3-1.5 1.1-2.6 1.1-2-.4-2.6-1.1-1-1.7-1-3zm1.6 0c0 .9.2 1.6.6 2.1s.9.7 1.5.7 1.1-.2 1.5-.7.6-1.2.6-2.1-.2-1.6-.6-2-.9-.7-1.5-.7-1.1.2-1.5.7c-.4.4-.6 1-.6 2zm8.7 4l-2.7-8h1.6l1.9 5.9 1.8-5.9h1.6l-2.7 8H124zm11 0h-1.6l-.7-1.8h-3l-.6 1.8h-1.6l2.9-8h1.6l3 8zm-2.7-3.2l-1-3-1 3h2zm4.4 3.2v-6.6h-2.2V60h5.9v1.3h-2.2v6.6h-1.5zm4.7 0v-8h1.5v8h-1.5zm2.6-4c0-.8.1-1.5.3-2 .2-.4.4-.8.7-1.1.3-.3.6-.6 1-.7.5-.2 1-.3 1.6-.3 1.1 0 2 .4 2.6 1.1.7.7 1 1.7 1 3s-.3 2.3-1 3-1.5 1.1-2.6 1.1-2-.4-2.6-1.1c-.7-.7-1-1.7-1-3zm1.6 0c0 .9.2 1.6.6 2.1s.9.7 1.5.7 1.1-.2 1.5-.7.6-1.2.6-2.1-.2-1.6-.6-2-.9-.7-1.5-.7-1.1.2-1.5.7c-.5.4-.6 1-.6 2zm6.8 4v-8h1.5l3 5.3v-5.3h1.4v8h-1.5l-3-5.2v5.2h-1.4z"/><path fill="#20201E" class="ist2" d="M172.3 41.3c1.6 0 2.5-.3 3.8-1.4 2.7-2.3 3.2-6.5 3.2-9.9 0-2.3-.2-5.4-1.4-7.5-.8-1.3-1.8-2.5-3.3-2.9-1.6-.5-3.5-.7-5.2-.7h-3.7v24c0 1-.1 2.1-.3 3.1-.3 1-.8 1.7-1.7 2.2-.7.5-1.6.7-2.5.7s-1.7-.2-2.5-.7-1.4-1.3-1.7-2.2c-.3-1-.3-2-.3-3V16.7c0-1.4.3-3 1.3-4.1s2.5-1.3 4-1.3h9.1c2.1 0 4.3.2 6.4.7 1.9.5 3.6 1.5 5 2.8 4.4 3.9 5.7 9.6 5.7 15.3 0 2-.2 4.1-.6 6.1-.4 1.8-.9 3.5-1.8 5.1-.8 1.5-1.8 2.9-3.1 4.1-1 .9-2.1 1.7-3.3 2.2-1.2.6-2.5 1-3.8 1.2-2 .3-4.2.6-6.1 0-.8-.2-1.4-.7-1.9-1.5-.4-.6-.6-1.3-.6-2.1 0-.7.2-1.4.6-2.1s1-1.2 1.8-1.5c.8-.2 1.6-.3 2.4-.3h.5z"/><path fill="#20201E" class="ist2" d="M162.1 12.2h9.1c2.4 0 4.4.2 6.1.7s3.2 1.3 4.6 2.6c3.6 3.2 5.4 8 5.4 14.5 0 2.1-.2 4.1-.5 5.9-.4 1.8-.9 3.4-1.7 4.8-.8 1.4-1.7 2.7-2.9 3.8-.9.9-1.9 1.6-3 2.1s-2.3.9-3.6 1.1c-1.8.3-4 .6-5.7.1-.6-.2-1-.5-1.3-1-.2-.4-.4-.9-.4-1.6s.2-1.2.4-1.6c.3-.5.7-.9 1.3-1 .6-.2 1.3-.2 2.2-.2 1.9 0 3.1-.3 4.7-1.7 2.3-2 3.5-5.6 3.5-10.6 0-3.5-.5-6.2-1.5-7.9s-2.3-2.9-3.8-3.4-3.3-.7-5.5-.7h-4.6v25c0 1.1-.1 2.1-.3 2.8-.2.7-.6 1.3-1.3 1.7-.5.3-1.1.6-1.9.6s-1.5-.3-1.9-.6c-.6-.4-1.1-1-1.3-1.7-.2-.7-.3-1.6-.3-2.8V16.8c0-1.6.3-2.7 1-3.4.6-.8 1.7-1.2 3.2-1.2"/></svg><svg viewBox="0 0 13 10" id="check" xmlns="http://www.w3.org/2000/svg"><path fill="#430014" opacity=".89" d="M11.78 0H13v1.43C10.32 4.34 7.59 7.21 4.78 10H4.1C2.63 8.66 1.27 7.2 0 5.67V3.65a37.77 37.77 0 0 0 4.61 3.96C7.01 5.08 9.32 2.47 11.78 0z"/></svg><svg viewBox="0 0 115 115" id="features-1" xmlns="http://www.w3.org/2000/svg"><circle fill="#EAEAE8" cx="57.5" cy="57.5" r="57.5"/><path fill="#E0DCD2" d="M76.7 22.1L58.8 40 42.9 26.7l-6.8-.5-9.8 7.4-.9 7.9 15.5 16.1-17.1 17.5 39 39.6c23.3-2.2 42.6-18.3 49.4-40l2.6-15v-.1L76.7 22.1z"/><g fill="#4C0017"><path d="M39 24.6h3.5c.5 0 1 .2 1.4.5l9.2 9.2 10.2 10.2c2.7 2.7 5.4 5.5 8.2 8.2l8.7 8.7c.8.8 1.6 1.6 2.4 2.5.9.9.9 2.3 0 3.2-.9.9-2.2.9-3.1 0-1.9-1.8-3.7-3.7-5.6-5.5l-6-6-9.5-9.5c-5.5-5.5-10.9-10.9-16.3-16.4-.5-.5-1-.7-1.8-.7-1.1.1-2.3 0-3.4 0-.2 0-.6-.1-.7.1-.1.3.2.4.4.6L47.9 41l23.6 23.6 5.3 5.3c.7.7.6 1.5-.1 1.9s-1.2.1-1.6-.3L71 67.4 40.6 37c-1.9-1.9-3.8-3.8-5.6-5.7-.4-.4-.7-.5-1.1 0-.5.6-1.1 1.1-1.6 1.6-.4.4-.4.6 0 1l12.9 12.9 27.1 27.1c.4.4.8.8.6 1.4-.3.9-1.3 1.1-2 .4l-4.2-4.2-30.4-30.4c-1.9-1.9-3.8-3.8-5.7-5.6-.2-.2-.3-.5-.6-.3-.2.1-.1.4-.1.6v3.5c0 .7.2 1.1.7 1.6l21 21 16.2 16.2c.7.7 1 1.5.7 2.4s-.9 1.4-1.8 1.5c-.9.2-1.5-.2-2.1-.8l-7-7-30.3-30.3c-1.2-1.2-2-2.5-1.8-4.3.2-1.7.1-3.4 0-5.1 0-.9.3-1.6.9-2.3l7.2-7.2c.5-.5 1-.7 1.7-.7 1.2.3 2.4.3 3.7.3zM76.3 38.5c-.5 0-.8-.3-1.1-.6l-4-4c-.4-.4-.6-.4-1 0l-2.4 2.4c-.4.4-.4.6 0 1 1.4 1.4 2.8 2.7 4.1 4.1.8.8.5 1.9-.4 2.2-.6.2-1.1-.1-1.5-.5l-4-4c-.4-.4-.7-.4-1 0-.4.5-.9.9-1.4 1.4-.3.3-.6.4-.9 0l-1.9-1.9c-.3-.3-.3-.5 0-.8l.3-.3L76 22.6c.7-.7.7-.7 1.5 0l16.1 16.1c.5.5.5.8 0 1.3-5.1 5-10.1 10.1-15.1 15.1-.5.5-.8.6-1.3 0-.4-.5-.9-1-1.4-1.4-.6-.5-.6-.8 0-1.3l9-9 3.4-3.4c.4-.4.5-.7 0-1.2L77.4 28c-.6-.6-.9-.6-1.4 0-.9 1-1.9 2-2.9 2.9-.5.5-.6.8 0 1.3 1.4 1.3 2.7 2.6 4 4 .7.7.6 1.7-.1 2.2-.2.1-.4.1-.7.1zM45.1 69.8c-.5 0-.8-.3-1.2-.6l-4-4c-.4-.4-.6-.4-1 0l-2.4 2.4c-.3.3-.3.5 0 .9 1.4 1.4 2.8 2.8 4.2 4.3.7.7.6 1.7-.3 2.1-.6.3-1.1.1-1.6-.3l-4.1-4.1c-.4-.4-.7-.4-1.1 0-1.3 1.4-2.7 2.7-4 4-.4.4-.5.6 0 1.1l11.1 11.1c.5.5.7.2 1.1-.1L53.4 75c.8-.8.8-.8 1.7 0 .4.5.9.9 1.4 1.3.4.4.4.7 0 1.1l-7.2 7.2-7.4 7.4c-.5.5-.8.5-1.2 0L24.5 75.8c-.5-.5-.5-.8 0-1.3 4.8-4.8 9.7-9.6 14.4-14.5.5-.5.8-.5 1.3 0 .5.6 1 1.1 1.6 1.6.3.3.5.6.1 1-.4.3-.2.6.1.8l4.2 4.2c.4.4.6.9.4 1.5-.6.4-1 .7-1.5.7zM92 88c0 1.6-1.3 2.6-2.9 2.2-3.7-.9-7.4-1.9-11.2-2.8-2.2-.6-4.5-1.1-6.7-1.7-1.6-.4-2.3-1.8-1.6-3.2.5-1 1.4-1.5 2.6-1.2 2.8.7 5.5 1.4 8.3 2.1.8.2 1.3.2 1.9-.5.7-.9 1.5-1.6 2.3-2.3.3-.3.4-.6.3-1-.8-2.6-1.5-5.2-2.3-7.7-.1-.3-.2-.6-.3-1-.3-1.2.4-2.3 1.5-2.7 1.2-.3 2.3.2 2.7 1.4.6 1.8 1.1 3.7 1.6 5.5 1.1 3.9 2.3 7.8 3.4 11.7.3.4.4.8.4 1.2z"/></g></svg><svg viewBox="0 0 115 115" id="features-2" xmlns="http://www.w3.org/2000/svg"><circle fill="#EAEAE8" cx="57.5" cy="57.5" r="57.5"/><path fill="#E0DCD2" d="M114.9 60.5L89 35.4l-4.4-1.9-9.8-9.8-1.2-.1-5.6-1-14.6 11.8H30.9L27 37.2l-.1 39.9-6 5.9 30.5 31.6c2 .2 4.1.3 6.1.3 30.7.1 55.8-24 57.4-54.4z"/><g fill="#4C0017"><path d="M57.5 85.2H25.1c-3 0-5.2-2.2-5.2-5.2v-3.4c0-.7.2-1 .9-1 1.2.1 2.5 0 3.7 0 1 0 1.1 0 1.1-1V53.5v-15c0-2.9 2.2-5.1 5.1-5.1h19.6c.3 0 .4.2.2.4-.7.7-1.4 1.4-2.1 2-.3.2-.7.1-1 .1H31.5c-2.4 0-3.3.9-3.3 3.2v35.2c0 1.2 0 1.2 1.2 1.2h17.2c.7 0 1 .1 1.1 1 .2 1.4 1.2 2.2 2.8 2.2h13.3c1.5-.1 2.5-.9 2.6-2.3.1-.7.4-.8 1-.8h18.7c1.1 0 1.1 0 1.1-1.1V39.6v-.9c-.1-1.7-1-2.7-2.7-2.7h-1.7c-.4 0-.6-.1-.6-.6.1-2.3-.4-2 2-2 3 0 5 1.4 5.6 4 .1.6.1 1.2.1 1.7v35.4c0 1 0 1 1.1 1 1 0 2 .1 3 0 .8-.1 1 .3 1 1-.1 1.2 0 2.3 0 3.5 0 2.8-2.2 5-5.1 5-10.8.2-21.6.2-32.4.2z"/><path d="M69.3 22.1h2.8c.7 0 1.2.2 1.7.7 1.7 1.8 3.5 3.5 5.2 5.2.6.6.9 1.3.9 2.2v4.9c0 .7-.2 1.3-.7 1.8L61.3 54.8c-1 1-2 1-2.8.3-.7-.7-.6-1.8.3-2.7 5.7-5.6 11.3-11.3 17-16.9.6-.6.9-1.1.8-2-.1-.7 0-1.5 0-2.2 0-.3.1-.6-.2-.7-.3-.1-.5.1-.7.3-.2.1-.3.3-.4.4L56.7 49.9l-.6.6c-.4.4-.9.4-1.3 0s-.4-.9 0-1.3l.6-.6 18.9-18.9c.5-.5.6-.8 0-1.3-1.5-1.4-1.5-1.5-3 0L53.1 46.6c-.8.8-1.3.9-1.8.5-.5-.5-.3-1 .5-1.8 6.3-6.3 12.6-12.6 18.8-18.9l.5-.5c.2-.3.1-.4-.2-.4h-3.5c-.4 0-.6.4-.9.6L49.7 42.9c-.2.2-.4.5-.7.7-.8.7-1.7.6-2.3 0-.7-.7-.8-1.7-.1-2.4l.6-.6 17.4-17.4c.6-.6 1.3-.9 2.2-.9.9-.1 1.7-.2 2.5-.2zM57.4 56.4c0 .9-.4 1.5-1.4 1.8-1.8.5-3.6.9-5.4 1.4-2.7.7-5.3 1.4-8 2-.4.1-.7.2-1.1.2-1.3.2-2.4-.9-2-2.2 1.3-4.7 2.7-9.4 4.1-14.1.3-1 1.3-1.5 2.2-1.2 1 .3 1.5 1.2 1.2 2.3-.6 2.1-1.2 4.3-1.9 6.4-.2.5-.1.9.3 1.3.2.1.3.3.4.4 1.1 1.7 2.6 1.9 4.5 1.2 1.5-.6 3.2-.9 4.8-1.3 1.2-.2 2.3.6 2.3 1.8z"/></g></svg><svg viewBox="0 0 115 115.1" id="features-3" xmlns="http://www.w3.org/2000/svg"><circle fill="#EAEAE8" cx="57.5" cy="57.5" r="57.5"/><path fill="#E0DCD2" d="M112.6 73.8L66.7 27.9c-1.1-.5-10.2-2.7-12.8-2.1s-9.3 4-11.4 8.3-1.8 11.4-1.8 11.4l4.4 9.1-14 8.1-10.2 21.2 30.9 30.9c1.8.2 3.7.3 5.6.3 26.2-.1 48.2-17.5 55.2-41.3z"/><g fill="#530A20"><path d="M56.1 87.5c-1.4-.9-2.9-1.7-4.3-2.6-4.3-2.6-8.7-5.1-13-7.7-.3-.2-.5-.2-.8 0-5.4 2.3-10.8 4.6-16.1 7-.3.1-.6.2-.9.1-.7-.2-.9-.9-.6-1.5.6-1.4 1.3-2.7 1.9-4.1 2.6-5.7 5.3-11.4 7.9-17.1.2-.4.4-.6.8-.8 3.4-1.7 6.8-3.4 10.2-5.2.1-.1.2-.1.4-.2.5-.2 1.1 0 1.3.5.3.5.1 1-.3 1.4-.1.1-.3.2-.5.3-3.2 1.6-6.4 3.2-9.6 4.9-.3.1-.5.3-.6.6-2.7 5.9-5.5 11.8-8.2 17.7 0 .1-.1.2-.1.3.1.1.2 0 .3 0 4.6-2 9.1-3.9 13.7-5.9.2-.1.4-.3.4-.5 1.3-3.4 2.5-6.8 3.8-10.2.1-.4.3-.7.7-.7.7-.2 1.3.5 1.1 1.2-.3.9-.7 1.8-1 2.7-.9 2.5-1.8 5-2.8 7.4-.1.3-.1.4.2.5 5.1 3 10.1 6 15.2 9 .4.2.4.2.4-.2v-6.1c0-.2 0-.4.1-.7.1-.4.4-.7.9-.7s.8.2.9.6c.1.2.1.4.1.6v6.3c0 .5 0 .5.4.3 3.9-2.2 7.9-4.5 11.8-6.7l3.3-1.8c.3-.2.4-.4.3-.8-1.2-3.3-2.5-6.6-3.7-9.8 0-.1-.1-.2-.1-.3-.2-.7-.1-1.2.5-1.4.5-.2 1 .1 1.2.7.3.9.7 1.8 1 2.7 1 2.6 2 5.2 2.9 7.8.1.2.2.4.5.5 5.8 2.4 11.6 4.9 17.4 7.3.1 0 .2.2.3 0 .1-.1 0-.2-.1-.3-1.4-3.2-2.8-6.4-4.2-9.5-1.5-3.3-2.9-6.7-4.4-10-.2-.4-.4-.6-.8-.8-3.8-1.5-7.7-3-11.5-4.5-.1-.1-.3-.1-.4-.2-.5-.3-.7-.8-.5-1.3s.8-.8 1.3-.6c.7.2 1.4.5 2 .8 3.5 1.4 7.1 2.8 10.6 4.2.5.2.8.5 1 1 3.3 7.6 6.7 15.3 10.1 22.9 0 .1.1.2.1.3v.7c-.4.7-.8.9-1.6.5-6.6-2.7-13.1-5.5-19.7-8.2-.4-.2-.7-.2-1.1.1-2.9 1.7-5.8 3.3-8.6 4.9-2.8 1.6-5.7 3.3-8.5 4.9-.5-.3-.7-.3-1-.3z"/><path d="M73.6 41.3c0 3.2-.7 5.9-2.1 8.5-2.8 5.1-5.5 10.1-8.2 15.2-1.9 3.5-3.8 6.9-5.6 10.4-.2.4-.5.7-1 .6-.4 0-.8-.2-1-.6l-3.9-7.2c-3.4-6.3-6.7-12.6-10.1-18.9-1.1-2.1-1.7-4.3-1.9-6.7-.3-4.6 1.1-8.7 4.2-12.2 2.6-3 5.9-4.8 9.8-5.5 7.4-1.3 14.8 2.4 18.1 9.2 1.1 2.3 1.7 4.8 1.7 7.2zm-17 31.4c.1-.1.1-.2.1-.2 2.2-4 4.4-8.1 6.6-12.1 2.1-3.9 4.3-7.8 6.4-11.8 1.5-2.7 2.1-5.6 1.7-8.7-.3-2.6-1.2-5-2.8-7.1-3-4-7-6-12-6.1-1.9 0-3.8.3-5.6 1.1-5.6 2.5-8.6 6.8-9.1 12.9-.2 2.8.5 5.4 1.8 7.8 1.3 2.5 2.6 4.9 4 7.4 2.4 4.5 4.8 9.1 7.3 13.6.4 1.1 1 2.1 1.6 3.2z"/><path d="M57.3 55.3c-.5 0-.8-.3-.9-.9-.2-1.1-.5-2.2-.7-3.3-.4-1.6-.7-3.2-1-4.9-.1-.3-.2-.5-.5-.5-2.7-.4-5.3-.9-8-1.3-.8-.1-1.2-.9-.8-1.5.1-.2.4-.3.6-.4 2.6-1 5.3-1.9 7.9-2.9 3.1-1.1 6.1-2.2 9.2-3.4.4-.2.8-.2 1.1.2.3.3.3.7.2 1.1-.8 2.3-1.6 4.5-2.5 6.8-1.2 3.4-2.5 6.8-3.7 10.2-.2.5-.5.8-.9.8zm.2-4.4c.2-.2.2-.3.2-.4 1.1-3 2.1-5.9 3.2-8.9.3-.8.6-1.7.9-2.5 0-.1.2-.3.1-.4s-.2 0-.4.1h-.1c-3.8 1.4-7.5 2.8-11.3 4.2-.1 0-.2 0-.3.2.1 0 .2 0 .3.1 1.7.3 3.4.6 5.1.8.7.1.9.3 1 1 .2.9.4 1.7.6 2.6.2 1 .4 2.1.7 3.2z"/></g></svg><svg viewBox="0 0 115 115" id="features-4" xmlns="http://www.w3.org/2000/svg"><circle fill="#EAEAE8" cx="57.5" cy="57.5" r="57.5"/><path fill="#E0DCD2" d="M114.5 64.8L82 32.3l-46.2 1.2-14.9 15.2 37.7 49.1 14.9 14.9c21.7-6.3 38.1-25 41-47.9z"/><path fill="#4C0017" d="M82 32.3c3.6 4 7.2 7.9 10.8 11.9 1.4 1.5 2.8 3.1 4.1 4.6.3.3.3.5 0 .8-7.4 9.2-14.7 18.5-22.1 27.7-5.3 6.7-10.7 13.4-16 20.2-.4.5-.4.5-.7 0L33.5 66.6c-4.6-5.7-9.1-11.4-13.7-17.2l-.3-.3v-.2c3.1-3.4 6.3-6.8 9.4-10.3 2-2.1 3.9-4.3 5.9-6.5 15.8.2 31.5.2 47.2.2zM61 90.1s.1 0 0 0c.6-.6 1.1-1.2 1.7-1.9 6.4-8 12.8-16 19.1-24L92.3 51c.1-.1.2-.2.2-.3-.1-.1-.2-.1-.4-.1H71.4c-.6 0-.6 0-.8.6-2.8 11.3-5.6 22.6-8.4 34-.4 1.6-.8 3.3-1.2 4.9zm-5.2.1s.1 0 0 0c.1-.1.1-.1 0-.2-1-4-1.9-8-2.9-12-2.2-9-4.4-17.9-6.7-26.8-.1-.4-.3-.6-.7-.6H24.8c-.1 0-.3-.1-.4.1-.1.1.1.3.2.4 1.7 2.2 3.5 4.4 5.3 6.7 7.5 9.4 14.9 18.7 22.4 28.1 1.2 1.3 2.3 2.8 3.5 4.3zm2.6-1.9c.1-.3.2-.5.3-.8 1.9-7.2 3.6-14.4 5.4-21.6 1.2-4.9 2.4-9.9 3.7-14.8.1-.5.1-.5-.3-.5h-18c-.4 0-.5 0-.3.5.3 1.4.7 2.7 1 4.1 2.5 9.9 4.9 19.7 7.4 29.6.2 1.1.5 2.3.8 3.5zM24.6 47.6c.1.1.2.1.3.1H44.1c.2 0 .2-.1.1-.3-.1-.1-.1-.2-.2-.3-2.5-3.9-5-7.7-7.6-11.5-.5-.7-.4-.6-.9-.1-3.2 3.5-6.4 7-9.6 10.4-.3.7-.8 1.2-1.3 1.7zm67.6.1c-.1-.2-.2-.3-.2-.3-1.1-1.3-2.2-2.5-3.4-3.8-2.3-2.6-4.7-5.2-7-7.7-.7-.7-.5-.8-1.1.1-2.4 3.7-4.6 7.6-6.9 11.4-.2.3-.1.3.2.3h18.4zm-33.2 0H66.7c.4 0 .3-.1.2-.4-2.2-3.5-4.5-6.9-6.7-10.3-.4-.6-.8-1.2-1.2-1.7-.2-.2-.3-.2-.5 0s-.4.5-.6.7c-2.5 3.5-4.8 7-7.2 10.6-.2.2-.3.5-.5.7-.1.2-.2.3.1.3.6 0 1.1.1 1.7.1h7zm10.5-12.6h-6.9c-.1 0-.3-.1-.3.1-.1.1.1.2.1.3 2.5 3.8 5 7.7 7.5 11.5.2.4.2.4.5 0 1.1-1.9 2.3-3.7 3.4-5.6l3.3-5.7c.3-.5.3-.5-.3-.6h-7.3zm-22.4 0c-2 0-4.5-.1-7 .1-.5 0-.5 0-.2.5l6.9 10.5c.3.4.3.4.6 0 2.4-3.5 4.8-7 7.1-10.6.1-.1.2-.2.2-.3-.1-.1-.2-.1-.4-.1-2.2-.1-4.4-.1-7.2-.1z"/></svg><svg viewBox="0 0 115 115" id="features-5" xmlns="http://www.w3.org/2000/svg"><circle fill="#EAEAE8" cx="57.5" cy="57.5" r="57.5"/><path fill="#E0DCD2" d="M114.9 60.3L79.8 25.2l-37.2-.7-6.4 3.6v37.5l1.4 26.1 23.2 23.2c29.3-1.7 52.7-25.3 54.1-54.6z"/><g fill="#4C0017"><path d="M40.8 23.4h35.9c3.7 1.3 5.5 3.8 5.5 7.8v54.4c0 1.2-.2 2.5-.7 3.6-1.1 2.2-2.9 3.5-5.3 4.1H41.4c-3.8-.8-6.1-4-6.1-8.3.1-17.9 0-35.9 0-53.8 0-4 1.7-6.5 5.5-7.8zm17.9 55.2h19.4c1 0 1 0 1-1V38.9c0-1 0-1-1-1H39.4c-1 0-1 0-1 .9v38.8c0 .9 0 .9 1 .9 6.4.1 12.8.1 19.3.1zm0 3.1H39.2c-.9 0-.9 0-.9.9V86c0 2.4 1.8 4.2 4.2 4.2h32.3c2.4 0 4.2-1.9 4.2-4.2v-3.4c0-1 0-1-1-1-6.4.1-12.8.1-19.3.1zm-.1-46.9H78c1 0 1 0 1-1v-3.4c0-1.8-1.3-3.4-3-4-.6-.2-1.2-.2-1.8-.2H42.4c-2.3.1-4.1 1.9-4.1 4.2v3.4c0 1 0 1 1 1h19.3z"/><path d="M58.7 89c-1.7 0-3-1.4-3-3 0-1.7 1.4-3 3-3s2.9 1.4 3 3c0 1.6-1.3 3-3 3zM58.7 32.1h-7.2c-1.1 0-1.8-.8-1.6-1.8.1-.6.5-1 1.1-1.1.4-.1.8-.1 1.2-.1h13c.3 0 .6 0 1 .1.9.2 1.4.8 1.4 1.7-.1.8-.7 1.4-1.6 1.4-2.5-.2-4.9-.2-7.3-.2z"/></g></svg><svg viewBox="0 0 115 115" id="features-6" xmlns="http://www.w3.org/2000/svg"><circle fill="#EAEAE8" cx="57.5" cy="57.5" r="57.5"/><path fill="#E0DCD2" d="M115 57.5v-.8L86.3 28s-8.4-1.4-8.7-1.8-41.4 0-41.4 0l-6.8 5.4 1 55.1 28.2 28.2c31.2-.6 56.4-26.1 56.4-57.4z"/><path fill="#4C0017" d="M79.8 90.2H36.5c-4.3-.7-7.2-3.1-8.6-7.3-.2-.6-.3-1.2-.4-1.9V33.8v-.3c.5-3.5 2.4-6.1 5.4-7.8 1.1-.6 2.4-1 3.7-1.1H79.9c2 .3 3.8 1 5.4 2.4 2.4 2.1 3.6 4.7 3.7 7.9V63.2c0 .2.1.3.3.3H90.6c1.2 0 2 .4 2.4 1.6v9.2c-.5 1.2-1.1 1.6-2.4 1.6h-1.3c-.2 0-.3.1-.3.3v1.2c0 1.3.1 2.5-.1 3.8-.6 3.7-2.5 6.4-5.9 8-1 .6-2.1.9-3.2 1zm-21.6-4.1h20.7c3.2-.1 5.8-2.8 5.8-5.9v-3.7c0-.5 0-.5-.5-.5h-9.7c-3.3 0-6.1-2.7-6.2-6-.1-3.4 2.7-6.3 6.1-6.3h9.8c.5 0 .5 0 .5-.5v-3.8c0-.3 0-.6-.1-1-.6-2.9-3.1-4.9-6.1-4.9H37.7c-2.1 0-4-.6-5.7-1.7-.1-.1-.3-.3-.4-.2s-.1.3-.1.5v28.3c.1 1.7.8 3.1 2 4.2s2.7 1.6 4.3 1.6c6.9-.1 13.7-.1 20.4-.1zM31.7 36.8s.1 0 .1.1c0 0 0-.1.1-.1 2.2-2.6 5-3.9 8.3-3.9h38.5c.9 0 1.6.4 2 1.3.1.3.2.7.2 1v13.9c0 .3.1.3.3.4 1.2.3 2.3.8 3.4 1.5.1 0 .1.1.2.1s.1-.2.1-.3V34.6c0-1.4-.5-2.6-1.4-3.6-1.3-1.5-2.9-2.2-4.9-2.2H37.7c-2.7.1-5 1.9-5.7 4.5-.5 1.2-.3 2.3-.3 3.5zM34 45c.1-.1.1-.1 0 0 .1-.1.1-.1.1-.2 1.2-2.4 3-3.7 5.7-3.7H76c.5 0 .5 0 .5-.5v-3c0-.5 0-.5-.5-.5H39.7c-2.9 0-5.3 2-6 4.8-.1 1-.1 2 .3 3.1zm23.9 4.2h18.2c.5 0 .5 0 .5-.5v-3.1c0-.4 0-.4-.5-.4H39.7c-1.3 0-2.2 1.3-1.9 2.6.3.9 1 1.4 2.1 1.4h18zm23.6 18.6h-6.9c-1.1 0-2 .9-2 2s.9 2 2 2h13.9c.3 0 .4-.1.4-.4v-3c0-.5 0-.5-.5-.5-2.3-.1-4.6-.1-6.9-.1z"/></svg><svg viewBox="0 0 65 65" id="insta" xmlns="http://www.w3.org/2000/svg"><path d="M18.8 0h26.8C55.8 0 64.7 8.7 65 18.8v26.9c0 10.2-8.7 19-18.8 19.3H19.3C9.2 65 .3 56.3 0 46.2V19.3C0 9.2 8.7.3 18.8 0m-4.3 7.7C10 9.5 6.8 14.1 6.7 19v27c0 6.5 5.8 12.3 12.3 12.3h26.9c6.5 0 12.3-5.8 12.3-12.3.1-9 .1-18 0-27 0-6.5-5.8-12.4-12.4-12.3-7.7-.1-15.3 0-23 0-2.7 0-5.7-.2-8.3 1z"/><path fill="#C3C1C3" d="M47.3 12.3c2.5-1.5 6.2.6 6 3.6.1 2.9-3.4 5-5.9 3.6-2.8-1.3-2.9-5.8-.1-7.2zM27.3 16.5C37.1 13 48.6 20.6 49.2 31 50.5 41 41 50.5 31 49.2c-10-.6-17.6-11.5-14.7-21.1 1.4-5.4 5.7-9.9 11-11.6m1 6.7c-4.7 2-7.3 7.9-5.4 12.7 1.7 5.2 7.9 8.2 13 6.2 5.2-1.7 8.3-7.9 6.2-13-1.8-5.5-8.6-8.5-13.8-5.9z"/></svg><svg viewBox="0 0 21 19" id="quotes" xmlns="http://www.w3.org/2000/svg"><g fill="#4C0017"><path d="M0 .5C2.7.5 5.4.5 8.1.4c-.2 5.2 1 11.1-2.2 15.6-1.3 2-3.8 2.4-5.9 2.8v-3c3.1-1.3 4.5-4.3 4.7-7.5-1.6.1-3.2 0-4.7 0V.5zM13.1.5H21v10c-.4 4.2-3.1 8-7.6 8.5-.1-1.1-.3-2.2-.4-3.2 3.2-1.1 4.3-4.2 4.5-7.3-1.5-.1-3-.1-4.5-.1.2-2.7.1-5.3.1-7.9z"/></g></svg><svg viewBox="0 0 151 151" id="serv-icons-building" xmlns="http://www.w3.org/2000/svg"><circle fill="#E9E0CF" cx="75.5" cy="75.5" r="75.5"/><g fill="#4C0017"><path d="M39.6 105.1c.7-.9 1.5-1.6 2.7-1.7h14.6c.5 0 1 .1 1.5-.2-.6-.9-1.5-1.3-2.2-2-1.7-1.7-3.3-3.5-4.4-5.7-.4-.9-.9-1.8-1.4-2.6-.4-.6-.5-1.3-.7-2-.5-1.7-.9-3.5-1.1-5.2-.2-1.6-.1-3.2-.1-4.8 0-1.3-.1-2.6-.1-4 0-1.3 0-2.5.1-3.8 0-1.3.1-2.6 0-3.9-.1-1.1 0-2.3 0-3.4 0-1.3-.2-2.6.1-4 .2-1.1.7-1.9 1.7-2.6 1.6-1 3.3-.5 4.9-.6 1.4-.1 2.8 0 4.2 0h3.4c3.4-.1 6.9 0 10.3 0 2.2 0 4.4.1 6.6.1s4.4-.1 6.6-.1 4.3 0 6.5.1h6.6c2 0 4.1-.1 6.1 0 2.5.2 4.4 1.4 5.9 3.6 1.3 1.9 1.6 3.9 1.6 6 0 2.2.1 4.4.1 6.6s-.1 4.4-.1 6.5v3.4c0 1.8-.5 2.7-2.1 3.4-1.4.6-3.4-.8-3.7-2.4-.3-1.5-.1-3-.1-4.6-.1-2.3 0-4.5 0-6.8 0-2.2-.1-4.4 0-6.6.1-1.1-.4-2-.9-2.8-.4-.6-1.3-.5-1.9-.6-.8-.1-1.7.2-2.6 0-.4-.1-.4.3-.4.6v4.2c0 1.4.1 2.7.1 4.1V81c0 1.5.1 3-.1 4.5-.2 1.6-.3 3.1-.7 4.6-.5 2.4-1.4 4.7-2.6 6.8-1.4 2.4-3 4.6-5.4 6.3 1.8.2 3.5.1 5.1.1h7c1.2 0 2.4.1 3.6 0 1.7-.2 2.8.7 3.4 2.2.4 1.1-.6 3.1-1.9 3.6-.3.1-.5.2-.8.3H40.4c-.6 0-.8-.2-.8-.8v-3.5zm35.5-24.9h-1c-2.2 0-4.4.1-6.6.1-3.1 0-6.1-.1-9.2 0-1.1 0-2.2-.1-3.2 0-.4.1-.6.2-.6.7-.2 2.2-.1 4.3.4 6.4.5 2.4 1.2 4.8 2.8 6.8.5.7.9 1.6 1.5 2.2 1.1 1.1 2.1 2.3 3.4 3.2 1.6 1.1 3.1 2.2 5 2.8.8.3 1.5.4 2.3.7 1.3.6 2.7.6 4.1.7 1.2.1 2.3 0 3.5-.2 1.5-.2 3-.5 4.4-1 2.1-.7 4-1.9 5.8-3.2 1.6-1.2 2.9-2.7 4.1-4.3.7-1 1.3-2.1 1.8-3.2.8-1.6 1.3-3.4 1.5-5.2.2-1.7.4-3.5.3-5.3 0-.7 0-1.1-.9-1-1.9.1-3.9 0-5.8 0h-6.6c-2.5-.2-4.8-.2-7-.2zm-20.7-10c-.1.7.1 2 0 3.3 0 .3-.1.9.4.8 1-.2 1.9.1 2.9 0 1.3-.2 2.5 0 3.8 0 1.6-.1 3.1 0 4.7 0H78c1.4 0 2.7 0 4.1-.1h3.7c1.3 0 2.7.1 4 0 1.2-.1 2.5 0 3.7 0 2 0 1.8.5 1.9-1.9v-7.1c0-.5-.2-.5-.6-.6-1.1-.1-2.1 0-3.1 0h-8.3c-1.3 0-2.7-.1-4 0-1.2.1-2.5 0-3.7 0h-8.3c-1.3 0-2.7 0-4-.1h-7.9c-.7 0-1.1.4-1 1.2-.1 1.3-.1 2.6-.1 4.5zM76.2 37.6c1.6 1.1 1.7 2.6 1.7 4.4-.1 2.5 0 5.1 0 7.6 0 .9-.2 1.6-.6 2.4-.4.9-2.5 1.5-3.3 1-1.6-.8-2.1-1.9-2.1-3.8.1-2.2 0-4.5 0-6.7 0-.9-.1-1.9.1-2.8.1-1 .9-1.5 1.6-2.1h2.6zM81.7 50c-.4-1.1.1-2.4-.1-3.7-.2-1.5 1.7-3.2 3.1-3 2.5.3 3.1 2.1 3 4.3v2c.1 1.5-.6 2.6-1.9 3.3-1 .6-2.1.2-2.9-.3-.9-.5-1.5-1.4-1.2-2.6zM68 48v2.8c0 .9-.7 1.5-1.3 2-.9.8-2.8.3-3.7-.4-1.4-1.2-.7-2.8-.9-4.2-.1-.4.1-.9 0-1.3-.2-1.7 1.1-3.4 2.9-3.5 1.4-.1 3.2 1.5 3.1 2.9-.1.6-.1 1.3-.1 1.7z"/></g><path fill="#4C0017" d="M74.8 53.4c-1.7 0-3-1.4-3-3V40.3c0-1.7 1.4-3 3-3 1.7 0 3 1.4 3 3v10.1c0 1.6-1.3 3-3 3zM65.1 53.4c-1.7 0-3-1.4-3-3v-4.1c0-1.7 1.4-3 3-3 1.7 0 3 1.4 3 3v4.1c0 1.6-1.4 3-3 3zM84.5 53.4c-1.7 0-3-1.4-3-3v-4.1c0-1.7 1.4-3 3-3 1.7 0 3 1.4 3 3v4.1c0 1.6-1.3 3-3 3z"/></svg><svg viewBox="0 0 151 151" id="serv-icons-flat" xmlns="http://www.w3.org/2000/svg"><circle fill="#E9E0CF" cx="75.5" cy="75.5" r="75.5"/><g fill="#4C0017"><path d="M56.4 35.1h38.1V48.5c0 .6.2.7.7.7h18.3v60.9c0 .6-.1.7-.7.7H38.1c-.6 0-.7-.1-.7-.7V49.2h18.3c.4 0 .6-.1.6-.5v-7.8c.1-1.9.1-3.8.1-5.8zM61.2 73v32.6c0 .5.2.7.7.7h3.3c.5 0 .7-.2.7-.7 0-4.3 0-8.5-.1-12.8 0-.8.2-.9.9-.9h17.7c.4 0 .5.1.5.5v13c0 .5.2.7.7.7H89c.5 0 .6-.2.6-.6V93.2 80.1 67 53.9 40.2c0-.6-.2-.8-.8-.8H62.1c-1.1 0-1 0-1 1V62c.1 3.9.1 7.5.1 11zm-19.1 7.1c.1 0 .1 0 0 0v25.4c0 .7.2.8.9.8h12.4c1 0 1 0 1-1V94.5 81.4 68.3 54.6c0-.6-.2-.8-.8-.8H42.7c-.5 0-.6.1-.6.6v25.7zm52.4.1V105.5c0 .6.2.9.8.9h12.4c1 0 1 0 1-1V94.7 81.6 68.5 54.9c0-.6-.2-.9-.8-.9H95.1c-.5 0-.6.2-.6.6v25.6zm-14.3 21.6v-4.1c0-.5-.2-.7-.7-.7h-8.2c-.5 0-.6.2-.6.6v8.1c0 .6.2.8.8.8h8.1c.5 0 .6-.2.6-.6v-4.1z"/><path d="M75.4 49.3h9c.5 0 .6.1.6.6v3.6c0 .5-.1.7-.7.7H66.5c-.5 0-.7-.2-.7-.7v-3.2c0-1 0-1 1-1 2.9-.1 5.8-.1 8.6 0 0-.1 0-.1 0 0zM75.4 68.3h-8.9c-.5 0-.6-.2-.6-.6v-3.6c0-.5.2-.7.7-.7h17.7c.6 0 .7.2.7.8v3.3c0 .7-.2.8-.8.8-2.9.1-5.9.1-8.8 0 0 .1 0 .1 0 0zM75.5 77.8h9c.4 0 .6.1.6.5V82c0 .5-.2.6-.6.6H66.7c-.6 0-.7-.2-.7-.7v-3.4c0-.6.2-.7.8-.7h8.7z"/></g></svg><svg viewBox="0 0 151 151" id="serv-icons-house" xmlns="http://www.w3.org/2000/svg"><circle fill="#E9E0CF" cx="75.5" cy="75.5" r="75.5"/><g fill="#4C0017"><path d="M43.7 112.9c-.1-2.5 0-4.9-.1-7.4V93.9 82.3v-4.8c0-.9.2-1.6 1.1-2 1.2-.5 2.4.3 2.5 1.6v4.3c0 1.2.1 2.5 0 3.7-.1 1.3 0 2.6.1 3.8V104.3c0 1.3 0 2.6-.1 3.8-.1 1.4.2 1.7 1.6 1.6s2.7 0 4.1 0h7.8c1.1 0 2.1-.2 3.2 0 .4.1.5-.2.5-.5V96.3 88c0-.5.2-.7.7-.7H84.4c.6 0 .7.2.7.7v20.7c0 .6.1.8.8.9 1.6.1 3.2 0 4.7 0 1.2 0 2.5-.1 3.7 0 1.3.1 2.6 0 3.8 0 1.2 0 2.3.1 3.5 0 .5 0 .6 0 .6-.5 0-1.3.1-2.6 0-3.9s.1-2.6 0-3.8c-.1-1.2 0-2.5 0-3.7v-3.8-3.8c0-1.3.1-2.5 0-3.8-.1-1.2 0-2.4 0-3.5 0-1.3-.1-2.6 0-3.8.1-1.2.7-1.9 1.8-1.9 1 0 1.8.7 1.8 1.9v31.9c0 .7.1 1.4 0 2.1h-24c-.1-.6-.2-1.3-.2-1.9.1-1.5 0-3 0-4.6v-3.4c0-1.3.1-2.6 0-3.8-.1-1.2 0-2.5 0-3.7 0-1.3-.2-2.5 0-3.8.1-.5-.3-.9-.8-.8-.6 0-1.2.2-1.8.1-1.3-.2-2.6 0-3.8-.1-2.3-.1-4.5 0-6.8 0-.2 0-.5 0-.4.3.2.9-.1 1.7 0 2.6.1 1.4 0 2.7 0 4.1v3.7c.1 1.2 0 2.5 0 3.7v3.8c0 1.3-.1 2.6 0 3.8-8.2-.1-16.2-.1-24.3-.1z"/><path d="M33.4 74.8c.2-.3.3-.7.6-.9 2-1.9 3.9-3.7 5.9-5.6s3.9-3.8 5.8-5.6c1.5-1.5 3.1-2.9 4.6-4.3 1.6-1.5 3.2-3.1 4.8-4.6 2.7-2.6 5.4-5.1 8.1-7.7l9-8.7c.7-.6 1.4-1.2 2-1.8.3-.3.5-.3.9 0 2.3 2.3 4.7 4.5 7.1 6.8 2.8 2.7 5.6 5.3 8.4 8 1.6 1.5 3.2 3.1 4.8 4.7 1.5 1.4 3 2.9 4.5 4.3s3 2.9 4.5 4.4c1.6 1.5 3.1 3 4.7 4.5 2.2 2.2 4.5 4.3 6.7 6.5v1.8c-1.2 1.2-1.9 1.1-3.2 0-2.8-2.7-5.7-5.3-8.5-8l-7.2-6.9c-2.5-2.3-5-4.7-7.4-7-3.6-3.5-7.3-7-10.9-10.5-1.2-1.1-2.4-2.3-3.6-3.4-.4-.4-.6-.3-1 0-4.1 4-8.3 8-12.4 11.9-2.4 2.3-4.9 4.6-7.3 6.9s-4.8 4.7-7.2 7C43.6 70 40 73.4 36.5 76.8c-1.1 1.1-2.2.9-3.2-.3.1-.8.1-1.2.1-1.7zM102.3 48.1v6.3c0 .8-.3 1.5-1 1.9s-1.4.2-2-.3c-.3-.3-.5-.6-.5-1 0-1.7 0-3.3-.1-5v-5.1c0-.5-.3-.4-.6-.4-1.5.1-2.9 0-4.4 0-1.3.1-2.6-.1-3.8 0-.6.1-1.3 0-1.9-.2-.9-.2-1.3-.9-1.2-2 .1-.9.8-1.4 1.8-1.4h12.7c1 0 1 .1 1 1.1v6.1z"/></g></svg><svg viewBox="0 0 151 151" id="serv-icons-turnkey" xmlns="http://www.w3.org/2000/svg"><circle fill="#B4575C" cx="75.5" cy="75.5" r="75.5"/><g fill="#E9E0CF"><path d="M52 111.1H39.8c-.8-.4-1.7-.7-2.4-1.2-1.5-1.1-2.5-2.6-3.2-4.4V59c0-.1.1-.2.1-.3 1.2-3.4 4.3-5.7 8.1-5.6 2.1.1 4.3.1 6.4 0s4.1.4 5.8 1.7c.2.2.5.3.8.1 2.3-1.1 4.5-2.2 6.4-4 3.2-3 5-6.7 5.9-10.8.4-1.8.5-3.7.6-5.5.1-1.7.6-3.2 1.6-4.6 1.3-1.6 2.9-2.6 4.9-3.1h2.9c1.2.3 2.3.7 3.4 1.4 5.3 3.7 7.9 9 8.3 15.4.2 2.9.2 5.9-.5 8.8-.1.5.1.8.6.8 1 0 1.9.1 2.9.1 5 .1 10 .1 14.9.5 1.7.1 3.4.3 5 1 3.3 1.4 5.3 3.8 6.1 7.3v4.2c-.3 1.6-.9 3.1-1.9 4.5-.3.3-.1.6 0 1 1.7 4.5.7 8.5-2.1 12.1-.5.6-.8 1.1-.4 1.8.1.2.1.5.2.7.4 2.5-.2 4.9-1.1 7.2-.7 1.9-1.7 3.5-3.3 4.8-.4.3-.4.6-.3 1 .4 3.7-.8 6.8-3.4 9.4-1.2 1.2-2.8 1.8-4.5 2.3H78.2c-.2 0-.3-.1-.5-.1-2.2-.1-4.5-.5-6.7-.9-4.2-.8-8.4-1.8-12.5-2.9-1.1-.3-1.8-.3-2.5.9-.8 1.5-2.4 2.3-4 2.9zm3.1-30.2c.1 0 .1 0 0 0 .1 5.8.1 11.7.1 17.5 0 1.8.6 2.5 2.3 2.9 2.8.7 5.6 1.4 8.5 2.1 4.7 1.2 9.4 2.1 14.2 2.4 6.2.4 12.5.2 18.8.1 3 0 4.5-1.4 5.1-4.3.4-1.9-.6-3.3-2.6-3.4h-4.3c-.8 0-1.3-.6-1.3-1.4s.5-1.3 1.4-1.4h1.6c1.6 0 3.1.1 4.7-.1s3-.7 3.9-2.2c.9-1.6 1.5-3.4 1.4-5.3-.1-1.3-.8-2.2-2.1-2.5-.6-.1-1.3-.2-2-.2h-4.7c-.9 0-1.5-.6-1.5-1.4s.6-1.4 1.4-1.4H106.1c1.1 0 2.1-.1 3-.8 2.1-1.5 2.6-3.6 2.6-6 0-.7-.2-1.3-.6-1.9-.9-1.3-2.1-1.6-3.5-1.6h-4.8c-1 0-1.6-.5-1.6-1.4s.5-1.3 1.6-1.3h4.7c1 0 2.1-.1 3.1-.5s1.8-1 2.2-2.1c.3-.9.3-1.8.3-2.7 0-2.1-1.2-3.6-3.3-4.2-2.6-.7-5.2-.7-7.8-.8-3.8-.1-7.6 0-11.4-.1-2.8-.1-5.5 0-8.3 0-.7 0-.8-.1-.6-.8 1.2-3.4 2.1-6.9 2.2-10.5.1-3.5-.1-6.9-1.9-10-1.1-1.9-2.3-3.5-4.2-4.6-2-1.1-3.9 0-4 2.3 0 3.2-.6 6.2-1.5 9.2-1.1 3.4-2.8 6.5-5.2 9.2-2.6 2.9-5.8 5.1-9.5 6.5-1.7.7-2.4 1.8-2.4 3.6 0 5.5-.1 11.3-.1 17.1zm-2.7 1.4V61.7c0-2.1-.9-3.1-3.1-3.1h-7.1c-1.8 0-2.8 1.1-2.8 2.8V103c0 1.8 1.1 2.9 2.9 2.9h7.3c.5 0 .9-.1 1.3-.3 1.2-.6 1.5-1.5 1.5-2.7-.1-6.8-.1-13.7 0-20.6z"/><path d="M45.8 103.4c-2.3 0-4-1.7-4-4.1 0-2.2 1.8-4 4-4s4.1 1.8 4 4.1c.1 2.3-1.7 4-4 4zm1.2-4c0-.6-.5-1.2-1.2-1.2-.6 0-1.2.5-1.2 1.1s.6 1.2 1.2 1.2c.7.1 1.2-.4 1.2-1.1z"/></g></svg><svg viewBox="0 0 65 65" id="vk" xmlns="http://www.w3.org/2000/svg"><path d="M23.4 1.6C38-3 55.1 4.5 61.5 18.4c7.2 14.2 1.9 33.1-11.8 41.3-13.2 8.8-32.7 5.6-42.4-7.1-9.6-11.7-9.2-30.1.9-41.3 4-4.6 9.3-8 15.2-9.7m1 22.1c4.2 2 3.2 7.8 1.7 11.3-3.6-2.8-5-7.2-7.3-11-2.8-.7-5.6-.1-8.5-.1 2.1 6 5.3 11.6 9.2 16.6 3.5 4.6 9.7 7.2 15.5 5.8.1-2.1.5-4.1 1.8-5.8 2.4 1.8 4.1 4.5 6.7 5.9 3.1.6 6.4.4 9.5-.4-1.1-4.2-5.7-6.1-7.3-9.9 2.1-4.2 6-7.3 7.3-12-3.3-.6-6.6-.3-9.9-.3-1.9 4-3.5 8.4-7.3 11.1-1.7-3.7.2-7.9-1.2-11.6-3.2-1.1-7-.9-10.2.4z"/></svg><svg viewBox="0 0 18.5 18.7" id="zoom" xmlns="http://www.w3.org/2000/svg"><path fill="#DBDBDB" d="M16.9 18.7h-.3c-.4 0-.6-.2-.9-.5l-3.3-3.3s-.1-.1-.1 0c-1.1.6-2.2 1-3.5 1.1-1.1.1-2.1 0-3.1-.3-1.9-.6-3.4-1.8-4.5-3.5-.6-1-1-2.1-1.1-3.3 0-.2 0-.3-.1-.5v-.9c0-.4.1-.7.1-1.1.4-1.7 1.1-3.1 2.4-4.3C4.4.4 6.7-.3 9.2.1c1.4.2 2.7.8 3.8 1.7 2.3 1.9 3.2 4.4 2.9 7.4-.1 1.1-.5 2.1-1.1 3v.2l3.3 3.3c.6.6.6 1.4 0 2l-.6.6c-.2.2-.4.3-.6.4.1-.1.1-.1 0 0zm-8.8-4.9c3.2 0 5.8-2.6 5.8-5.8s-2.6-5.8-5.8-5.8C4.9 2.2 2.3 4.8 2.3 8c-.1 3.2 2.5 5.8 5.8 5.8z"/></svg></svg>